<?xml version="1.0" standalone="no"?>
<!DOCTYPE svg PUBLIC "-//W3C//DTD SVG 1.1//EN" "http://www.w3.org/Graphics/SVG/1.1/DTD/svg11.dtd" >
<svg>
<metadata>
Created by FontForge 20090914 at Tue Jul 21 10:00:49 2020
 By www-data
Copyright (c) Typographer Yining Chen, 2017. All rights reserved.
</metadata>
<defs>
<font id="LouisGeorgeCafe" horiz-adv-x="1173" >
  <font-face 
    font-family="Louis George Café"
    font-weight="400"
    font-stretch="normal"
    units-per-em="2048"
    panose-1="2 11 6 0 2 2 2 2 2 4"
    ascent="1638"
    descent="-410"
    x-height="950"
    cap-height="1464"
    bbox="-300 -500 2580 1936"
    underline-thickness="150"
    underline-position="-142"
    unicode-range="U+0020-U+F002"
  />
<missing-glyph horiz-adv-x="1024" 
 />
    <glyph glyph-name=".notdef" horiz-adv-x="1024" 
 />
    <glyph glyph-name="space" unicode=" " horiz-adv-x="508" 
 />
    <glyph glyph-name="space" unicode="&#xa0;" horiz-adv-x="508" 
 />
    <glyph glyph-name="exclam" unicode="!" horiz-adv-x="657" 
d="M365 200l2 0.000976562c28.667 0 53.667 -11.667 75 -35c16 -20 24 -40.333 24 -61v-6c0 -28.667 -12.333 -53.667 -37 -75c-18.667 -15.333 -40 -23 -64 -23c-25.333 0 -48.333 9.33301 -69 28c-20 21.333 -30 44 -30 68v8c0 25.333 11 48.666 33 69.999
c19.333 17.333 41.333 26 66 26zM277 1464h178l1 -1l-20 -1138h-140l-20 1138z" />
    <glyph glyph-name="quotedbl" unicode="&#x22;" horiz-adv-x="804" 
d="M159 1100v400h140v-400h-140zM429 1100v400h140v-400h-140z" />
    <glyph glyph-name="numbersign" unicode="#" horiz-adv-x="953" 
d="M375 830l-40 -239h229l40 239h-229zM319 1339l137 -23v-1l-57 -345h229l60 359c90.667 -15.333 136.667 -23 138 -23l-56 -336h146v-140h-170l-40 -239h157l1 -1v-138l-1 -1h-180l-70 -416l-138 23l66 393h-229l-68 -407l-138 24l64 383h-133l-1 1v138l1 1h156l40 239
h-144l-1 1v138l1 1h168l61 369h1z" />
    <glyph glyph-name="dollar" unicode="$" horiz-adv-x="1057" 
d="M452 1440l139.006 -0.000976562l1 -1v-98c43.333 -5.33301 81.666 -15 114.999 -29c45.333 -17.333 89.333 -45.333 132 -84c24 -24 39.333 -41 46 -51c18 -23.333 29.667 -41 35 -53l-125 -63l-14 22c-8 10.667 -18.333 22.667 -31 36c-58.667 56.667 -128 85 -208 85
h-7c-65.333 0 -123 -16.333 -173 -49c-40.667 -27.333 -69.334 -65 -86.001 -113c-6 -20 -9 -40 -9 -60v-1c0 -46.667 16.333 -82.667 49 -108c21.333 -16.667 43.333 -29.667 66 -39c56 -26.667 150.667 -54 284 -82c35.333 -9.33301 65 -19.666 89 -30.999
c22 -10.667 45.333 -24.667 70 -42c10 -8 22.667 -19.667 38 -35c21.333 -24 36 -43.333 44 -58c30 -51.333 45 -107.666 45 -168.999c0 -86.667 -28.667 -165.334 -86 -236.001c-18.667 -20.667 -34 -35.667 -46 -45c-24.667 -18.667 -45.667 -32.667 -63 -42
c-18 -9.33301 -41 -19 -69 -29c-18.667 -7.33301 -44.667 -14 -78 -20l-18 -2v-99l-1 -1h-139l-1 1v101c-26.667 4.66699 -49.667 10 -69 16c-32 10.667 -60.333 23 -85 37c-22.667 12.667 -47.334 29.667 -74.001 51c-24.667 22.667 -43.334 42 -56.001 58
c-28.667 36 -48.334 65.333 -59.001 88c-7.33301 14 -11 21.667 -11 23l127 60c11.333 -26 27 -52 47 -78c22.667 -26 41 -44 55 -54c26.667 -19.333 49 -32.333 67 -39c43.333 -18.667 87.333 -28 132 -28h8c64.667 0 125.334 18 182.001 54
c11.333 7.33301 24.333 18.333 39 33c19.333 23.333 31.666 42.333 36.999 57c14 31.333 21 62.666 21 93.999c0 62.667 -26 114 -78 154c-14.667 10 -27.667 17.667 -39 23c-14.667 6.66699 -32 13 -52 19l-129 30c-82.667 20.667 -149.667 43.334 -201 68.001
c-20.667 10 -43.667 23.333 -69 40c-14 10 -28.667 23 -44 39c-48.667 52 -73 113.667 -73 185v13c0 57.333 16.333 114.333 49 171c9.33301 16.667 24 36 44 58c24 24.667 41.333 40 52 46c19.333 14 39.666 26.333 60.999 37c12.667 6 30.667 13 54 21
c36 10 57.333 15 64 15v103z" />
    <glyph glyph-name="percent" unicode="%" horiz-adv-x="1441" 
d="M247 1150l-0.000976562 -2c0 -38.667 16.667 -71.334 50 -98.001c23.333 -17.333 48 -26 74 -26c40 0 73.333 16.667 100 50c17.333 22.667 26 47.334 26 74.001v4c0 31.333 -12.333 60 -37 86c-25.333 24 -54.666 36 -87.999 36c-32.667 0 -62 -11.667 -88 -35
c-24.667 -26 -37 -55.667 -37 -89zM943.999 273c0 -43.333 19.666 -79 58.999 -107c20.667 -12.667 43.334 -19 68.001 -19c39.333 0 73 17.333 101 52c15.333 23.333 23 46 23 68v9c0 34.667 -15.333 65.667 -46 93c-24.667 18.667 -50 28 -76 28h-7
c-35.333 0 -66.333 -15 -93 -45c-19.333 -24 -29 -50.333 -29 -79zM1069 552c76.667 0 144.334 -28.6689 203.001 -86.002l10 -12c44.667 -54 67 -114.333 67 -181c0 -77.333 -28.667 -144.666 -86 -201.999c-23.333 -22 -42.333 -36.333 -57 -43
c-42.667 -23.333 -87 -35 -133 -35h-8c-60 0 -116.667 20.667 -170 62c-20 16.667 -35.667 32 -47 46c-38.667 52.667 -58 108.667 -58 168v7c0 64.667 22.667 124.334 68 179.001c22.667 24.667 39.667 39.667 51 45c49.333 34.667 102.666 52 159.999 52zM368.998 1428
l5.99902 0.00195312c65.333 0 125.333 -22.333 180 -67c21.333 -20.667 35 -35.334 41 -44.001c37.333 -51.333 56 -107 56 -167c0 -76 -28.333 -142.667 -85 -200l-14 -15c-54.667 -43.333 -115.334 -65 -182.001 -65c-65.333 0 -124.666 21.667 -177.999 65
c-16.667 14.667 -29 27.334 -37 38.001c-14 18 -24.667 34 -32 48c-20.667 42 -31 82.333 -31 121v13c0 55.333 18 108.666 54 159.999c6.66699 9.33301 19.334 23.666 38.001 42.999c56 46.667 117.333 70 184 70zM1260 1433l-916 -1433h-160l916 1433h160z" />
    <glyph glyph-name="ampersand" unicode="&#x26;" horiz-adv-x="1195" 
d="M444 1152l-0.00195312 -3.99902c0 -30 6.66699 -56 20 -78c26 -46.667 59 -102.334 99 -167.001l3 -5c32.667 20 61.334 38.667 86.001 56c24.667 16.667 51.667 38 81 64c24 24.667 39 42.334 45 53.001c11.333 17.333 18 32.333 20 45c1.33301 4 2 11 2 21v10
c0 45.333 -16.333 81.666 -49 108.999c-19.333 16.667 -47.666 29.334 -84.999 38.001c-14 4 -28.333 6 -43 6c-50.667 0 -96.667 -18 -138 -54c-15.333 -16.667 -24.333 -28.334 -27 -35.001c-9.33301 -14 -14 -33.667 -14 -59zM236.998 344.001v-1.99902
c0 -84.667 34.667 -145.667 104 -183c24 -10.667 39 -16 45 -16c14.667 -4 35.667 -6 63 -6h2c116 0 233.667 49.667 353 149l-195 290l-87 135h-1c-34 -22 -69 -48 -105 -78c-16.667 -13.333 -37 -31.333 -61 -54c-28.667 -28.667 -49 -51.334 -61 -68.001
c-29.333 -41.333 -46 -75 -50 -101c-4.66699 -23.333 -7 -45.333 -7 -66zM622.998 1437c61.333 0 121.665 -17.001 180.998 -51.001c54.667 -32.667 93.334 -79 116.001 -139c11.333 -33.333 17 -68.333 17 -105c0 -47.333 -10.333 -88.666 -31 -123.999
c-8.66699 -16 -20 -33 -34 -51c-8.66699 -11.333 -24.334 -28.333 -47.001 -51c-40.667 -36 -73.334 -61.667 -98.001 -77c-29.333 -21.333 -58.666 -40.333 -87.999 -57l268 -402l101 106l100 -95l-30 -31c-22.667 -25.333 -53.334 -57 -92.001 -95l98 -143l-112 -79
l-89 129h-1c-44 -35.333 -84.333 -63.666 -121 -84.999c-104 -58 -205 -87 -303 -87h-15c-82 0 -152.667 22.333 -212 67c-9.33301 5.33301 -25.333 19.666 -48 42.999c-37.333 40.667 -62.666 92.667 -75.999 156c-4.66699 24.667 -7 47.667 -7 69v15
c0 47.333 7.66699 92.666 23 135.999c9.33301 24 22.333 49.333 39 76c14 20.667 32.333 44.334 55 71.001c26 28.667 52.333 55 79 79c31.333 26.667 58.333 48.667 81 66l71 49l-97 163c-13.333 22.667 -23.666 44.334 -30.999 65.001c-9.33301 31.333 -14 63.333 -14 96
c0 61.333 17.333 113.666 52 156.999c3.33301 7.33301 17 22.333 41 45c15.333 13.333 29.333 24 42 32c56.667 34.667 117.334 52 182.001 52z" />
    <glyph glyph-name="quotesingle" unicode="'" horiz-adv-x="432" 
d="M129 1100v400h140v-400h-140z" />
    <glyph glyph-name="parenleft" unicode="(" horiz-adv-x="754" 
d="M567 1525h32l3 -3v-134l-3 -2h-30c-66 0 -130 -59.667 -192 -179c-70 -148.667 -105 -319.334 -105 -512.001v-74c0 -215.333 42.333 -400 127 -554c56.667 -91.333 113 -137 169 -137h31l3 -2v-134l-3 -3h-35c-100 0 -192 63 -276 189
c-103.333 176.667 -155 390.334 -155 641.001v73c0 256 53.333 472.667 160 650c82.667 120.667 174 181 274 181z" />
    <glyph glyph-name="parenright" unicode=")" horiz-adv-x="754" 
d="M461 1344c106.667 -177.333 160 -394 160 -650v-73c0 -250.667 -51.667 -464.334 -155 -641.001c-84 -126 -176 -189 -276 -189h-35l-3 3v134l3 2h31c56 0 112.333 45.667 169 137c84.667 154 127 338.667 127 554v74c0 192.667 -35 363.334 -105 512.001
c-62 119.333 -126 179 -192 179h-30l-3 2v134l3 3h32c100 0 191.333 -60.333 274 -181z" />
    <glyph glyph-name="asterisk" unicode="*" horiz-adv-x="1025" 
d="M439 1504l138.998 0.000976562l1 -1v-248l234 84c30.667 -86 46.334 -130 47.001 -132v-1l-235 -84l145 -198l-112 -83h-1l-148 201l-148 -201h-1l-112 83l145 198c-3.33301 1.33301 -81.666 29.666 -234.999 84.999l46 131h1l234 -83v249z" />
    <glyph glyph-name="plus" unicode="+" horiz-adv-x="830" 
d="M355 560v285h140v-285h285v-140h-285v-285h-140v285h-285v140h285z" />
    <glyph glyph-name="comma" unicode="," horiz-adv-x="494" 
d="M222 193c32.667 0 59.667 -14.668 81 -44.001c12 -18.667 18 -43 18 -73c0 -82 -48.667 -166.333 -146 -253c-26.667 -24 -44 -38 -52 -42l-40 52c67.333 62.667 101 118.334 101 167.001c-24 10 -41.333 26.333 -52 49c-8 13.333 -12 28.333 -12 45
c0 32.667 15 60 45 82c16.667 11.333 35.667 17 57 17z" />
    <glyph glyph-name="hyphen" unicode="-" horiz-adv-x="863" 
d="M76 560h706v-140h-706v140z" />
    <glyph glyph-name="hyphen" unicode="&#xad;" horiz-adv-x="863" 
d="M76 560h706v-140h-706v140z" />
    <glyph glyph-name="period" unicode="." horiz-adv-x="502" 
d="M250 200l2 0.000976562c28.667 0 53.667 -11.667 75 -35c16 -20 24 -40.333 24 -61v-6c0 -28.667 -12.333 -53.667 -37 -75c-18.667 -15.333 -40 -23 -64 -23c-25.333 0 -48.333 9.33301 -69 28c-20 21.333 -30 44 -30 68v8c0 25.333 11 48.666 33 69.999
c19.333 17.333 41.333 26 66 26z" />
    <glyph glyph-name="slash" unicode="/" horiz-adv-x="676" 
d="M515 1374h138v-1l-512 -1423h-140l512 1423z" />
    <glyph glyph-name="zero" unicode="0" horiz-adv-x="1347" 
d="M668 1377l9 0.000976562c137.333 0 262 -57.667 374 -173c127.333 -144.667 191 -316.334 191 -515.001s-63.667 -370.667 -191 -516c-112 -115.333 -238 -173 -378 -173c-156.667 0 -293 70 -409 210c-106 138.667 -159 296 -159 472v13
c0 178.667 54.667 338.667 164 480c117.333 134.667 250.333 202 399 202zM244 693.001l-0.00195312 -11c0 -142 42.667 -270.667 128 -386c88 -104.667 189 -157 303 -157c120 0 225.667 60.333 317 181c74 110.667 111 233.667 111 369c0 138 -38.333 262.667 -115 374
c-89.333 117.333 -194.666 176 -315.999 176h-1c-119.333 0 -224.666 -60 -315.999 -180c-74 -110.667 -111 -232.667 -111 -366z" />
    <glyph glyph-name="one" unicode="1" horiz-adv-x="656" 
d="M151 1349h287l1 -1v-1357l-1 -1h-137l-1 1v1219h-149l-1 1v137z" />
    <glyph glyph-name="two" unicode="2" horiz-adv-x="997" 
d="M500 1382c134.667 0 240.668 -54.998 318.001 -164.998c24 -34 43 -73.667 57 -119c15.333 -45.333 23 -92.333 23 -141c0 -70.667 -16.333 -134.334 -49 -191.001l-248 -286l-264 -304l-44 -52h604v-140h-782l-1 1v147c0 1.33301 3.33301 5.33301 10 12l251 290l239 275
l120 140c16 32.667 24 69 24 109c0 65.333 -19.667 126.666 -59 183.999c-48 66 -113 99 -195 99h-8c-114.667 0 -192.667 -54 -234 -162c-6.66699 -18.667 -13 -44 -19 -76c-3.33301 -21.333 -5 -37.333 -5 -48h-140v4c0 43.333 9.33301 95.333 28 156
c13.333 36.667 28.666 69 45.999 97c10.667 16.667 25 35 43 55c72.667 76.667 167.667 115 285 115z" />
    <glyph glyph-name="three" unicode="3" horiz-adv-x="1052" 
d="M526 1382c92 0 174.667 -31.0039 248 -93.0039c22.667 -20.667 37.334 -36 44.001 -46c20.667 -26.667 35 -48.667 43 -66c28 -55.333 42 -112.666 42 -171.999v-4c0 -89.333 -29.667 -170.666 -89 -243.999c-21.333 -24 -39 -41.333 -53 -52
c-8 -6 -12.667 -9.33301 -14 -10c12.667 -8 31.334 -22.667 56.001 -44c20.667 -20.667 36.334 -37.667 47.001 -51c58 -77.333 87 -162.333 87 -255c0 -97.333 -31.667 -186 -95 -266c-10 -11.333 -24.667 -26 -44 -44c-26 -22.667 -48 -39 -66 -49
c-68.667 -40 -139.334 -60 -212.001 -60h-13c-65.333 0 -130.333 16.667 -195 50c-22.667 12.667 -47 29.334 -73 50.001c-26 24 -44.333 42.667 -55 56c-15.333 20 -27.333 37.333 -36 52c-10 16.667 -20.667 39 -32 67c-16.667 48 -25 93.667 -25 137v6l1 1h138l1 -1v-1
c0 -63.333 21.333 -121.666 64 -174.999c17.333 -19.333 31 -32.666 41 -39.999c53.333 -41.333 112.333 -62 177 -62h1c66.667 0 127 21.667 181 65c21.333 18.667 35.666 33.334 42.999 44.001c39.333 52 59 108.667 59 170c0 64 -21 122.333 -63 175
c-17.333 20 -32 34.333 -44 43c-17.333 12.667 -32.666 22.667 -45.999 30c-42 20.667 -84 31 -126 31h-102l-1 1v138l1 1h125c23.333 2 43.666 6 60.999 12c21.333 7.33301 41.666 17.666 60.999 30.999c10 6.66699 23 18 39 34c18.667 23.333 31 42.333 37 57
c16 32.667 24 67.667 24 105c0 59.333 -20.333 113 -61 161c-19.333 19.333 -32.333 30.666 -39 33.999c-41.333 29.333 -86.333 44 -135 44h-3c-54 0 -103.333 -18.333 -148 -55c-57.333 -50 -86 -113 -86 -189v-3l-1 -1h-139v11c0 80 24.333 154.667 73 224
c8 11.333 22.667 28 44 50c18.667 16.667 35 29.667 49 39c65.333 42.667 135 64 209 64z" />
    <glyph glyph-name="four" unicode="4" horiz-adv-x="1011" 
d="M674 1088l-200 -353l-210 -372h410v725zM813 1357l1 -1v-993h111v-139l-1 -1h-110v-231l-1 -1h-138l-1 1v231h-650l214 379l240 424l158 280l29 51h148z" />
    <glyph glyph-name="five" unicode="5" horiz-adv-x="1146" 
d="M935 1357l0.996094 -0.999023v-139h-432l-11 -43l-67 -261h1c36.667 8 73.667 12 111 12c104 0 200.333 -31 289 -93c16 -10.667 37 -28.334 63 -53.001c26 -27.333 45 -50 57 -68c60 -87.333 90 -182.666 90 -285.999c0 -105.333 -31.333 -202.666 -94 -291.999
c-12 -16.667 -29.667 -37 -53 -61c-28 -26.667 -51 -46 -69 -58c-32 -21.333 -60.333 -37 -85 -47c-64.667 -27.333 -128 -41 -190 -41h-19c-58 0 -118.667 12.667 -182 38c-27.333 11.333 -55 26 -83 44c-18.667 11.333 -42.667 30.333 -72 57
c-28 29.333 -46 50.333 -54 63c-17.333 22.667 -30.666 43.667 -39.999 63c-8.66699 15.333 -13.667 25.666 -15 30.999l127 57c10.667 -22.667 24 -45.334 40 -68.001c9.33301 -12 23 -27 41 -45c25.333 -23.333 48.333 -40.666 69 -51.999
c56.667 -32 115.334 -48 176.001 -48h7c74 0 144 23.333 210 70c11.333 8 27.333 22.333 48 43l20 23c16 21.333 28 40 36 56c28 54 42 109.333 42 166c0 88 -29.333 166.667 -88 236c-15.333 17.333 -28.666 30.666 -39.999 39.999c-69.333 56.667 -146.666 85 -231.999 85
c-68 0 -133 -19 -195 -57l-126 -72l101 397l78 303v1h540z" />
    <glyph glyph-name="six" unicode="6" horiz-adv-x="1155" 
d="M236 416v-4c0 -74.667 23.333 -144 70 -208c8 -11.333 22 -27 42 -47c68.667 -60.667 145.667 -91 231 -91c84.667 0 161 29.333 229 88c23.333 23.333 37.333 38.666 42 45.999c48.667 64 73 135.333 73 214c0 93.333 -33.333 175.333 -100 246
c-18.667 18.667 -34 32 -46 40c-60 42 -125.667 63 -197 63c-84.667 0 -160.667 -29.333 -228 -88c-20.667 -19.333 -34 -33.333 -40 -42c-50.667 -65.333 -76 -137.666 -76 -216.999zM580 1379l121.001 -69.998l-245 -422c40.667 10.667 80.667 16 120 16h7
c94 0 183 -27.667 267 -83c19.333 -12.667 41 -30.334 65 -53.001c22.667 -22.667 40 -42.334 52 -59.001c18.667 -26.667 32.667 -49.334 42 -68.001c36 -72.667 54 -145.667 54 -219v-13c0 -80.667 -21 -159.667 -63 -237c-12 -21.333 -28.333 -44.666 -49 -69.999
c-8.66699 -11.333 -24.334 -28 -47.001 -50c-45.333 -40 -94 -70.333 -146 -91c-57.333 -22.667 -117 -34 -179 -34c-104.667 0 -201.334 32.333 -290.001 97c-14.667 11.333 -33.667 28.333 -57 51c-28 31.333 -48.333 57.333 -61 78c-19.333 31.333 -34.666 63 -45.999 95
c-19.333 54.667 -29 108 -29 160v15c0 70.667 17.333 141.667 52 213c8.66699 16.667 41 73 97 169l258 443z" />
    <glyph glyph-name="seven" unicode="7" horiz-adv-x="939" 
d="M54 1357l832 -0.000976562l1 -1v-131l-168 -316l-229 -433l-208 -394l-60 -114h-1c-2.66699 0.666992 -43.667 22.334 -123 65.001l250 474l188 355c0.666992 0 51 95 151 285c22.667 42 34.667 65.333 36 70h-669l-1 1v138z" />
    <glyph glyph-name="eight" unicode="8" horiz-adv-x="1083" 
d="M239 360l-0.00195312 -1c0 -64.667 21 -123.667 63 -177c17.333 -20.667 33.333 -36.667 48 -48c57.333 -43.333 120 -65 188 -65h5c74 0 141 25 201 75c20.667 20 33.334 33.333 38.001 40c40.667 53.333 61 112 61 176c0 70.667 -25.333 134.667 -76 192
c-21.333 22 -37.666 36.333 -48.999 43c-54 37.333 -112.667 56 -176 56h-1c-75.333 0 -143 -25.333 -203 -76c-22.667 -22 -36 -36.667 -40 -44c-14 -16.667 -25.667 -35.667 -35 -57c-16 -36.667 -24 -74.667 -24 -114zM313.998 1018
c0 -60.667 22.332 -114.332 66.999 -160.999c46 -44 99.333 -66 160 -66c64 0 119.333 24 166 72c40.667 46 61 96.667 61 152v5c0 55.333 -20.333 106 -61 152c-47.333 48.667 -102.666 73 -165.999 73c-60 0 -113.333 -22 -160 -66
c-44.667 -46.667 -67 -100.334 -67 -161.001zM538.997 1385l5.00098 -0.000976562c73.333 0 142.333 -22 207 -66c13.333 -8.66699 31 -23.667 53 -45c25.333 -27.333 42.333 -49.333 51 -66c35.333 -59.333 53 -122.333 53 -189c0 -86.667 -28 -165.334 -84 -236.001
c-22 -24 -39.333 -40.667 -52 -50l-3 -4c15.333 -8 35 -21.667 59 -41c24.667 -21.333 44 -40.666 58 -57.999c64.667 -80.667 97 -170.667 97 -270c0 -104 -35 -197.667 -105 -281c-24.667 -26 -41 -41.667 -49 -47c-28.667 -22.667 -53 -39.334 -73 -50.001
c-68.667 -36 -137.667 -54 -207 -54h-16c-64 0 -128.667 15.667 -194 47c-23.333 12 -48 27.667 -74 47c-13.333 10.667 -28 23.667 -44 39c-30.667 34 -53 64.333 -67 91c-9.33301 15.333 -17.666 32.333 -24.999 51c-20 51.333 -30 101 -30 149v15
c0 67.333 18.333 134.333 55 201c39.333 68.667 92.666 122.334 159.999 161.001c-10 7.33301 -25.667 22 -47 44c-18 22 -32 41.333 -42 58c-34 58.667 -51 121 -51 187c0 87.333 28.667 166.333 86 237c25.333 27.333 42.666 44 51.999 50
c16 12.667 30.333 22.334 43 29.001c58 34 119.333 51 184 51z" />
    <glyph glyph-name="nine" unicode="9" horiz-adv-x="1150" 
d="M232 897l0.000976562 -3.99902c0 -79.333 26 -152.333 78 -219c18 -21.333 36.667 -39.666 56 -54.999c64 -48 133.667 -72 209 -72c82 0 156.333 27.667 223 83c18.667 16.667 31.667 29.667 39 39c54.667 67.333 82 142.666 82 225.999v1c0 84 -27.667 159.667 -83 227
c-18 20.667 -33.667 36 -47 46c-64 50 -135 75 -213 75h-2c-80.667 0 -154.334 -27.667 -221.001 -83c-22 -20.667 -36 -35 -42 -43c-52.667 -66.667 -79 -140.334 -79 -221.001zM568.001 1384l14.9971 -0.000976562c73.333 0 146 -18.667 218 -56
c24 -12.667 49.333 -29.334 76 -50.001c30.667 -26 55.667 -51 75 -75c24 -31.333 41 -57.333 51 -78c12.667 -22.667 24.334 -51.334 35.001 -86.001c14 -47.333 21 -92.666 21 -135.999v-14c0 -84 -23 -166 -69 -246l-145 -249l-251 -432l-10 -16
c-78 45.333 -118 69 -120 71l221 380l15 25v1h-1c-41.333 -10.667 -82.666 -16 -123.999 -16c-104.667 0 -201.334 32.667 -290.001 98c-14.667 10.667 -31.667 25.334 -51 44.001c-30.667 32.667 -52 59.334 -64 80.001c-15.333 24 -27.666 47.333 -36.999 70
c-27.333 63.333 -41 126 -41 188v17c0 70.667 17.333 142 52 214c12.667 24.667 29.667 51 51 79c10.667 14 24 29 40 45c30 28.667 52.333 47.334 67 56.001c24.667 17.333 49.334 31.666 74.001 42.999c64.667 28.667 128.667 43 192 43z" />
    <glyph glyph-name="colon" unicode=":" horiz-adv-x="538" 
d="M287 950c28.667 0 53.667 -11.333 75 -34c16.667 -20 25 -40.667 25 -62v-7c0 -26 -11 -49.667 -33 -71c-20 -17.333 -42.333 -26 -67 -26h-1c-34 0 -62 15.333 -84 46c-10 18 -15 34.667 -15 50v8c0 26 11 49.667 33 71c20 16.667 42.333 25 67 25zM286 200
l2 0.000976562c28.667 0 53.667 -11.667 75 -35c16 -20 24 -40.333 24 -61v-6c0 -28.667 -12.333 -53.667 -37 -75c-18.667 -15.333 -40 -23 -64 -23c-25.333 0 -48.333 9.33301 -69 28c-20 21.333 -30 44 -30 68v8c0 25.333 11 48.666 33 69.999
c19.333 17.333 41.333 26 66 26z" />
    <glyph glyph-name="semicolon" unicode=";" horiz-adv-x="508" 
d="M257 950c28.667 0 53.667 -11.333 75 -34c16.667 -20 25 -40.667 25 -62v-7c0 -26 -11 -49.667 -33 -71c-20 -17.333 -42.333 -26 -67 -26h-1c-34 0 -62 15.333 -84 46c-10 18 -15 34.667 -15 50v8c0 26 11 49.667 33 71c20 16.667 42.333 25 67 25zM258 193
c32.667 0 59.667 -14.668 81 -44.001c12 -18.667 18 -43 18 -73c0 -82 -48.667 -166.333 -146 -253c-26.667 -24 -44 -38 -52 -42l-40 52c67.333 62.667 101 118.334 101 167.001c-24 10 -41.333 26.333 -52 49c-8 13.333 -12 28.333 -12 45c0 32.667 15 60 45 82
c16.667 11.333 35.667 17 57 17z" />
    <glyph glyph-name="semicolon" unicode="&#x37e;" horiz-adv-x="508" 
d="M257 950c28.667 0 53.667 -11.333 75 -34c16.667 -20 25 -40.667 25 -62v-7c0 -26 -11 -49.667 -33 -71c-20 -17.333 -42.333 -26 -67 -26h-1c-34 0 -62 15.333 -84 46c-10 18 -15 34.667 -15 50v8c0 26 11 49.667 33 71c20 16.667 42.333 25 67 25zM258 193
c32.667 0 59.667 -14.668 81 -44.001c12 -18.667 18 -43 18 -73c0 -82 -48.667 -166.333 -146 -253c-26.667 -24 -44 -38 -52 -42l-40 52c67.333 62.667 101 118.334 101 167.001c-24 10 -41.333 26.333 -52 49c-8 13.333 -12 28.333 -12 45c0 32.667 15 60 45 82
c16.667 11.333 35.667 17 57 17z" />
    <glyph glyph-name="less" unicode="&#x3c;" horiz-adv-x="920" 
d="M638 1005l89 -109l-349 -284l-115 -95l115 -93l349 -286l-89 -108l-342 279l-180 148v121c3.33301 3.33301 85 70 245 200z" />
    <glyph glyph-name="equal" unicode="=" horiz-adv-x="839" 
d="M94 709h650v-140h-650v140zM94 409h650v-140h-650v140z" />
    <glyph glyph-name="greater" unicode="&#x3e;" horiz-adv-x="920" 
d="M559 778c160 -130 241.667 -196.667 245 -200v-121l-180 -148l-342 -279l-89 108l349 286l115 93l-115 95l-349 284l89 109z" />
    <glyph glyph-name="question" unicode="?" horiz-adv-x="1025" 
d="M522 200h1c34.667 0 63 -15.667 85 -47c10 -17.333 15 -34.333 15 -51v-4c0 -28.667 -12.333 -53.667 -37 -75c-18.667 -15.333 -40 -23 -64 -23c-28 0 -52.333 10.667 -73 32c-17.333 20 -26 42.667 -26 68c0 32.667 13.667 59.667 41 81c18 12.667 37.333 19 58 19z
M525 1503l14.002 0.00292969c66 0 131 -19 195 -57c17.333 -10 39 -26.667 65 -50c28.667 -29.333 47 -51 55 -65c16.667 -22.667 31 -48.334 43 -77.001c22.667 -56.667 34 -111.334 34 -164.001v-13c0 -58 -14.667 -119.333 -44 -184c-12 -24.667 -27.667 -50 -47 -76
c-8.66699 -12.667 -24 -30 -46 -52c-25.333 -24 -54 -47 -86 -69c-24.667 -18 -49 -37.667 -73 -59c-28.667 -26 -43 -54 -43 -84l1 -126v-119l-1 -1h-139l-1 158v85c0 72 28 134.333 84 187c28.667 26 60 51 94 75c26 18.667 48.333 36.667 67 54
c23.333 24 37.333 41 42 51c11.333 16.667 21.333 35 30 55c14.667 38.667 22 75.334 22 110.001v1c0 71.333 -23.667 135.333 -71 192c-20.667 22 -34.667 35 -42 39c-44.667 32.667 -93 49 -145 49h-2c-60.667 0 -116.334 -22.333 -167.001 -67
c-20.667 -20.667 -34 -36.334 -40 -47.001c-34 -50.667 -51 -105.667 -51 -165v-36l-1 -1h-138l-1 1v42c0 67.333 17.333 134.666 52 201.999c8.66699 15.333 21.667 34.666 39 57.999c7.33301 10.667 21.666 26.334 42.999 47.001c25.333 22.667 48 39.667 68 51
c62.667 36.667 126 55 190 55z" />
    <glyph glyph-name="at" unicode="@" horiz-adv-x="2022" 
d="M747 564c0 -68 18.666 -129.002 55.999 -183.002c28 -38 63.333 -64 106 -78c18 -5.33301 35.667 -8 53 -8c50 0 97.667 19.667 143 59c21.333 20 34 34 38 42c11.333 14.667 20.333 28.334 27 41.001c10 18 19 38.667 27 62c4 10.667 8.66699 30.334 14 59.001
c2.66699 14 4 32 4 54c0 68 -18.667 128.667 -56 182c-6.66699 8.66699 -17.667 21 -33 37c-38 32 -78.667 48 -122 48h-6c-47.333 0 -93.666 -19.333 -138.999 -58c-20.667 -19.333 -33.667 -33.333 -39 -42c-13.333 -16.667 -25.333 -35.667 -36 -57
c-24.667 -52 -37 -104.667 -37 -158zM1052 1464l20.0059 -0.00585938c100 0 201.667 -20 305 -60c35.333 -14.667 69.333 -31 102 -49c33.333 -18.667 70.666 -44 111.999 -76c19.333 -15.333 39.666 -33.333 60.999 -54c33.333 -35.333 56.333 -61.333 69 -78
c27.333 -35.333 48.333 -65.666 63 -90.999c72.667 -127.333 109 -263 109 -407v-7c0 -106 -17 -199.667 -51 -281c-12.667 -30 -30 -61.667 -52 -95c-35.333 -52 -79.333 -95.667 -132 -131c-64 -40.667 -127.667 -61 -191 -61h-6c-64 0 -123.333 20.667 -178 62
c-36.667 28.667 -63 68.667 -79 120c-22.667 -22 -44.334 -38.667 -65.001 -50c-58 -33.333 -115.333 -50 -172 -50h-11c-58.667 0 -115.667 17.333 -171 52c-14 8 -31.667 22 -53 42c-23.333 24.667 -38.333 42.334 -45 53.001c-52.667 76.667 -79 163.667 -79 261
c0 88 22 171.667 66 251c10 16.667 25 38 45 64c21.333 24.667 39.666 43 54.999 55c70.667 57.333 146 86 226 86c73.333 0 140.666 -23.667 201.999 -71c10 -7.33301 23 -19.333 39 -36c23.333 -24.667 39.333 -45 48 -61l5 -9l28 72l131 -51
c-30.667 -76.667 -58 -157 -82 -241c-15.333 -56 -23 -88.667 -23 -98c-6 -22.667 -10.667 -47 -14 -73c-3.33301 -28.667 -5 -52.667 -5 -72v-10c0 -44 7.66699 -78.667 23 -104c5.33301 -8.66699 14.666 -17.667 27.999 -27c26.667 -16.667 55 -25 85 -25
c52 0 105.333 24.333 160 73c20.667 20.667 34 35.667 40 45c34 46.667 58 98.334 72 155.001c11.333 48.667 17 101.334 17 158.001c0 136.667 -38.333 262.334 -115 377.001c-12.667 20 -31.334 44 -56.001 72c-18 20 -38 39.667 -60 59c-35.333 29.333 -65 51 -89 65
c-116 70.667 -239 106 -369 106h-5c-126.667 0 -246.667 -28 -360 -84c-25.333 -12.667 -52.333 -28.667 -81 -48c-24 -14.667 -54 -38 -90 -70c-29.333 -28.667 -47.666 -47.667 -54.999 -57c-28 -34 -48.667 -62 -62 -84c-24.667 -39.333 -46 -82.333 -64 -129
c-32 -86.667 -48 -176.667 -48 -270v-7c0 -161.333 43 -308.333 129 -441c16.667 -23.333 37.334 -49.333 62.001 -78c28 -30 47.667 -49.333 59 -58c31.333 -27.333 57.666 -47.666 78.999 -60.999c125.333 -80 265 -120 419 -120c132.667 0 251.334 27.667 356.001 83
c42.667 -79.333 64.667 -120.333 66 -123c-29.333 -16 -65.333 -32 -108 -48c-27.333 -10 -62 -20 -104 -30c-68.667 -14.667 -131.667 -22 -189 -22h-42c-68 0 -143.667 10.667 -227 32c-62.667 18 -115.334 38 -158.001 60c-40 19.333 -83 45.666 -129 78.999
c-21.333 14.667 -48.333 37.334 -81 68.001c-36 35.333 -60 61.333 -72 78c-34 42 -60.667 81 -80 117c-19.333 32.667 -35 64.667 -47 96c-13.333 28.667 -28 72.667 -44 132c-19.333 78.667 -29 155 -29 229v21c0 112.667 21.667 224.334 65 335.001
c18.667 46 43.667 93.333 75 142c18.667 29.333 42 60.666 70 93.999c16 18 36 38.333 60 61c35.333 32.667 65.666 57.667 90.999 75c37.333 26 77 49.333 119 70c34.667 18 77.334 35.667 128.001 53c96 30 190.667 45 284 45z" />
    <glyph glyph-name="A" unicode="A" horiz-adv-x="1351" 
d="M751 1464c2.66699 0 13.3301 -25.333 31.9971 -76l527 -1354l14 -33l-2 -1h-150c-4 4.66699 -33.667 80.334 -89 227.001c-29.333 74.667 -45.666 113.667 -48.999 117h-714c-3.33301 -4.66699 -38.666 -94.334 -105.999 -269.001c-17.333 -46 -27.666 -71 -30.999 -75
h-145l-2 1h-1l571 1463h145zM676.996 1264l-303 -779h608l-304 779h-1z" />
    <glyph glyph-name="B" unicode="B" horiz-adv-x="1150" 
d="M175 1464l440 -0.00195312c142 0 254.333 -52 337 -156c42 -59.333 63 -127.333 63 -204v-26c0 -120 -48.667 -219.667 -146 -299v-1c43.333 -19.333 86.333 -56.333 129 -111c42 -59.333 63 -130.666 63 -213.999v-47c0 -169.333 -75 -291.666 -225 -366.999
c-65.333 -25.333 -118.333 -38 -159 -38l-361 -1h-141l-3 3v1458zM312 1324l0.000976562 -489h293c108.667 0 189.667 43.333 243 130c18 33.333 27 71.333 27 114v26c0 101.333 -55.333 170 -166 206c-30.667 8.66699 -61.334 13 -92.001 13h-305zM312.001 694.998
l0.000976562 -555h11l345 1c43.333 0 90.666 14.667 141.999 44c74 48 111 122 111 222v49c0 111.333 -59.667 186 -179 224c-36 10 -72.667 15 -110 15h-320z" />
    <glyph glyph-name="C" unicode="C" horiz-adv-x="1408" 
d="M757 1464l11.9971 -0.000976562c169.333 0 322.333 -69 459 -207c60.667 -72 98.334 -126.667 113.001 -164c-80 -41.333 -121.333 -62 -124 -62c-17.333 33.333 -40 68 -68 104c-111.333 126 -239 189 -383 189h-6c-150.667 0 -281.667 -67.333 -393 -202
c-86.667 -116.667 -130 -245 -130 -385v-10c0 -162.667 56.333 -306 169 -430c104.667 -104.667 224.334 -157 359.001 -157c147.333 0 277 65 389 195c27.333 37.333 49 71.333 65 102l123 -64c-15.333 -40 -55.666 -98 -120.999 -174
c-134.667 -132.667 -288 -199 -460 -199c-183.333 0 -345 76.667 -485 230c-119.333 148.667 -179 314.334 -179 497.001v10c0 200.667 70 377 210 529c134 132 284 198 450 198z" />
    <glyph glyph-name="D" unicode="D" horiz-adv-x="1330" 
d="M312 1324v-1184h198c208 0 372 88.667 492 266c62.667 104 94 212.667 94 326c0 171.333 -65 320.333 -195 447c-40.667 34 -78 60.333 -112 79c-85.333 44 -172 66 -260 66h-217zM175 1464l354 0.000976562c167.333 0 319.333 -57.667 456 -173
c62 -58.667 100 -101 114 -127c92 -131.333 138 -275.333 138 -432c0 -190.667 -67 -360.334 -201 -509.001c-142 -148.667 -317.667 -223 -527 -223h-334l-3 3v1458z" />
    <glyph glyph-name="E" unicode="E" horiz-adv-x="1009" 
d="M173 1464h727l1 -1v-138l-1 -1h-588v-522h470l1 -1v-138l-1 -1h-470v-522h588l1 -1v-138l-1 -1h-727l-1 1v1462z" />
    <glyph glyph-name="F" unicode="F" horiz-adv-x="949" 
d="M173 1464h726l1 -1v-138l-1 -1h-587v-522h494l1 -1v-138l-1 -1h-494v-661l-1 -1h-138l-1 1v1462z" />
    <glyph glyph-name="G" unicode="G" horiz-adv-x="1556" 
d="M763 1464l12.002 -0.000976562c172.667 0 328 -69 466 -207c52.667 -58.667 92 -113.667 118 -165l5 -13c-79.333 -41.333 -121 -62 -125 -62h-1c-14.667 36.667 -47.334 84 -98.001 142c-108 110 -230.667 165 -368 165h-8c-150 0 -282.333 -65.667 -397 -197
c-90.667 -118 -136 -248 -136 -390v-10c0 -142.667 45.333 -272.334 136 -389.001c113.333 -132 247 -198 401 -198c130 0 247 48 351 144c54.667 56.667 89 101.334 103 134.001c18.667 28 37.667 71.667 57 131c6 20 11.667 44.333 17 73h-401l-3 3v134l3 3h550l3 -3
c0 -76 -10 -155.333 -30 -238c-48.667 -161.333 -134.667 -290.333 -258 -387c-121.333 -89.333 -252 -134 -392 -134c-172 0 -325.333 64.667 -460 194c-55.333 58.667 -95.333 112 -120 160c-64.667 118.667 -97 242.334 -97 371.001v12c0 190.667 64.667 360 194 508
c57.333 59.333 105.666 100 144.999 122c106.667 64.667 217.667 97 333 97z" />
    <glyph glyph-name="H" unicode="H" horiz-adv-x="1270" 
d="M175 1464h134l3 -3v-658h646v658l2 3h135l3 -3v-1458l-3 -3h-135l-2 3v660h-646v-660l-3 -3h-134l-3 3v1458z" />
    <glyph glyph-name="I" unicode="I" horiz-adv-x="484" 
d="M173 1464h138l1 -1v-1462l-1 -1h-138l-1 1v1462z" />
    <glyph glyph-name="J" unicode="J" horiz-adv-x="1022" 
d="M718 1464l133.998 -0.00292969l1 -1v-1046c0 -80 -22 -156.667 -66 -230c-12.667 -21.333 -31 -44.666 -55 -69.999c-22 -22.667 -38 -37 -48 -43c-11.333 -9.33301 -25 -18.666 -41 -27.999c-18 -9.33301 -34.667 -17 -50 -23c-41.333 -15.333 -79.333 -23 -114 -23h-99
c-41.333 0 -86.333 10.667 -135 32c-92 44.667 -159.667 116.334 -203 215.001c-23.333 56 -35 110.667 -35 164v78l1 1h134l1 -1v-73c0 -64.667 21.333 -125.667 64 -183c17.333 -21.333 34.333 -38 51 -50c42.667 -31.333 85.334 -47 128.001 -47h87
c50 0 98.667 20 146 60c20.667 20.667 33.334 35 38.001 43c40 54 60 115.667 60 185v1039z" />
    <glyph glyph-name="K" unicode="K" horiz-adv-x="1260" 
d="M175 1464l134 0.000976562l3 -3v-811l705 810l5 4h182v-3l-609 -702v-1l617 -757l-2 -1h-183l-419 519l-107 132c-120.667 -136.667 -183.667 -209.334 -189 -218.001v-430l-3 -3h-134l-3 3v1458z" />
    <glyph glyph-name="L" unicode="L" horiz-adv-x="957" 
d="M173 1464h138l1 -1v-1323h627v-140h-766l-1 1v1462z" />
    <glyph glyph-name="M" unicode="M" horiz-adv-x="1757" 
d="M175 1464l186.001 -0.000976562c2 0 19.333 -41.333 52 -124l465 -1133h1l516 1257h187l3 -3v-1458l-3 -3h-142l-3 3v1193h-1l-490 -1195l-1 -1h-131c-2.66699 0 -17.334 34 -44.001 102c-2 2 -112.667 272.333 -332 811c-68 162.667 -107 257.334 -117 284.001h-1v-1194
l-3 -3h-142l-3 3v1458z" />
    <glyph glyph-name="N" unicode="N" horiz-adv-x="1422" 
d="M175 1464h172.001c5.33301 -5.33301 183.666 -296 534.999 -872l226 -371h2v1240l2 3h135l3 -3v-1458l-3 -3h-165c-9.33301 10.667 -34.333 50.667 -75 120c-2.66699 3.33301 -181 295 -535 875l-153 248v-1240l-3 -3h-141l-3 3v1458z" />
    <glyph glyph-name="O" unicode="O" horiz-adv-x="1543" 
d="M773 1464h5.99805c170 0 322.667 -65 458 -195c50.667 -54 84.334 -96.667 101.001 -128c76.667 -124.667 115 -259.667 115 -405v-8c0 -201.333 -71 -378 -213 -530c-135.333 -132 -290.333 -198 -465 -198c-170.667 0 -323.667 64.667 -459 194
c-60 65.333 -96.667 113 -110 143c-71.333 121.333 -107 250.666 -107 387.999v14c0 178 59 340.667 177 488c47.333 50.667 81.333 83.334 102 98.001c122.667 92.667 254.334 139 395.001 139zM238.998 737v-9.99902c0 -162 57.667 -305.667 173 -431
c107.333 -104 229 -156 365 -156c159.333 0 296.333 70.667 411 212c83.333 115.333 125 240.666 125 375.999v8c0 162.667 -57.667 306.667 -173 432c-107.333 104 -229 156 -365 156c-151.333 0 -283.333 -64.333 -396 -193c-93.333 -118 -140 -249.333 -140 -394z" />
    <glyph glyph-name="P" unicode="P" 
d="M175 1464h459c140.667 0 262.667 -56 366 -168c74.667 -94 112 -194.667 112 -302v-15c0 -122 -46.333 -231.667 -139 -329c-98.667 -94 -211 -141 -337 -141h-324v-506l-3 -3h-134l-3 3v1458zM312 1324l-0.000976562 -673.999h322c110 0 202.333 47 277 141
c40.667 61.333 61 124.666 61 189.999v12c0 101.333 -43.667 188 -131 260c-63.333 47.333 -132.666 71 -207.999 71h-321z" />
    <glyph glyph-name="Q" unicode="Q" horiz-adv-x="1562" 
d="M774 1464h4.99902c170 0 322.667 -65 458 -195c50.667 -54.667 84.334 -97.667 101.001 -129c76.667 -124.667 115 -259.334 115 -404.001v-8c0 -172 -53.667 -329.333 -161 -472v-1l180 -181l-100 -98l-177 179c-126.667 -103.333 -266.667 -155 -420 -155
c-170.667 0 -323.667 64.333 -459 193c-60 66 -96.667 113.667 -110 143c-71.333 122 -107 251.667 -107 389v13c0 178.667 59 341.667 177 489c47.333 50.667 81.333 83.334 102 98.001c122.667 92.667 254.667 139 396 139zM238.999 737l0.000976562 -10
c0 -162 57.667 -305.667 173 -431c107.333 -104 229.333 -156 366 -156c113.333 0 218.333 38 315 114l1 1v1l-154 156l98 98h1l154 -153c80 114 120 237.667 120 371v8c0 162.667 -57.667 306.667 -173 432c-106.667 104 -228.334 156 -365.001 156
c-151.333 0 -283.333 -64.333 -396 -193c-93.333 -118.667 -140 -250 -140 -394z" />
    <glyph glyph-name="R" unicode="R" horiz-adv-x="1160" 
d="M175 1464h459.001c140.667 0 262.667 -56 366 -168c74.667 -94 112 -194.667 112 -302v-15c0 -129.333 -52 -245 -156 -347c-56 -46.667 -110.333 -78.334 -163 -95.001l307 -534l-1 -2h-164c-4.66699 4.66699 -44.334 74.334 -119.001 209.001l-169 299h-335v-506l-3 -3
h-134l-3 3v1458zM312.001 1324l-0.000976562 -673.999h322c110 0 202.333 47 277 141c40.667 61.333 61 124.666 61 189.999v12c0 101.333 -43.667 188 -131 260c-63.333 47.333 -132.666 71 -207.999 71h-321z" />
    <glyph glyph-name="S" unicode="S" horiz-adv-x="1040" 
d="M526 1482l15.998 -0.000976562c68 0 135.333 -17.667 202 -53c20.667 -12 43.334 -27.667 68.001 -47c11.333 -9.33301 26 -23 44 -41c25.333 -29.333 43.333 -53 54 -71c9.33301 -14 16.666 -27.333 21.999 -40v-1l-127 -58c-8.66699 20 -26 44.667 -52 74
c-61.333 64.667 -134 97 -218 97h-2c-82 0 -150.333 -24.667 -205 -74c-20 -20 -33.667 -36 -41 -48c-28.667 -46 -43 -96 -43 -150c0 -57.333 17 -101.666 51 -132.999c25.333 -24 55.333 -43.667 90 -59c60 -28.667 155.333 -58.334 286 -89.001
c34 -9.33301 62.667 -20.333 86 -33c28.667 -14 57.667 -34 87 -60c23.333 -22.667 38.333 -39 45 -49c12 -16 21.333 -30.667 28 -44c32 -60 48 -122 48 -186v-3l1 -4l-1 -4v-3c0 -70 -18.333 -139.333 -55 -208c-47.333 -84.667 -119 -146 -215 -184
c-56 -20.667 -110.333 -31 -163 -31h-17c-66 0 -133.333 16.333 -202 49c-22 11.333 -45.667 26.333 -71 45c-37.333 28.667 -70.666 62.334 -99.999 101.001c-21.333 30 -39 59 -53 87c-12 25.333 -18 38.666 -18 39.999c2.66699 1.33301 45.667 19.333 129 54
c14 -32.667 30.667 -62.667 50 -90c7.33301 -11.333 22 -28.333 44 -51c27.333 -26 50.666 -43.667 69.999 -53c50 -28 102.667 -42 158 -42h5c64.667 0 125.334 19 182.001 57c12.667 8 27.667 21 45 39c26.667 30.667 45.667 65 57 103
c9.33301 30.667 14 60.334 14 89.001v3c0 70 -23.667 129.333 -71 178c-24.667 21.333 -44.334 35 -59.001 41c-9.33301 6 -23.333 12 -42 18c-13.333 4.66699 -47.666 13.667 -102.999 27c-110.667 28.667 -195 58.667 -253 90c-128.667 68 -193 168.333 -193 301v8
c0 84 25 162.667 75 236c8 12 22.667 29.333 44 52c24.667 23.333 45.667 40 63 50c28 18.667 59.333 34 94 46c50.667 16 99.334 24 146.001 24z" />
    <glyph glyph-name="T" unicode="T" horiz-adv-x="955" 
d="M16 1464h923l1 -1v-138l-1 -1h-391v-1323l-1 -1h-138l-1 1v1323h-392l-1 1v138z" />
    <glyph glyph-name="U" unicode="U" horiz-adv-x="1387" 
d="M173 1464l133.999 -0.000976562l3 -3v-937c0 -156 56 -271 168 -345c48.667 -26 97.334 -39 146.001 -39h139c100.667 0 183.667 46.667 249 140c43.333 67.333 65 153.333 65 258v923l3 3h135l3 -3v-923c0 -216 -77 -374.333 -231 -475c-72 -42 -145.667 -63 -221 -63
h-144c-112.667 0 -213.667 42.333 -303 127c-99.333 104.667 -149 236.334 -149 395.001v939z" />
    <glyph glyph-name="V" unicode="V" horiz-adv-x="1367" 
d="M190 1464l61 -153l433 -1109h1l364 937l127 324l1 1h153l2 -1h1l-570 -1446l-9 -17h-141c-2 -0 -31.667 74.333 -89 223l-490 1240l1 1h155z" />
    <glyph glyph-name="W" unicode="W" horiz-adv-x="1900" 
d="M210 1464c2.66699 0 9.00098 -21.667 19.001 -65l286 -1121h2l307 961l74 225h102c2 -0.666992 16.333 -44 43 -130l339 -1056h2l302 1185l1 1h148l2 -1h1l-373 -1436c-4.66699 -18 -7.66699 -27 -9 -27h-129c-2.66699 0 -12.334 28 -29.001 84l-348 1083h-1l-376 -1167
h-130c-2 0 -15 49 -39 147l-343 1316l1 1h148z" />
    <glyph glyph-name="X" unicode="X" horiz-adv-x="1303" 
d="M256 1464l394 -602h2l395 602h173v-1l-467 -704l501 -756l-3 -3h-176c-4 2.66699 -30.333 42 -79 118l-343 525h-1l-409 -623c-8 -13.333 -12.667 -20 -14 -20h-178l-3 3l503 755l-468 705l2 1h171z" />
    <glyph glyph-name="Y" unicode="Y" horiz-adv-x="1193" 
d="M30 1464h172c12 -15.333 142.333 -214.333 391 -597l5 -5l396 602h170l3 -3l-495 -743v-715l-3 -3h-143l-2 3v715l-494 743v3z" />
    <glyph glyph-name="Z" unicode="Z" horiz-adv-x="1191" 
d="M168 1464h978l2 -3l-540 -855l-295 -466h794l2 -3v-134l-2 -3h-1045l-3 3l528 834l307 487h-726l-3 3v134z" />
    <glyph glyph-name="bracketleft" unicode="[" horiz-adv-x="779" 
d="M191 1515h367l1 -1v-139l-1 -1h-227v-1403h227l1 -1v-139l-1 -1h-367l-1 1v1683z" />
    <glyph glyph-name="backslash" unicode="\" horiz-adv-x="676" 
d="M141 1373l512 -1423h-140l-512 1423l1 1h138z" />
    <glyph glyph-name="bracketright" unicode="]" horiz-adv-x="779" 
d="M589 1514v-1683l-1 -1h-367l-1 1v139l1 1h227v1403h-227l-1 1v139l1 1h367z" />
    <glyph glyph-name="asciicircum" unicode="^" horiz-adv-x="930" 
d="M525 1400l42 -66l212 -345l83 -135v-2l-118 -72h-1l-173 281c-1.33301 1.33301 -36.333 58 -105 170l-219 -356l-59 -96l-119 74v1l248 403l89 143h120z" />
    <glyph glyph-name="underscore" unicode="_" horiz-adv-x="1090" 
d="M70 -20h950v-140h-950v140z" />
    <glyph glyph-name="grave" unicode="`" horiz-adv-x="887" 
d="M315 1924l330 -203l-74 -119l-329 204z" />
    <glyph glyph-name="a" unicode="a" 
d="M565 960c131.333 0 235.998 -53.999 313.998 -161.999l3 -6h1v156l2 3h135l3 -3v-945l-3 -3h-135l-2 3v154h-1c-72 -110.667 -180.667 -166 -326 -166v1l-2 -1c-129.333 0 -242.666 52 -339.999 156c-81.333 97.333 -122 204.666 -122 321.999v12
c0 125.333 45 237.333 135 336c94.667 95.333 207.334 143 338.001 143zM231.998 479.001l0.000976562 -5.00098c0 -111.333 44.667 -203.666 134 -276.999c56 -43.333 118.333 -65 187 -65c144.667 0 244.667 71 300 213c14.667 41.333 22 82.666 22 123.999v22
c0 58 -18.333 118.667 -55 182c-62.667 96.667 -146.334 145 -251.001 145c-141.333 0 -244 -66.667 -308 -200c-19.333 -47.333 -29 -93.666 -29 -138.999z" />
    <glyph glyph-name="b" unicode="b" horiz-adv-x="1179" 
d="M156 1464h134.001l3 -3v-669h1c8.66699 19.333 36.667 50 84 92c67.333 50.667 144.666 76 231.999 76c162.667 0 293.667 -70 393 -210c54 -86 81 -174 81 -264v-22c0 -121.333 -45.333 -232.333 -136 -333c-48 -45.333 -91.667 -77 -131 -95
c-66.667 -30 -131 -45 -193 -45l-1 1l-5 -1c-144 0 -252 55.333 -324 166h-1v-155l-3 -2h-134l-3 2v1459zM301.001 486v-11.001c0 -116 44.667 -211.333 134 -286c52 -38 115.667 -57 191 -57c105.333 0 193.333 50.333 264 151c36 62 54 123 54 183v16
c0 100 -40.667 187.667 -122 263c-58.667 48.667 -130.334 73 -215.001 73c-123.333 0 -215.666 -65.333 -276.999 -196c-19.333 -49.333 -29 -94.666 -29 -135.999z" />
    <glyph glyph-name="c" unicode="c" horiz-adv-x="1001" 
d="M538 957l25.999 0.000976562c98 0 192 -36.667 282 -110c43.333 -42 72 -75 86 -99l-116 -78c-41.333 64 -100 108.667 -176 134c-27.333 8.66699 -54.666 13 -81.999 13h-16c-80 0 -153.667 -34.333 -221 -103c-60.667 -70 -91 -149.667 -91 -239v-5
c0 -95.333 36 -179.333 108 -252c64 -58 135 -87 213 -87c97.333 0 181 43 251 129l15 21l118 -76c-58 -90.667 -140 -154.667 -246 -192c-48 -14.667 -94 -22 -138 -22c-116 0 -220.333 42.667 -313 128c-98.667 101.333 -148 218 -148 350v11
c0 131.333 49 247.666 147 348.999c94 85.333 194.333 128 301 128z" />
    <glyph glyph-name="d" unicode="d" horiz-adv-x="1179" 
d="M889 1464l134.998 0.000976562l3 -3v-1459l-3 -2h-135l-2 2v155h-1c-72 -110.667 -180.667 -166 -326 -166v1l-2 -1c-129.333 0 -242.666 52 -339.999 156c-81.333 97.333 -122 204.666 -122 321.999v12c0 125.333 45 237.333 135 336
c94.667 95.333 207.334 143 338.001 143c131.333 0 236 -54 314 -162l3 -6h1v669zM235.998 479.001l0.000976562 -5.00098c0 -111.333 44.667 -203.666 134 -276.999c56 -43.333 118.333 -65 187 -65c144.667 0 244.667 71 300 213c14.667 41.333 22 82.666 22 123.999v22
c0 58 -18.333 118.667 -55 182c-62.667 96.667 -146.334 145 -251.001 145c-141.333 0 -244 -66.667 -308 -200c-19.333 -47.333 -29 -93.666 -29 -138.999z" />
    <glyph glyph-name="e" unicode="e" horiz-adv-x="1054" 
d="M523 959c137.333 0 255.003 -60.667 353.003 -182c64.667 -95.333 97 -188.333 97 -279v-12c0 -30.667 -2 -46 -6 -46h-759c0 -32 13.333 -77 40 -135c40 -74.667 97.667 -126.667 173 -156c36.667 -12 69.667 -18 99 -18c91.333 0 170.333 39.667 237 119
c23.333 32 38.666 57.667 45.999 77h2c54 -21.333 96.333 -39.333 127 -54c-14.667 -42 -47.334 -91 -98.001 -147c-92 -90 -196.333 -135 -313 -135c-139.333 0 -258.333 61 -357 183c-64.667 92.667 -97 191 -97 295v9c0 133.333 47.667 250 143 350
c89.333 87.333 193.666 131 312.999 131zM222.003 578l598 0.000976562c-28 87.333 -75.333 151.666 -142 192.999c-48.667 31.333 -101.667 47 -159 47c-97.333 0 -180.333 -45.333 -249 -136c-21.333 -31.333 -37.333 -66 -48 -104z" />
    <glyph glyph-name="f" unicode="f" horiz-adv-x="564" 
d="M563 1464h28.999l1 -1v-138l-1 -1h-22c-83.333 0 -146.333 -43 -189 -129c-28.667 -60.667 -43 -140 -43 -238v-7h254l1 -1v-138l-1 -1h-254v-809l-1 -1h-138l-1 1v809h-170l-1 1v138l1 1h170v19c0 148 33.333 267.667 100 359c7.33301 10.667 20.333 25 39 43
c22.667 21.333 42.334 36.666 59.001 45.999c18 10.667 36.667 19.334 56 26.001c38 14 75 21 111 21z" />
    <glyph glyph-name="g" unicode="g" horiz-adv-x="1081" 
d="M262 607v-9c0 -42 15.333 -83 46 -123c16 -18 28.333 -30 37 -36c44.667 -33.333 95 -50 151 -50c60.667 0 114.667 20.333 162 61c46.667 44 70 95 70 153c0 54 -21 102.667 -63 146c-22 20.667 -45.333 36.334 -70 47.001c-32.667 14 -65.334 21 -98.001 21h-5
c-44 0 -86.333 -12 -127 -36c-12 -6.66699 -27.333 -19.334 -46 -38.001c-19.333 -21.333 -32.666 -41.333 -39.999 -60c-11.333 -26 -17 -51.333 -17 -76zM236 -113l-0.000976562 -2c0 -42.667 23.333 -81.667 70 -117c58.667 -39.333 133.334 -59 224.001 -59
c82.667 0 153.667 19.333 213 58c10.667 6.66699 23.667 18 39 34c28.667 32 43 63.667 43 95v3c0 30.667 -13 58.667 -39 84c-20 18 -46.333 32 -79 42c-41.333 10.667 -81 16 -119 16h-95c-50 0 -94.333 3 -133 9c-16.667 -10 -38 -26.667 -64 -50
c-40 -41.333 -60 -79 -60 -113zM493.999 957c80.667 0 154.998 -23.001 222.998 -69.001c14.667 16 26 26.667 34 32c24 16 46.333 26 67 30c17.333 4.66699 34 7 50 7h31l1 -1v-138l-1 -1h-25c-20.667 0 -36.667 -6 -48 -18c-5.33301 -6.66699 -8 -12.667 -8 -18
c11.333 -17.333 22 -40 32 -68c12 -36.667 18 -73.334 18 -110.001c0 -90 -32.667 -170 -98 -240c-27.333 -26 -47.666 -42.667 -60.999 -50c-19.333 -13.333 -41.666 -25.333 -66.999 -36c-47.333 -18.667 -95.333 -28 -144 -28h-6c-56.667 0 -112.334 12.667 -167.001 38
c-12.667 -15.333 -19 -31.666 -19 -48.999c0 -16 5 -26 15 -30c26.667 -18.667 88 -28 184 -28l70 1c130 0 230.667 -30.333 302 -91c18.667 -18 31.667 -32 39 -42c32.667 -47.333 49 -97.666 49 -150.999s-17.333 -105.666 -52 -156.999c-8 -12.667 -23.333 -30 -46 -52
c-24 -21.333 -43.333 -36.333 -58 -45c-18.667 -12 -39 -22.667 -61 -32c-28 -11.333 -54.667 -20.333 -80 -27c-46 -10 -86.333 -15 -121 -15h-34c-58.667 0 -119.667 10.333 -183 31c-31.333 12 -59.333 25.333 -84 40c-17.333 10.667 -36 24.667 -56 42
c-18 18 -31 32.333 -39 43c-36.667 51.333 -55 103.333 -55 156v11c0 54 21.667 110.333 65 169c16.667 20 33 35.667 49 47l6 5c-33.333 32 -50 73.333 -50 124v3c0 46 14.667 88.667 44 128c1.33301 1.33301 2 2.66602 2 3.99902c-14.667 16 -27.667 33 -39 51
c-34 56.667 -51 116.667 -51 180c0 86.667 30.667 164.334 92 233.001c22.667 23.333 37.667 37.333 45 42c20.667 15.333 42.334 28.666 65.001 39.999c55.333 26 112 39 170 39z" />
    <glyph glyph-name="h" unicode="h" horiz-adv-x="1131" 
d="M156 1464h134l3 -3v-619c75.333 73.333 167.333 110 276 110c194.667 0 323.667 -70.333 387 -211c18 -42.667 27 -89 27 -139v-599l-2 -3h-135l-3 3v598c0 110 -61 178 -183 204c-16.667 4 -41.667 6 -75 6h-40c-112 0 -190 -39 -234 -117
c-12 -31.333 -18 -65.333 -18 -102v-589l-3 -3h-134l-3 3v1458z" />
    <glyph glyph-name="i" unicode="i" horiz-adv-x="466" 
d="M164 950h138l1 -1v-948l-1 -1h-138l-1 1v948zM229 1464l7.99805 0.00195312c24.667 0 48 -10.667 70 -32c17.333 -20.667 26 -42.334 26 -65.001v-5c0 -28.667 -12 -53.667 -36 -75c-19.333 -15.333 -39.666 -23 -60.999 -23h-6c-29.333 0 -54.666 13 -75.999 39
c-14 18.667 -21 37.667 -21 57v8c0 25.333 10.667 48.666 32 69.999c20.667 17.333 42 26 64 26z" />
    <glyph glyph-name="j" unicode="j" horiz-adv-x="493" 
d="M189 950l139 0.000976562l1 -1v-868c0 -100.667 -11.667 -183.667 -35 -249c-12 -34.667 -25 -63.334 -39 -86.001c-10 -20 -27 -43.333 -51 -70c-18.667 -20 -31.667 -32 -39 -36c-60 -47.333 -129.333 -71 -208 -71v138l1 1c68 0 123 29.333 165 88
c14.667 22.667 27.667 49.667 39 81c17.333 56 26 116.667 26 182v890zM255 1464l7.99805 0.00195312c24.667 0 48 -10.667 70 -32c17.333 -20.667 26 -42.334 26 -65.001v-5c0 -28.667 -12 -53.667 -36 -75c-19.333 -15.333 -39.666 -23 -60.999 -23h-6
c-29.333 0 -54.666 13 -75.999 39c-14 18.667 -21 37.667 -21 57v8c0 25.333 10.667 48.666 32 69.999c20.667 17.333 42 26 64 26z" />
    <glyph glyph-name="k" unicode="k" horiz-adv-x="1009" 
d="M156 1464h134.001l3 -3v-966l475 456h199v-2l-424 -409l427 -539l-1 -1h-181c-6.66699 6.66699 -107.334 135 -302.001 385l-46 56c-96.667 -93.333 -145.667 -140 -147 -140v-298l-3 -3h-134l-3 3v1458z" />
    <glyph glyph-name="l" unicode="l" horiz-adv-x="445" 
d="M154 1464h138l1 -1v-1462l-1 -1h-138l-1 1v1462z" />
    <glyph glyph-name="m" unicode="m" horiz-adv-x="1820" 
d="M563 950h16.998c148 0 259 -45.667 333 -137c73.333 91.333 183 137 329 137h28c179.333 0 302.666 -65.333 369.999 -196c21.333 -46.667 32 -94.667 32 -144v-607l-2 -3h-135l-3 3v605c0 80 -40 139.333 -120 178c-39.333 16 -84.666 24 -135.999 24h-34
c-125.333 0 -206.666 -42.333 -243.999 -127c-10 -23.333 -15 -54.333 -15 -93v-587l-3 -3h-135l-2 3v598c0 98 -50.333 163.333 -151 196c-23.333 8.66699 -69 13 -137 13c-83.333 0 -145.666 -17.333 -186.999 -52c-50 -32.667 -75 -87.667 -75 -165v-590l-3 -3h-134l-3 3
v930l3 3h134l3 -3v-93c73.333 73.333 163.333 110 270 110z" />
    <glyph glyph-name="n" unicode="n" horiz-adv-x="1131" 
d="M563 950l16.999 0.000976562c187.333 0 313.333 -71.667 378 -215c16.667 -42.667 25 -87.334 25 -134.001v-598l-3 -3h-135l-2 3v598c0 98 -50.333 163.333 -151 196c-23.333 8.66699 -69 13 -137 13c-83.333 0 -145.666 -17.333 -186.999 -52
c-50 -32.667 -75 -87.667 -75 -165v-590l-3 -3h-134l-3 3v930l3 3h134l3 -3v-93c73.333 73.333 163.333 110 270 110z" />
    <glyph glyph-name="o" unicode="o" horiz-adv-x="1103" 
d="M538 957h25.999c102.667 0 200 -39.667 292 -119c104.667 -102 157 -223.333 157 -364c0 -142.667 -55 -266 -165 -370c-90.667 -75.333 -189.667 -113 -297 -113c-115.333 0 -219.666 42.667 -312.999 128c-98.667 102 -148 218.667 -148 350v12
c0 130.667 49 246.667 147 348c94 85.333 194.333 128 301 128zM229.999 475l-0.000976562 -5c0 -94 35.333 -177.333 106 -250c64.667 -59.333 136.334 -89 215.001 -89c100.667 0 186.667 46 258 138c42.667 65.333 64 134 64 206c0 100.667 -38 187.667 -114 261
c-62 54 -129.333 81 -202 81h-15c-79.333 0 -153.333 -34.333 -222 -103c-60 -70 -90 -149.667 -90 -239z" />
    <glyph glyph-name="p" unicode="p" horiz-adv-x="1179" 
d="M619 960l1.00098 -2h2l1 2c115.333 0 219.666 -43 312.999 -129c48.667 -50.667 82.667 -98 102 -142c30.667 -70 46 -137.333 46 -202v-22c0 -122.667 -46.333 -235 -139 -337c-94.667 -91.333 -206 -137 -334 -137c-131.333 0 -236 54 -314 162l-3 5h-1v-586l-3 -3
h-134l-3 3v1363l3 2h134l3 -2v-142c74 111.333 182.667 167 326 167zM301.001 475l0.00292969 -9.99902c0 -81.333 29.333 -158.666 88 -231.999c59.333 -67.333 132.666 -101 219.999 -101c133.333 0 232.666 61 297.999 183c24.667 51.333 37 102.666 37 153.999v15
c0 91.333 -35.333 173.333 -106 246c-62.667 58.667 -134 88 -214 88c-144.667 0 -244.334 -69.667 -299.001 -209c-16 -42.667 -24 -87.334 -24 -134.001z" />
    <glyph glyph-name="q" unicode="q" horiz-adv-x="1179" 
d="M558 960v-1.99902l2 2h1c144.667 0 253 -55.667 325 -167h1v142l3 3h135l2 -3v-1363l-2 -3h-135l-3 3v586h-1c-8 -18 -33.333 -46.333 -76 -85c-68.667 -54.667 -148.667 -82 -240 -82c-162 0 -292.333 69.333 -391 208c-55.333 85.333 -83 175.666 -83 270.999v12
c0 138.667 54 259.667 162 363c90.667 76.667 190.667 115 300 115zM236 477.001l0.000976562 -5.99902c0 -97.333 37 -182.333 111 -255c59.333 -56 135 -84 227 -84c103.333 0 186.333 48 249 144c37.333 63.333 56 124.666 56 183.999v22c0 94 -34 178.333 -102 253
c-56 55.333 -130.333 83 -223 83c-104.667 0 -192.334 -49.667 -263.001 -149c-36.667 -60.667 -55 -124.667 -55 -192z" />
    <glyph glyph-name="r" unicode="r" horiz-adv-x="773" 
d="M552 957c71.333 0 133.333 -15.668 186 -47.001l-31 -149h-1c-59.333 34.667 -114 52 -164 52c-111.333 0 -189.333 -51.333 -234 -154c-10 -24.667 -15 -50 -15 -76v-580l-3 -3h-134l-3 3v932l3 3h134l3 -3v-81h1c29.333 40.667 72.333 69.334 129 86.001
c44 11.333 87 17 129 17z" />
    <glyph glyph-name="s" unicode="s" horiz-adv-x="903" 
d="M453 965l13.9971 -0.00195312c68 0 132.667 -16.333 194 -49c20 -10 41.333 -24.333 64 -43c20.667 -18 37 -34.667 49 -50c10 -13.333 15 -21 15 -23c-60.667 -34.667 -100.667 -58.334 -120 -71.001h-1c-12 18 -30 35.333 -54 52c-43.333 29.333 -95 44 -155 44
c-70 0 -127 -17.333 -171 -52c-30 -26.667 -45 -56 -45 -88c0 -24 9.66699 -42.333 29 -55c7.33301 -6.66699 17.666 -13 30.999 -19c29.333 -15.333 79.333 -31.333 150 -48l127 -25c32.667 -8 60 -17.333 82 -28c20 -9.33301 40.333 -21.666 61 -36.999
c6 -4 18.333 -15.667 37 -35c40 -47.333 60 -98.666 60 -153.999v-6c0 -59.333 -21.667 -115.333 -65 -168c-17.333 -18.667 -31 -31.667 -41 -39c-21.333 -15.333 -40.666 -27.333 -57.999 -36c-64 -30 -129.667 -45 -197 -45h-13c-74 0 -145 18 -213 54
c-65.333 37.333 -116 88.333 -152 153c0.666992 1.33301 20 12.333 58 33l64 35c30.667 -53.333 75.334 -91.666 134.001 -114.999c36.667 -13.333 75.334 -20 116.001 -20c58.667 0 111.334 13.667 158.001 41c9.33301 4.66699 21.333 14 36 28c22 26 33 53.333 33 82
c0 44 -27.667 79 -83 105c-13.333 6 -32.666 12 -57.999 18c-106.667 18.667 -190.334 39 -251.001 61c-123.333 45.333 -185 118.333 -185 219v3c0 60.667 23 116.667 69 168c22 22 37.333 35.333 46 40c29.333 21.333 64 38 104 50c44 13.333 87.667 20 131 20z" />
    <glyph glyph-name="t" unicode="t" horiz-adv-x="681" 
d="M191 1464l139 -0.00195312l1 -1v-513h258l1 -1v-139l-1 -1h-258v-549c0 -27.333 7 -52.666 21 -75.999c14 -18.667 33 -31.667 57 -39c10.667 -3.33301 20 -5 28 -5h6c24.667 0 59.334 8.66699 104.001 26l12 6c34 -74.667 53 -117.334 57 -128.001
c-9.33301 -5.33301 -28.333 -13 -57 -23c-46.667 -14 -83.334 -21 -110.001 -21h-17c-35.333 0 -72.666 10.333 -111.999 31c-52.667 28.667 -89.334 70.334 -110.001 125.001c-12.667 34.667 -19 72.334 -19 113.001v540h-157l-1 1v139l1 1h157v514z" />
    <glyph glyph-name="u" unicode="u" horiz-adv-x="1130" 
d="M151 950l134 -0.000976562l3 -3v-598c0 -104 56 -170.667 168 -200c22 -6 59.667 -9 113 -9c68 0 119 9 153 27c51.333 24.667 85.666 59 102.999 103c8.66699 30.667 13 60.667 13 90v587l2 3h135l3 -3v-930l-3 -3h-135l-2 3v93
c-73.333 -73.333 -165.666 -110 -276.999 -110c-119.333 0 -212 25.333 -278 76c-90 68.667 -135 158.334 -135 269.001v602z" />
    <glyph glyph-name="v" unicode="v" horiz-adv-x="1035" 
d="M192 950c2 -0.666992 110.335 -251.335 325.002 -752.002c1.33301 0.666992 50.666 114.334 147.999 341.001l178 411h155l3 -3l-415 -947h-135c-2.66699 0.666992 -14.334 26.334 -35.001 77.001l-382 872l1 1h157z" />
    <glyph glyph-name="w" unicode="w" horiz-adv-x="1506" 
d="M206 950c2 0 12.333 -29.667 31 -89l220 -646h2l242 733l1 2h102c2.66699 0 14.334 -34 35.001 -102l209 -633h3l249 735h151l3 -3l-328 -947h-152c-2.66699 0 -21 54 -55 162l-165 499h-1l-219 -661h-151c-4.66699 7.33301 -18.334 45.333 -41.001 114l-289 834l1 2h152
z" />
    <glyph glyph-name="x" unicode="x" horiz-adv-x="1053" 
d="M70 950h181.997l274 -356c8.66699 12.667 88.334 116.667 239.001 312c18.667 25.333 30.334 40 35.001 44h181v-3l-355 -454v-1c12.667 -14 140.334 -177.667 383.001 -491l-1 -1h-181l-302 393l-302 -393h-179l-3 3l383 490v2l-354 454v1z" />
    <glyph glyph-name="y" unicode="y" horiz-adv-x="1021" 
d="M191 950c2.66699 0 18 -35 46 -105l272 -648c2.66699 3.33301 41.667 92.333 117 267c137.333 323.333 207 485.333 209 486h151v-1l-532 -1240l-61 -140h-151v1l191 449l-399 930l1 1h156z" />
    <glyph glyph-name="z" unicode="z" horiz-adv-x="981" 
d="M144 950h755v-1l-547 -809h522l3 -2v-135l-3 -3h-785v3l546 807h-491l-3 2v135z" />
    <glyph glyph-name="braceleft" unicode="{" horiz-adv-x="822" 
d="M350 631c48 -48.667 72 -101 72 -157v-471c0 -55.333 22.667 -93.333 68 -114c32.667 -13.333 64.334 -20 95.001 -20l51 1l2 -1v-136l-2 -3l-48 -1c-120 0 -209.333 42.667 -268 128c-25.333 44.667 -38 92 -38 142v473c0 24 -15.333 48 -46 72
c-19.333 13.333 -45.666 26 -78.999 38l-1 2v94l1 2c33.333 12 59.666 24.667 78.999 38c30.667 24 46 48 46 72v473c0 50 12.667 97.333 38 142c58.667 85.333 148 128 268 128l48 -1l2 -3v-136l-2 -1l-51 1c-30.667 0 -62.334 -6.66699 -95.001 -20
c-45.333 -20.667 -68 -58.667 -68 -114v-471c0 -56 -24 -108.333 -72 -157z" />
    <glyph glyph-name="bar" unicode="|" horiz-adv-x="440" 
d="M150 1v1399h140v-1399h-140z" />
    <glyph glyph-name="braceright" unicode="}" horiz-adv-x="822" 
d="M472 631c-48 48.667 -72 101 -72 157v471c0 55.333 -22.667 93.333 -68 114c-32.667 13.333 -64.334 20 -95.001 20l-51 -1l-2 1v136l2 3l48 1c120 0 209.333 -42.667 268 -128c25.333 -44.667 38 -92 38 -142v-473c0 -24 15.333 -48 46 -72
c19.333 -13.333 45.666 -26 78.999 -38l1 -2v-94l-1 -2c-33.333 -12 -59.666 -24.667 -78.999 -38c-30.667 -24 -46 -48 -46 -72v-473c0 -50 -12.667 -97.333 -38 -142c-58.667 -85.333 -148 -128 -268 -128l-48 1l-2 3v136l2 1l51 -1c30.667 0 62.334 6.66699 95.001 20
c45.333 20.667 68 58.667 68 114v471c0 56 24 108.333 72 157z" />
    <glyph glyph-name="asciitilde" unicode="~" horiz-adv-x="705" 
d="M648 481c-20.667 -22.667 -40.999 -39.666 -60.999 -50.999c-31.333 -16.667 -62 -25 -92 -25c-32 0 -79.167 16.167 -141.5 48.5s-109.5 48.5 -141.5 48.5c-26.667 0 -55 -9.33301 -85 -28c-20 -12.667 -42 -33.334 -66 -62.001v154c20.667 23.333 41 40.333 61 51
c31.333 17.333 61.333 26 90 26c34.667 0 83.167 -16.5 145.5 -49.5s108.166 -49.5 137.499 -49.5c27.333 0 56 9.33301 86 28c20 12.667 42.333 33.667 67 63v-154z" />
    <glyph glyph-name="exclamdown" unicode="&#xa1;" horiz-adv-x="657" 
d="M292 1264l-2 -0.000976562c-28.667 0 -53.667 11.667 -75 35c-16 20 -24 40.333 -24 61v6c0 28.667 12.333 53.667 37 75c18.667 15.333 40 23 64 23c25.333 0 48.333 -9.33301 69 -28c20 -21.333 30 -44 30 -68v-8c0 -25.333 -11 -48.666 -33 -69.999
c-19.333 -17.333 -41.333 -26 -66 -26zM380 -0.000976562h-178l-1 1l20 1138h140l20 -1138z" />
    <glyph glyph-name="cent" unicode="&#xa2;" horiz-adv-x="1001" 
d="M443 1171v124.002l1 1h138l1 -1v-112c91.333 -4.66699 179 -41.334 263 -110.001c43.333 -42 72 -75 86 -99l-116 -78c-41.333 64 -100 108.667 -176 134c-19.333 6 -38.333 10 -57 12v-683c84 8 157 50.333 219 127l15 21l118 -76c-58 -90.667 -140 -154.667 -246 -192
c-36.667 -11.333 -72 -18.333 -106 -21v-114h-140v126c-74 18.667 -142.333 57 -205 115c-98.667 101.333 -148 218 -148 350v11c0 131.333 49 247.666 147 348.999c65.333 59.333 134 98 206 116zM443 377.002l0.000976562 647
c-42.667 -16.667 -83.334 -44.667 -122.001 -84c-60.667 -70 -91 -149.667 -91 -239v-5c0 -95.333 36 -179.333 108 -252c33.333 -30 68.333 -52.333 105 -67z" />
    <glyph glyph-name="sterling" unicode="&#xa3;" horiz-adv-x="1215" 
d="M666 1396c80 0 156 -23 228 -69c14 -9.33301 30.333 -22.666 49 -39.999l3 -3v-1l-99 -98c-26 24 -53 41 -81 51c-34 13.333 -67 20 -99 20c-64.667 0 -125.667 -25 -183 -75c-34.667 -33.333 -52 -77 -52 -131v-2c0 -54.667 17.333 -115.667 52 -183
c15.333 -32 27.333 -58.333 36 -79h328l1 -1v-138l-1 -1h-293l1 -1v-18c0 -108.667 -55.333 -226.334 -166 -353.001h10c90.667 0 167.334 -31 230.001 -93c52.667 -44 104 -66 154 -66c70 0 146.333 43.667 229 131h1l101 -97c-108.667 -116 -219.667 -174 -333 -174
c-85.333 0 -168.333 35 -249 105c-23.333 21.333 -42 34.333 -56 39c-22.667 10 -48 15 -76 15c-66.667 0 -144.667 -27 -234 -81l-27 -18l-87 109l102 91c56 52.667 93.333 90 112 112c99.333 109.333 149 202 149 278v6l-1 15h-228l-1 1v138l1 1h179
c-18.667 37.333 -33 69.333 -43 96c-20.667 58 -31 111.333 -31 160v13c0 64 17.333 123 52 177c7.33301 12 21.666 29 42.999 51c85.333 75.333 178.333 113 279 113z" />
    <glyph glyph-name="currency" unicode="&#xa4;" horiz-adv-x="1339" 
d="M208 746l-0.000976562 -11c0 -88 26 -172.333 78 -253c12 -17.333 27 -36.333 45 -57c28 -28 47.667 -45.667 59 -53c29.333 -22.667 59.333 -40.667 90 -54c60.667 -27.333 124.334 -41 191.001 -41c109.333 0 208.333 35.667 297 107
c29.333 26.667 49.666 47.667 60.999 63c14.667 18 26.667 34.333 36 49c46 76.667 69 156.334 69 239.001v10c0 87.333 -25.333 170.666 -76 249.999c-12 18.667 -30 41 -54 67c-27.333 26.667 -47.666 44.334 -60.999 53.001c-24 18 -51.333 34 -82 48
c-62 27.333 -125.667 41 -191 41c-100 0 -192.333 -31 -277 -93c-13.333 -9.33301 -31.333 -25.333 -54 -48c-24.667 -26 -43 -48.667 -55 -68c-12 -18.667 -21.667 -35.334 -29 -50.001c-31.333 -66 -47 -132.333 -47 -199zM670.999 1344
c130 0 249.668 -39.333 359.001 -118l24 -19l124 128v1h1l100 -97l-128 -133c27.333 -36.667 48.666 -71.334 63.999 -104.001c40 -84 60 -171 60 -261c0 -121.333 -34.333 -234 -103 -338l-14 -19l121 -126l-100 -97l-117 120c-40 -33.333 -79.333 -60 -118 -80
c-88 -42.667 -176.667 -64 -266 -64h-15c-90.667 0 -180.334 22 -269.001 66c-23.333 12.667 -49.333 29 -78 49l-37 29l-115 -120l-101 97l121 126c-28.667 40 -48.334 73 -59.001 99c-38.667 81.333 -58 167.333 -58 258c0 118.667 33.667 229.667 101 333l22 32l-127 133
c66.667 64.667 100.334 97 101.001 97l124 -129c25.333 20.667 47.333 36.334 66 47.001c98.667 60 204.334 90 317.001 90z" />
    <glyph glyph-name="yen" unicode="&#xa5;" horiz-adv-x="1171" 
d="M169 1352c5.33301 -5.33301 82.333 -96 231 -272l187 -221l202 239l215 254l107 -91l-286 -338l-168 -198v-66h338v-139l-1 -1h-337v-69h337l1 -1v-138l-1 -1h-337v-308h-140v308h-337l-1 1v138l1 1h337v69h-337l-1 1v139h338v65l-303 358l-151 179z" />
    <glyph glyph-name="brokenbar" unicode="&#xa6;" horiz-adv-x="540" 
d="M200 -500v650h140v-650h-140zM200 850v650h140v-650h-140z" />
    <glyph glyph-name="section" unicode="&#xa7;" horiz-adv-x="877" 
d="M258 730l-0.000976562 -2c0 -48 21.333 -90 64 -126c36.667 -26.667 75.667 -40 117 -40h5c49.333 0 93.333 17.667 132 53c33.333 33.333 50 71 50 113v2c0 44 -18.333 83 -55 117c-37.333 32.667 -80.666 49 -129.999 49s-93 -17 -131 -51
c-34.667 -34 -52 -72.333 -52 -115zM448.999 1462c94.667 0 174.999 -35.3281 240.999 -105.995c25.333 -29.333 42.333 -54.333 51 -75c-83.333 -40.667 -125.666 -61 -126.999 -61c-5.33301 12.667 -14 25.667 -26 39c-37.333 42 -84 63 -140 63
c-42 0 -80.333 -10 -115 -30c-40.667 -27.333 -61 -62.666 -61 -105.999v-1c0 -34.667 14.667 -62 44 -82c17.333 -14 47 -28.667 89 -44c36.667 -12.667 79.334 -24.334 128.001 -35.001c65.333 -19.333 119 -53 161 -101c18 -23.333 31.333 -43 40 -59
c21.333 -44.667 32 -87.334 32 -128.001v-14c0 -51.333 -16 -103 -48 -155c-24 -35.333 -52.333 -64 -85 -86c15.333 -10 32 -23.333 50 -40c46 -46.667 69 -101 69 -163v-11c0 -49.333 -15.333 -97 -46 -143c-6.66699 -10.667 -19.334 -25.334 -38.001 -44.001
c-34 -30 -71.333 -51.667 -112 -65c-40.667 -12.667 -78 -19 -112 -19h-16c-58 0 -114 16.333 -168 49c-53.333 36 -92.666 80.333 -117.999 133l127 60c5.33301 -12 13.666 -24.667 24.999 -38c37.333 -42 83.666 -63 138.999 -63h5c41.333 0 79 10 113 30
c40.667 26.667 61 61.667 61 105v1c0 33.333 -13.667 59.666 -41 78.999c-10 8 -19.667 14.333 -29 19c-26.667 15.333 -64 30 -112 44c-21.333 6 -46.666 12 -75.999 18c-27.333 8 -49.333 16.667 -66 26c-19.333 8.66699 -43.333 25.334 -72 50.001
c-20 19.333 -33.667 34.666 -41 45.999c-38 54 -57 110 -57 168v13c0 48.667 14.667 98 44 148c8.66699 14.667 21.334 31.334 38.001 50.001c20 19.333 37 33.666 51 42.999c-80 51.333 -120 120.666 -120 207.999c0 69.333 25 130.666 75 183.999
c27.333 26 51.666 43.667 72.999 53c51.333 26.667 108 40 170 40z" />
    <glyph glyph-name="dieresis" unicode="&#xa8;" horiz-adv-x="1024" 
d="M342 1825c28.667 0 53.667 -11.333 75 -34c16.667 -20 25 -40.667 25 -62v-7c0 -26 -11 -49.667 -33 -71c-20 -17.333 -42.333 -26 -67 -26h-1c-34 0 -62 15.333 -84 46c-10 18 -15 34.667 -15 50v8c0 26 11 49.667 33 71c20 16.667 42.333 25 67 25zM682 1825
c28.667 0 53.667 -11.333 75 -34c16.667 -20 25 -40.667 25 -62v-7c0 -26 -11 -49.667 -33 -71c-20 -17.333 -42.333 -26 -67 -26h-1c-34 0 -62 15.333 -84 46c-10 18 -15 34.667 -15 50v8c0 26 11 49.667 33 71c20 16.667 42.333 25 67 25z" />
    <glyph glyph-name="copyright" unicode="&#xa9;" horiz-adv-x="1913" 
d="M956 1464c161.333 0 310.332 -46.668 446.999 -140.001c25.333 -16.667 54.666 -40.667 87.999 -72c34.667 -33.333 55.667 -55 63 -65c25.333 -30.667 45 -57 59 -79c83.333 -132 125 -274 125 -426c0 -148.667 -40 -287.667 -120 -417
c-17.333 -28.667 -41.666 -61.334 -72.999 -98.001c-32.667 -35.333 -59.667 -62 -81 -80c-33.333 -27.333 -61.666 -48.666 -84.999 -63.999c-132 -82 -273 -123 -423 -123c-151.333 0 -293.333 42 -426 126c-28 18.667 -59.667 43.334 -95 74.001
c-37.333 35.333 -60 58 -68 68c-35.333 43.333 -61 78.333 -77 105c-20 31.333 -37.667 65.333 -53 102c-41.333 99.333 -62 198.333 -62 297v21c0 98.667 21 198.667 63 300c18 39.333 41 81.333 69 126c17.333 24.667 39.666 52.667 66.999 84
c34.667 37.333 59.334 61.333 74.001 72c37.333 32 71.333 57 102 75c126.667 76 262 114 406 114zM312.999 682.999v-3.99805c0 -130.667 38.333 -252.667 115 -366c14.667 -20.667 34 -44 58 -70c26.667 -27.333 45.667 -45.333 57 -54c29.333 -24 58 -44.667 86 -62
c102.667 -58.667 211 -88 325 -88h5c124 0 240.333 35 349 105c16.667 9.33301 36.334 23.666 59.001 42.999c11.333 8 33 27.667 65 59l18 24c26 30.667 46.667 59.667 62 87c58.667 102 88 210 88 324c0 135.333 -40.333 260.666 -121 375.999
c-14.667 20.667 -36.667 46.667 -66 78c-36 34.667 -66 59.667 -90 75c-112.667 76.667 -235 115 -367 115c-133.333 0 -257.333 -39.333 -372 -118c-18.667 -12.667 -45.334 -35.667 -80.001 -69c-32 -32 -54.333 -57.667 -67 -77c-16.667 -24 -31.667 -48 -45 -72
c-52.667 -96.667 -79 -198.667 -79 -306zM981.999 1165h25.999c98 0 192 -36.667 282 -110c43.333 -41.333 72 -74.333 86 -99l-116 -78c-41.333 64 -100 108.667 -176 134c-27.333 8.66699 -54.666 13 -81.999 13h-16c-80 0 -153.667 -34.333 -221 -103
c-60.667 -70 -91 -149.667 -91 -239v-5c0 -95.333 36 -179 108 -251c64 -58.667 135 -88 213 -88c97.333 0 181.333 43.333 252 130l14 20l118 -75c-57.333 -90.667 -139.333 -155 -246 -193c-48 -14.667 -94 -22 -138 -22c-116 0 -220.333 42.667 -313 128
c-98.667 101.333 -148 218 -148 350v12c0 130.667 49 246.667 147 348c94 85.333 194.333 128 301 128z" />
    <glyph glyph-name="ordfeminine" unicode="&#xaa;" horiz-adv-x="648" 
 />
    <glyph glyph-name="guillemotleft" unicode="&#xab;" horiz-adv-x="1243" 
d="M117 387v107l278 182l111 73c51.333 -76.667 77 -115.667 77 -117l-292 -192c186.667 -122 284 -186 292 -192l-76 -116c-1.33301 0 -16 9.33301 -44 28l-223 146zM603 387v107l278 182l111 73c51.333 -76.667 77 -115.667 77 -117l-292 -192
c186.667 -122 284 -186 292 -192l-76 -116c-1.33301 0 -16 9.33301 -44 28l-223 146z" />
    <glyph glyph-name="logicalnot" unicode="&#xac;" horiz-adv-x="1000" 
d="M710 670h-560v140h700v-460h-140v320z" />
    <glyph glyph-name="registered" unicode="&#xae;" horiz-adv-x="1214" 
d="M607 1464c89.333 0 171.667 -25.667 247 -77c14 -9.33301 30.333 -22.666 49 -39.999c19.333 -18.667 31 -30.667 35 -36c14 -17.333 24.667 -32 32 -44c46 -72.667 69 -151 69 -235c0 -82.667 -22 -159.667 -66 -231c-9.33301 -16 -22.666 -34 -39.999 -54
c-18 -20 -33 -35 -45 -45c-18.667 -14.667 -34.334 -26.334 -47.001 -35.001c-73.333 -45.333 -151.333 -68 -234 -68c-84 0 -162.667 23.333 -236 70c-15.333 10 -32.666 23.667 -51.999 41c-20.667 19.333 -33.334 31.666 -38.001 36.999
c-19.333 24 -33.333 43.333 -42 58c-11.333 17.333 -21.333 36.333 -30 57c-22.667 54.667 -34 109.334 -34 164.001v12c0 54 11.667 109.333 35 166c10 21.333 22.667 44.333 38 69c9.33301 14 21.666 29.667 36.999 47c19.333 20.667 33 33.667 41 39
c20.667 18 39.334 32 56.001 42c70 42 145 63 225 63zM228.001 1032l-0.000976562 -2.00098c0 -77.333 22.667 -149.333 68 -216c8.66699 -12 20 -25.667 34 -41c16 -16 27.333 -26.667 34 -32c17.333 -14 34 -26 50 -36c60.667 -34.667 124.667 -52 192 -52h3
c72.667 0 141 20.667 205 62c10 5.33301 21.667 13.666 35 24.999c6.66699 4.66699 19.334 16.334 38.001 35.001l11 14c15.333 18 27.333 35 36 51c34.667 60 52 123.667 52 191c0 79.333 -23.667 153 -71 221c-8.66699 12.667 -21.667 28 -39 46
c-21.333 20.667 -39 35.334 -53 44.001c-66 45.333 -138 68 -216 68c-78.667 0 -151.667 -23 -219 -69c-11.333 -8 -27 -21.667 -47 -41c-18.667 -18.667 -32 -33.667 -40 -45c-9.33301 -14.667 -18 -29 -26 -43c-31.333 -56.667 -47 -116.667 -47 -180zM520 1258
l0.000976562 -239h98c18 0 33.333 3 46 9c26.667 11.333 46.667 30.666 60 57.999c7.33301 16.667 11 33.667 11 51v14c0 24.667 -7.66699 47 -23 67c-7.33301 8.66699 -13.333 14.334 -18 17.001c-20.667 15.333 -44.334 23 -71.001 23h-103zM463.001 1312h158
c26.667 0 53 -6.66699 79 -20c10 -4.66699 20 -11.334 30 -20.001c10 -9.33301 16.333 -16 19 -20c8.66699 -10.667 15 -20 19 -28c4.66699 -8.66699 8 -17.667 10 -27c4.66699 -14 7 -31.333 7 -52v-2c0 -28 -4.66699 -52.667 -14 -74
c-3.33301 -8.66699 -8 -17.667 -14 -27c-20 -29.333 -45.667 -50.666 -77 -63.999l88 -180l23 -49h-62c-0.666992 0.666992 -3 5.66699 -7 15c-2.66699 6 -18.667 39.667 -48 101l-47 101l-9 -1h-102v-215h-53v562z" />
    <glyph glyph-name="macron" unicode="&#xaf;" horiz-adv-x="670" 
 />
    <glyph glyph-name="degree" unicode="&#xb0;" horiz-adv-x="876" 
d="M253 1142v-2c0 -44 19.333 -80.333 58 -109c24 -16 49.667 -24 77 -24c42 0 77.667 17.333 107 52c17.333 26 26 53 26 81c0 44 -18.667 81 -56 111c-24 16 -49.667 24 -77 24h-2c-40 0 -74.667 -17.333 -104 -52c-19.333 -25.333 -29 -52.333 -29 -81zM381 1429
l12 -0.000976562c52 0 102.667 -15.333 152 -46c14 -9.33301 31.333 -23.666 52 -42.999c52 -57.333 78 -124 78 -200c0 -80 -30.333 -150.333 -91 -211c-58 -50.667 -123.333 -76 -196 -76c-78 0 -146.333 28.333 -205 85c-24 24 -39.333 43.333 -46 58
c-25.333 46.667 -38 93 -38 139v12c0 54 17 106.667 51 158c21.333 30 47.333 55.667 78 77c50 31.333 101 47 153 47z" />
    <glyph glyph-name="plusminus" unicode="&#xb1;" horiz-adv-x="862" 
d="M76 0h710v-140h-710v140zM361 560v285h140v-285h285v-140h-285v-285h-140v285h-285v140h285z" />
    <glyph glyph-name="uni00B2" unicode="&#xb2;" horiz-adv-x="1014" 
 />
    <glyph glyph-name="uni00B3" unicode="&#xb3;" horiz-adv-x="1014" 
 />
    <glyph glyph-name="acute" unicode="&#xb4;" horiz-adv-x="887" 
d="M645 1806l-329 -204l-74 119l330 203z" />
    <glyph glyph-name="mu" unicode="&#xb5;" horiz-adv-x="1152" 
d="M300 72v-471l-1 -1h-138l-1 1v1349h2l1 1h134l1 -1h2v-601c0 -104 56 -170.667 168 -200c22 -6 59.667 -9 113 -9c68 0 119 9 153 27c51.333 24.667 85.666 59 102.999 103c8.66699 30.667 13 60.667 13 90v587l2 3h135l3 -3v-930l-3 -3h-135l-2 3v93
c-73.333 -73.333 -165.666 -110 -276.999 -110c-116.667 0 -207.667 24 -273 72z" />
    <glyph glyph-name="paragraph" unicode="&#xb6;" horiz-adv-x="1121" 
d="M734 100l-0.000976562 1115h-166v-1115h-140v563c-90 12.667 -163 45.334 -219 98.001c-68 62.667 -102 144.334 -102 245.001c0 104.667 35.833 189 107.5 253s166.834 96 285.501 96h443v-140h-69v-1115h-140z" />
    <glyph glyph-name="periodcentered" unicode="&#xb7;" horiz-adv-x="684" 
d="M341 900l2 0.000976562c28.667 0 53.667 -11.667 75 -35c16 -20 24 -40.333 24 -61v-6c0 -28.667 -12.333 -53.667 -37 -75c-18.667 -15.333 -40 -23 -64 -23c-25.333 0 -48.333 9.33301 -69 28c-20 21.333 -30 44 -30 68v8c0 25.333 11 48.666 33 69.999
c19.333 17.333 41.333 26 66 26z" />
    <glyph glyph-name="periodcentered" unicode="&#x2219;" horiz-adv-x="684" 
d="M341 900l2 0.000976562c28.667 0 53.667 -11.667 75 -35c16 -20 24 -40.333 24 -61v-6c0 -28.667 -12.333 -53.667 -37 -75c-18.667 -15.333 -40 -23 -64 -23c-25.333 0 -48.333 9.33301 -69 28c-20 21.333 -30 44 -30 68v8c0 25.333 11 48.666 33 69.999
c19.333 17.333 41.333 26 66 26z" />
    <glyph glyph-name="cedilla" unicode="&#xb8;" horiz-adv-x="766" 
d="M422 0l-13 -59.0029c10.667 -1.33301 20.667 -3.66602 30 -6.99902c28 -10 49.333 -28 64 -54c12 -23.333 18 -46.666 18 -69.999c0 -40 -16 -75 -48 -105c-30 -26 -63.333 -39 -100 -39c-46.667 0 -86.667 20 -120 60c-5.33301 5.33301 -8 8.66602 -8 9.99902l82 60h1
c14 -18 29 -27 45 -27c14 0 26 5.66699 36 17c6 8 9 16 9 24c0 8.66699 -2.33301 15.834 -7 21.501s-11.667 9.83398 -21 12.501c-11.333 2 -25.333 -0.333008 -42 -7l-69 -24v1l37 186h106z" />
    <glyph glyph-name="uni00B9" unicode="&#xb9;" horiz-adv-x="1014" 
 />
    <glyph glyph-name="ordmasculine" unicode="&#xba;" horiz-adv-x="718" 
 />
    <glyph glyph-name="guillemotright" unicode="&#xbb;" horiz-adv-x="1243" 
d="M1003 306l-223 -146c-28 -18.667 -42.667 -28 -44 -28l-76 116c8 6 105.333 70 292 192l-292 192c0 1.33301 25.667 40.333 77 117l111 -73l278 -182v-107zM517 306l-223 -146c-28 -18.667 -42.667 -28 -44 -28l-76 116c8 6 105.333 70 292 192l-292 192
c0 1.33301 25.667 40.333 77 117l111 -73l278 -182v-107z" />
    <glyph glyph-name="onequarter" unicode="&#xbc;" horiz-adv-x="1708" 
 />
    <glyph glyph-name="onehalf" unicode="&#xbd;" horiz-adv-x="1964" 
 />
    <glyph glyph-name="threequarters" unicode="&#xbe;" horiz-adv-x="1708" 
 />
    <glyph glyph-name="questiondown" unicode="&#xbf;" horiz-adv-x="1025" 
d="M503 1303h-1c-34.667 0 -63 15.667 -85 47c-10 17.333 -15 34.333 -15 51v4c0 28.667 12.333 53.667 37 75c18.667 15.333 40 23 64 23c28 0 52.333 -10.667 73 -32c17.333 -20 26 -42.667 26 -68c0 -32.667 -13.667 -59.667 -41 -81c-18 -12.667 -37.333 -19 -58 -19z
M500 0l-14.002 -0.00292969c-66 0 -131 19 -195 57c-17.333 10 -39 26.667 -65 50c-28.667 29.333 -47 51 -55 65c-16.667 22.667 -31 48.334 -43 77.001c-22.667 56.667 -34 111.334 -34 164.001v13c0 58 14.667 119.333 44 184c12 24.667 27.667 50 47 76
c8.66699 12.667 24 30 46 52c25.333 24 54 47 86 69c24.667 18 49 37.667 73 59c28.667 26 43 54 43 84l-1 126v119l1 1h139l1 -158v-85c0 -72 -28 -134.333 -84 -187c-28.667 -26 -60 -51 -94 -75c-26 -18.667 -48.333 -36.667 -67 -54c-23.333 -24 -37.333 -41 -42 -51
c-11.333 -16.667 -21.333 -35 -30 -55c-14.667 -38.667 -22 -75.334 -22 -110.001v-1c0 -71.333 23.667 -135.333 71 -192c20.667 -22 34.667 -35 42 -39c44.667 -32.667 93 -49 145 -49h2c60.667 0 116.334 22.333 167.001 67c20.667 20.667 34 36.334 40 47.001
c34 50.667 51 105.667 51 165v36l1 1h138l1 -1v-42c0 -67.333 -17.333 -134.666 -52 -201.999c-8.66699 -15.333 -21.667 -34.666 -39 -57.999c-7.33301 -10.667 -21.666 -26.334 -42.999 -47.001c-25.333 -22.667 -48 -39.667 -68 -51c-62.667 -36.667 -126 -55 -190 -55z
" />
    <glyph glyph-name="Agrave" unicode="&#xc0;" horiz-adv-x="1351" 
d="M551 1924l330 -203l-74 -119l-329 204zM751 1464c2.66699 0 13.3301 -25.333 31.9971 -76l527 -1354l14 -33l-2 -1h-150c-4 4.66699 -33.667 80.334 -89 227.001c-29.333 74.667 -45.666 113.667 -48.999 117h-714c-3.33301 -4.66699 -38.666 -94.334 -105.999 -269.001
c-17.333 -46 -27.666 -71 -30.999 -75h-145l-2 1h-1l571 1463h145zM676.996 1264l-303 -779h608l-304 779h-1z" />
    <glyph glyph-name="Aacute" unicode="&#xc1;" horiz-adv-x="1351" 
d="M478 1720l329 204l74 -119l-330 -203zM751 1464c2.66699 0 13.3301 -25.333 31.9971 -76l527 -1354l14 -33l-2 -1h-150c-4 4.66699 -33.667 80.334 -89 227.001c-29.333 74.667 -45.666 113.667 -48.999 117h-714c-3.33301 -4.66699 -38.666 -94.334 -105.999 -269.001
c-17.333 -46 -27.666 -71 -30.999 -75h-145l-2 1h-1l571 1463h145zM676.996 1264l-303 -779h608l-304 779h-1z" />
    <glyph glyph-name="Acircumflex" unicode="&#xc2;" horiz-adv-x="1351" 
d="M635 1936h89c2 -1.33301 36.333 -41.666 103 -120.999l103 -123l-106 -90c-2 1.33301 -18.333 20.666 -49 57.999c-62 72.667 -93.667 110 -95 112l-144 -170h-1l-106 90v1zM751 1464c2.66699 0 13.3301 -25.333 31.9971 -76l527 -1354l14 -33l-2 -1h-150
c-4 4.66699 -33.667 80.334 -89 227.001c-29.333 74.667 -45.666 113.667 -48.999 117h-714c-3.33301 -4.66699 -38.666 -94.334 -105.999 -269.001c-17.333 -46 -27.666 -71 -30.999 -75h-145l-2 1h-1l571 1463h145zM676.996 1264l-303 -779h608l-304 779h-1z" />
    <glyph glyph-name="Atilde" unicode="&#xc3;" horiz-adv-x="1351" 
d="M973 1698c-20.667 -22.667 -41 -39.666 -61 -50.999c-31.333 -16.667 -62 -25 -92 -25c-32.667 0 -80 16.167 -142 48.5s-109 48.5 -141 48.5c-26.667 0 -55 -9.33301 -85 -28c-20 -12.667 -42 -33.334 -66 -62.001v154c20.667 23.333 41 40.333 61 51
c31.333 17.333 61.333 26 90 26c34.667 0 83 -16.5 145 -49.5s108 -49.5 138 -49.5c27.333 0 56 9.33301 86 28c20 12.667 42.333 33.667 67 63v-154zM751 1464c2.66699 0 13.3301 -25.333 31.9971 -76l527 -1354l14 -33l-2 -1h-150c-4 4.66699 -33.667 80.334 -89 227.001
c-29.333 74.667 -45.666 113.667 -48.999 117h-714c-3.33301 -4.66699 -38.666 -94.334 -105.999 -269.001c-17.333 -46 -27.666 -71 -30.999 -75h-145l-2 1h-1l571 1463h145zM676.996 1264l-303 -779h608l-304 779h-1z" />
    <glyph glyph-name="Adieresis" unicode="&#xc4;" horiz-adv-x="1351" 
d="M510 1835c28.667 0 53.667 -11.333 75 -34c16.667 -20 25 -40.667 25 -62v-7c0 -26 -11 -49.667 -33 -71c-20 -17.333 -42.333 -26 -67 -26h-1c-34 0 -62 15.333 -84 46c-10 18 -15 34.667 -15 50v8c0 26 11 49.667 33 71c20 16.667 42.333 25 67 25zM850 1835
c28.667 0 53.667 -11.333 75 -34c16.667 -20 25 -40.667 25 -62v-7c0 -26 -11 -49.667 -33 -71c-20 -17.333 -42.333 -26 -67 -26h-1c-34 0 -62 15.333 -84 46c-10 18 -15 34.667 -15 50v8c0 26 11 49.667 33 71c20 16.667 42.333 25 67 25zM751 1464
c2.66699 0 13.3301 -25.333 31.9971 -76l527 -1354l14 -33l-2 -1h-150c-4 4.66699 -33.667 80.334 -89 227.001c-29.333 74.667 -45.666 113.667 -48.999 117h-714c-3.33301 -4.66699 -38.666 -94.334 -105.999 -269.001c-17.333 -46 -27.666 -71 -30.999 -75h-145l-2 1h-1
l571 1463h145zM676.996 1264l-303 -779h608l-304 779h-1z" />
    <glyph glyph-name="Aring" unicode="&#xc5;" horiz-adv-x="1351" 
d="M619 1609l0.00195312 -1c0 -18.667 8 -34.667 24 -48c11.333 -8.66699 23.333 -13 36 -13c19.333 0 35.666 8 48.999 24c8 12 12 24.333 12 37v2c0 15.333 -5.66699 29 -17 41c-12.667 12 -27.334 18 -44.001 18c-16 0 -30 -5.66699 -42 -17c-12 -12.667 -18 -27 -18 -43
zM677.002 1264l-303 -779h608l-304 779h-1zM575.002 1484c-9.33301 8.66699 -16.3369 15.667 -21.0039 21c-8 11.333 -14.333 21 -19 29c-11.333 24 -17 47 -17 69v9c0 31.333 10.333 61.666 31 90.999c4 6 11.333 14.333 22 25c32.667 27.333 68.334 41 107.001 41h2
c38 0 73 -13 105 -39c12 -12 19.667 -20.333 23 -25c22 -30 33 -62.333 33 -97c0 -43.333 -16 -81.666 -48 -114.999l-9 -9c-10 -8 -20.667 -15 -32 -21c4 -4.66699 14.333 -29.667 31 -75l527 -1354l14 -33l-2 -1h-150c-4 4.66699 -33.667 80.334 -89 227.001
c-29.333 74.667 -45.666 113.667 -48.999 117h-714c-3.33301 -4.66699 -38.666 -94.334 -105.999 -269.001c-17.333 -46 -27.666 -71 -30.999 -75h-145l-2 1h-1l571 1463c-10.667 6 -21 12.667 -31 20z" />
    <glyph glyph-name="AE" unicode="&#xc6;" horiz-adv-x="1698" 
d="M881 1205l-175 -301l-193 -332h368v633zM885 1464h704.999v-140h-563v-522h449l1 -1v-139h-450v-522h563v-140h-709v432h-449c-1.33301 -2 -9.66602 -16.333 -24.999 -43l-214 -367l-13 -22h-145l231 399l215 369l253 436l147 253z" />
    <glyph glyph-name="Ccedilla" unicode="&#xc7;" horiz-adv-x="1408" 
d="M760 0l-14.0029 -59.0059c10.667 -1.33301 20.667 -3.66602 30 -6.99902c28 -10 49.333 -28 64 -54c12 -23.333 18 -46.666 18 -69.999c0 -40 -16 -75 -48 -105c-30 -26 -63.333 -39 -100 -39c-46.667 0 -86.667 20 -120 60c-5.33301 5.33301 -8 8.66602 -8 9.99902
l82 60h1c14 -18 29 -27 45 -27c14 0 26 5.66699 36 17c6 8 9 16 9 24c0 8.66699 -2.33301 15.834 -7 21.501s-11.667 9.83398 -21 12.501c-11.333 0.666992 -25.333 -1.66602 -42 -6.99902l-69 -24v1l38 195c-140 24.667 -266 98.334 -378 221.001
c-119.333 148.667 -179 314.334 -179 497.001v10c0 200.667 70 377 210 529c134 132 284 198 450 198h12c169.333 0 322.333 -69 459 -207c60.667 -72 98.334 -126.667 113.001 -164c-80 -41.333 -121.333 -62 -124 -62c-17.333 33.333 -40 68 -68 104
c-111.333 126 -239 189 -383 189h-6c-150.667 0 -281.667 -67.333 -393 -202c-86.667 -116.667 -130 -245 -130 -385v-10c0 -162.667 56.333 -306 169 -430c104.667 -104.667 224.334 -157 359.001 -157c147.333 0 277 65 389 195c27.333 37.333 49 71.333 65 102l123 -64
c-15.333 -40 -55.666 -98 -120.999 -174c-134.667 -132.667 -288 -199 -460 -199h-1z" />
    <glyph glyph-name="Egrave" unicode="&#xc8;" horiz-adv-x="1009" 
d="M408 1924l330 -203l-74 -119l-329 204zM173 1464h727l1 -1v-138l-1 -1h-588v-522h470l1 -1v-138l-1 -1h-470v-522h588l1 -1v-138l-1 -1h-727l-1 1v1462z" />
    <glyph glyph-name="Eacute" unicode="&#xc9;" horiz-adv-x="1009" 
d="M173 1464h727l1 -1v-138l-1 -1h-588v-522h470l1 -1v-138l-1 -1h-470v-522h588l1 -1v-138l-1 -1h-727l-1 1v1462zM738 1806l-329 -204l-74 119l330 203z" />
    <glyph glyph-name="Ecircumflex" unicode="&#xca;" horiz-adv-x="1009" 
d="M492 1936h89c2 -1.33301 36.333 -41.666 103 -120.999l103 -123l-106 -90c-2 1.33301 -18.333 20.666 -49 57.999c-62 72.667 -93.667 110 -95 112l-144 -170h-1l-106 90v1zM173 1464h727l1 -1v-138l-1 -1h-588v-522h470l1 -1v-138l-1 -1h-470v-522h588l1 -1v-138l-1 -1
h-727l-1 1v1462z" />
    <glyph glyph-name="Edieresis" unicode="&#xcb;" horiz-adv-x="1009" 
d="M707 1835c28.667 0 53.667 -11.333 75 -34c16.667 -20 25 -40.667 25 -62v-7c0 -26 -11 -49.667 -33 -71c-20 -17.333 -42.333 -26 -67 -26h-1c-34 0 -62 15.333 -84 46c-10 18 -15 34.667 -15 50v8c0 26 11 49.667 33 71c20 16.667 42.333 25 67 25zM173 1464h727l1 -1
v-138l-1 -1h-588v-522h470l1 -1v-138l-1 -1h-470v-522h588l1 -1v-138l-1 -1h-727l-1 1v1462zM367 1835c28.667 0 53.667 -11.333 75 -34c16.667 -20 25 -40.667 25 -62v-7c0 -26 -11 -49.667 -33 -71c-20 -17.333 -42.333 -26 -67 -26h-1c-34 0 -62 15.333 -84 46
c-10 18 -15 34.667 -15 50v8c0 26 11 49.667 33 71c20 16.667 42.333 25 67 25z" />
    <glyph glyph-name="Igrave" unicode="&#xcc;" horiz-adv-x="484" 
d="M173 1464h138l1 -1v-1462l-1 -1h-138l-1 1v1462zM130 1904l297 -183l-74 -119l-296 184z" />
    <glyph glyph-name="Iacute" unicode="&#xcd;" horiz-adv-x="484" 
d="M173 1464h138l1 -1v-1462l-1 -1h-138l-1 1v1462zM427 1786l-296 -184l-74 119l297 183z" />
    <glyph glyph-name="Icircumflex" unicode="&#xce;" horiz-adv-x="484" 
d="M173 1464h138l1 -1v-1462l-1 -1h-138l-1 1v1462zM197 1936h89c2 -1.33301 36.333 -41.666 103 -120.999l103 -123l-106 -90c-2 1.33301 -18.333 20.666 -49 57.999c-62 72.667 -93.667 110 -95 112l-144 -170h-1l-106 90v1z" />
    <glyph glyph-name="Idieresis" unicode="&#xcf;" horiz-adv-x="484" 
d="M173 1464h138l1 -1v-1462l-1 -1h-138l-1 1v1462zM72 1835c28.667 0 53.667 -11.333 75 -34c16.667 -20 25 -40.667 25 -62v-7c0 -26 -11 -49.667 -33 -71c-20 -17.333 -42.333 -26 -67 -26h-1c-34 0 -62 15.333 -84 46c-10 18 -15 34.667 -15 50v8c0 26 11 49.667 33 71
c20 16.667 42.333 25 67 25zM412 1835c28.667 0 53.667 -11.333 75 -34c16.667 -20 25 -40.667 25 -62v-7c0 -26 -11 -49.667 -33 -71c-20 -17.333 -42.333 -26 -67 -26h-1c-34 0 -62 15.333 -84 46c-10 18 -15 34.667 -15 50v8c0 26 11 49.667 33 71
c20 16.667 42.333 25 67 25z" />
    <glyph glyph-name="Eth" unicode="&#xd0;" horiz-adv-x="1383" 
d="M365 802h188v-140h-188v-522h198c208 0 372 88.667 492 266c62.667 104 94 212.667 94 326c0 171.333 -65 320.333 -195 447c-40.667 34 -78 60.333 -112 79c-85.333 44 -172 66 -260 66h-217v-522zM225 662l-113 0.000976562v140h113v659l3 3h354
c167.333 0 319.333 -57.667 456 -173c62 -58.667 100 -101 114 -127c92 -131.333 138 -275.333 138 -432c0 -190.667 -67 -360.334 -201 -509.001c-142 -148.667 -317.667 -223 -527 -223h-334l-3 3v659z" />
    <glyph glyph-name="Ntilde" unicode="&#xd1;" horiz-adv-x="1422" 
d="M1004 1698c-20.667 -22.667 -41 -39.666 -61 -50.999c-31.333 -16.667 -62 -25 -92 -25c-32.667 0 -80 16.167 -142 48.5s-109 48.5 -141 48.5c-26.667 0 -55 -9.33301 -85 -28c-20 -12.667 -42 -33.334 -66 -62.001v154c20.667 23.333 41 40.333 61 51
c31.333 17.333 61.333 26 90 26c34.667 0 83 -16.5 145 -49.5s108 -49.5 138 -49.5c27.333 0 56 9.33301 86 28c20 12.667 42.333 33.667 67 63v-154zM175 1464h172.001c5.33301 -5.33301 183.666 -296 534.999 -872l226 -371h2v1240l2 3h135l3 -3v-1458l-3 -3h-165
c-9.33301 10.667 -34.333 50.667 -75 120c-2.66699 3.33301 -181 295 -535 875l-153 248v-1240l-3 -3h-141l-3 3v1458z" />
    <glyph glyph-name="Ograve" unicode="&#xd2;" horiz-adv-x="1543" 
d="M648 1924l330 -203l-74 -119l-329 204zM773 1464h5.99805c170 0 322.667 -65 458 -195c50.667 -54 84.334 -96.667 101.001 -128c76.667 -124.667 115 -259.667 115 -405v-8c0 -201.333 -71 -378 -213 -530c-135.333 -132 -290.333 -198 -465 -198
c-170.667 0 -323.667 64.667 -459 194c-60 65.333 -96.667 113 -110 143c-71.333 121.333 -107 250.666 -107 387.999v14c0 178 59 340.667 177 488c47.333 50.667 81.333 83.334 102 98.001c122.667 92.667 254.334 139 395.001 139zM238.998 737v-9.99902
c0 -162 57.667 -305.667 173 -431c107.333 -104 229 -156 365 -156c159.333 0 296.333 70.667 411 212c83.333 115.333 125 240.666 125 375.999v8c0 162.667 -57.667 306.667 -173 432c-107.333 104 -229 156 -365 156c-151.333 0 -283.333 -64.333 -396 -193
c-93.333 -118 -140 -249.333 -140 -394z" />
    <glyph glyph-name="Oacute" unicode="&#xd3;" horiz-adv-x="1543" 
d="M978 1806l-329 -204l-74 119l330 203zM773 1464h5.99805c170 0 322.667 -65 458 -195c50.667 -54 84.334 -96.667 101.001 -128c76.667 -124.667 115 -259.667 115 -405v-8c0 -201.333 -71 -378 -213 -530c-135.333 -132 -290.333 -198 -465 -198
c-170.667 0 -323.667 64.667 -459 194c-60 65.333 -96.667 113 -110 143c-71.333 121.333 -107 250.666 -107 387.999v14c0 178 59 340.667 177 488c47.333 50.667 81.333 83.334 102 98.001c122.667 92.667 254.334 139 395.001 139zM238.998 737v-9.99902
c0 -162 57.667 -305.667 173 -431c107.333 -104 229 -156 365 -156c159.333 0 296.333 70.667 411 212c83.333 115.333 125 240.666 125 375.999v8c0 162.667 -57.667 306.667 -173 432c-107.333 104 -229 156 -365 156c-151.333 0 -283.333 -64.333 -396 -193
c-93.333 -118 -140 -249.333 -140 -394z" />
    <glyph glyph-name="Ocircumflex" unicode="&#xd4;" horiz-adv-x="1543" 
d="M732 1936h89c2 -1.33301 36.333 -41.666 103 -120.999l103 -123l-106 -90c-2 1.33301 -18.333 20.666 -49 57.999c-62 72.667 -93.667 110 -95 112l-144 -170h-1l-106 90v1zM773 1464h5.99805c170 0 322.667 -65 458 -195c50.667 -54 84.334 -96.667 101.001 -128
c76.667 -124.667 115 -259.667 115 -405v-8c0 -201.333 -71 -378 -213 -530c-135.333 -132 -290.333 -198 -465 -198c-170.667 0 -323.667 64.667 -459 194c-60 65.333 -96.667 113 -110 143c-71.333 121.333 -107 250.666 -107 387.999v14c0 178 59 340.667 177 488
c47.333 50.667 81.333 83.334 102 98.001c122.667 92.667 254.334 139 395.001 139zM238.998 737v-9.99902c0 -162 57.667 -305.667 173 -431c107.333 -104 229 -156 365 -156c159.333 0 296.333 70.667 411 212c83.333 115.333 125 240.666 125 375.999v8
c0 162.667 -57.667 306.667 -173 432c-107.333 104 -229 156 -365 156c-151.333 0 -283.333 -64.333 -396 -193c-93.333 -118 -140 -249.333 -140 -394z" />
    <glyph glyph-name="Otilde" unicode="&#xd5;" horiz-adv-x="1543" 
d="M1070 1698c-20.667 -22.667 -41 -39.666 -61 -50.999c-31.333 -16.667 -62 -25 -92 -25c-32.667 0 -80 16.167 -142 48.5s-109 48.5 -141 48.5c-26.667 0 -55 -9.33301 -85 -28c-20 -12.667 -42 -33.334 -66 -62.001v154c20.667 23.333 41 40.333 61 51
c31.333 17.333 61.333 26 90 26c34.667 0 83 -16.5 145 -49.5s108 -49.5 138 -49.5c27.333 0 56 9.33301 86 28c20 12.667 42.333 33.667 67 63v-154zM773 1464h5.99805c170 0 322.667 -65 458 -195c50.667 -54 84.334 -96.667 101.001 -128
c76.667 -124.667 115 -259.667 115 -405v-8c0 -201.333 -71 -378 -213 -530c-135.333 -132 -290.333 -198 -465 -198c-170.667 0 -323.667 64.667 -459 194c-60 65.333 -96.667 113 -110 143c-71.333 121.333 -107 250.666 -107 387.999v14c0 178 59 340.667 177 488
c47.333 50.667 81.333 83.334 102 98.001c122.667 92.667 254.334 139 395.001 139zM238.998 737.001v-9.99902c0 -162 57.667 -305.667 173 -431c107.333 -104 229 -156 365 -156c159.333 0 296.333 70.667 411 212c83.333 115.333 125 240.666 125 375.999v8
c0 162.667 -57.667 306.667 -173 432c-107.333 104 -229 156 -365 156c-151.333 0 -283.333 -64.333 -396 -193c-93.333 -118 -140 -249.333 -140 -394z" />
    <glyph glyph-name="Odieresis" unicode="&#xd6;" horiz-adv-x="1543" 
d="M606 1835c28.667 0 53.667 -11.333 75 -34c16.667 -20 25 -40.667 25 -62v-7c0 -26 -11 -49.667 -33 -71c-20 -17.333 -42.333 -26 -67 -26h-1c-34 0 -62 15.333 -84 46c-10 18 -15 34.667 -15 50v8c0 26 11 49.667 33 71c20 16.667 42.333 25 67 25zM946 1835
c28.667 0 53.667 -11.333 75 -34c16.667 -20 25 -40.667 25 -62v-7c0 -26 -11 -49.667 -33 -71c-20 -17.333 -42.333 -26 -67 -26h-1c-34 0 -62 15.333 -84 46c-10 18 -15 34.667 -15 50v8c0 26 11 49.667 33 71c20 16.667 42.333 25 67 25zM773 1464h5.99805
c170 0 322.667 -65 458 -195c50.667 -54 84.334 -96.667 101.001 -128c76.667 -124.667 115 -259.667 115 -405v-8c0 -201.333 -71 -378 -213 -530c-135.333 -132 -290.333 -198 -465 -198c-170.667 0 -323.667 64.667 -459 194c-60 65.333 -96.667 113 -110 143
c-71.333 121.333 -107 250.666 -107 387.999v14c0 178 59 340.667 177 488c47.333 50.667 81.333 83.334 102 98.001c122.667 92.667 254.334 139 395.001 139zM238.998 737v-9.99902c0 -162 57.667 -305.667 173 -431c107.333 -104 229 -156 365 -156
c159.333 0 296.333 70.667 411 212c83.333 115.333 125 240.666 125 375.999v8c0 162.667 -57.667 306.667 -173 432c-107.333 104 -229 156 -365 156c-151.333 0 -283.333 -64.333 -396 -193c-93.333 -118 -140 -249.333 -140 -394z" />
    <glyph glyph-name="multiply" unicode="&#xd7;" horiz-adv-x="793" 
d="M298 487l-202 202l99 99l202 -202l201 202l99 -99l-201 -202l201 -202l-99 -99l-201 202l-202 -202l-99 99z" />
    <glyph glyph-name="Oslash" unicode="&#xd8;" horiz-adv-x="1543" 
d="M1027 1255c-77.333 46 -161.333 69 -252 69c-151.333 0 -283.333 -64.333 -396 -193c-93.333 -118 -140 -249.333 -140 -394v-10c0 -162 57.667 -305.667 173 -431c4.66699 -4 9 -8 13 -12zM1137 1171l-601 -968.999c74.667 -41.333 155 -62 241 -62
c159.333 0 296.333 70.667 411 212c83.333 115.333 125 240.666 125 375.999v8c0 162.667 -57.667 306.667 -173 432zM1101 1374l113.999 184l1 1l117 -69v-2l-121 -196l25 -23c50.667 -54 84.334 -96.667 101.001 -128c76.667 -124.667 115 -259.667 115 -405v-8
c0 -201.333 -71 -378 -213 -530c-135.333 -132 -290.333 -198 -465 -198c-112 0 -216.333 27.667 -313 83l-94 -152h-1l-117 69v1l100 162l-34 31c-60 65.333 -96.667 113 -110 143c-71.333 121.333 -107 250.666 -107 387.999v14c0 178 59 340.667 177 488
c47.333 50.667 81.333 83.334 102 98.001c122.667 92.667 254.334 139 395.001 139h6c115.333 0 222.666 -30 321.999 -90z" />
    <glyph glyph-name="Ugrave" unicode="&#xd9;" horiz-adv-x="1387" 
d="M565 1924l330 -203l-74 -119l-329 204zM173 1464l133.999 -0.000976562l3 -3v-937c0 -156 56 -271 168 -345c48.667 -26 97.334 -39 146.001 -39h139c100.667 0 183.667 46.667 249 140c43.333 67.333 65 153.333 65 258v923l3 3h135l3 -3v-923
c0 -216 -77 -374.333 -231 -475c-72 -42 -145.667 -63 -221 -63h-144c-112.667 0 -213.667 42.333 -303 127c-99.333 104.667 -149 236.334 -149 395.001v939z" />
    <glyph glyph-name="Uacute" unicode="&#xda;" horiz-adv-x="1387" 
d="M895 1806l-329 -204l-74 119l330 203zM173 1464l133.999 -0.000976562l3 -3v-937c0 -156 56 -271 168 -345c48.667 -26 97.334 -39 146.001 -39h139c100.667 0 183.667 46.667 249 140c43.333 67.333 65 153.333 65 258v923l3 3h135l3 -3v-923
c0 -216 -77 -374.333 -231 -475c-72 -42 -145.667 -63 -221 -63h-144c-112.667 0 -213.667 42.333 -303 127c-99.333 104.667 -149 236.334 -149 395.001v939z" />
    <glyph glyph-name="Ucircumflex" unicode="&#xdb;" horiz-adv-x="1387" 
d="M649 1936h89c2 -1.33301 36.333 -41.666 103 -120.999l103 -123l-106 -90c-2 1.33301 -18.333 20.666 -49 57.999c-62 72.667 -93.667 110 -95 112l-144 -170h-1l-106 90v1zM173 1464l133.999 -0.000976562l3 -3v-937c0 -156 56 -271 168 -345
c48.667 -26 97.334 -39 146.001 -39h139c100.667 0 183.667 46.667 249 140c43.333 67.333 65 153.333 65 258v923l3 3h135l3 -3v-923c0 -216 -77 -374.333 -231 -475c-72 -42 -145.667 -63 -221 -63h-144c-112.667 0 -213.667 42.333 -303 127
c-99.333 104.667 -149 236.334 -149 395.001v939z" />
    <glyph glyph-name="Udieresis" unicode="&#xdc;" horiz-adv-x="1387" 
d="M524 1835c28.667 0 53.667 -11.333 75 -34c16.667 -20 25 -40.667 25 -62v-7c0 -26 -11 -49.667 -33 -71c-20 -17.333 -42.333 -26 -67 -26h-1c-34 0 -62 15.333 -84 46c-10 18 -15 34.667 -15 50v8c0 26 11 49.667 33 71c20 16.667 42.333 25 67 25zM864 1835
c28.667 0 53.667 -11.333 75 -34c16.667 -20 25 -40.667 25 -62v-7c0 -26 -11 -49.667 -33 -71c-20 -17.333 -42.333 -26 -67 -26h-1c-34 0 -62 15.333 -84 46c-10 18 -15 34.667 -15 50v8c0 26 11 49.667 33 71c20 16.667 42.333 25 67 25zM173 1464l133.999 -0.000976562
l3 -3v-937c0 -156 56 -271 168 -345c48.667 -26 97.334 -39 146.001 -39h139c100.667 0 183.667 46.667 249 140c43.333 67.333 65 153.333 65 258v923l3 3h135l3 -3v-923c0 -216 -77 -374.333 -231 -475c-72 -42 -145.667 -63 -221 -63h-144
c-112.667 0 -213.667 42.333 -303 127c-99.333 104.667 -149 236.334 -149 395.001v939z" />
    <glyph glyph-name="Yacute" unicode="&#xdd;" horiz-adv-x="1193" 
d="M800 1806l-329 -204l-74 119l330 203zM30 1464h172c12 -15.333 142.333 -214.333 391 -597l5 -5l396 602h170l3 -3l-495 -743v-715l-3 -3h-143l-2 3v715l-494 743v3z" />
    <glyph glyph-name="Thorn" unicode="&#xde;" horiz-adv-x="1307" 
d="M293 274l0.000976562 -273l-1 -1h-138l-1 1v1462l1 1h138l1 -1v-273h438c163.333 0 290.333 -43.333 381 -130c23.333 -25.333 38.333 -44 45 -56c15.333 -22.667 26.666 -44 33.999 -64c18 -46 27 -92 27 -138v-140c0 -66.667 -17.667 -130.667 -53 -192
c-43.333 -70.667 -110.333 -123.667 -201 -159c-69.333 -24.667 -143.333 -37 -222 -37h-449zM293.001 1052v-640h442c118 0 209 28 273 84c48 45.333 72 102.333 72 171v129c0 76 -28.667 137 -86 183c-14.667 11.333 -27.334 20 -38.001 26
c-17.333 9.33301 -40.666 18.333 -69.999 27c-44 13.333 -99.667 20 -167 20h-426z" />
    <glyph glyph-name="germandbls" unicode="&#xdf;" horiz-adv-x="1303" 
d="M552 1463l12.001 0.000976562c132 0 239.333 -31.667 322 -95c61.333 -54.667 92 -120.667 92 -198c0 -83.333 -37.333 -172.333 -112 -267c-41.333 -62.667 -62 -108 -62 -136v-6c0 -44.667 52 -91.667 156 -141c50.667 -28.667 101.667 -67 153 -115
c64 -68.667 96 -136.334 96 -203.001v-20c0 -68 -33.333 -136.333 -100 -205c-84.667 -76 -181 -114 -289 -114h-2c-148.667 0 -271 75.667 -367 227l-1 4l117 71c69.333 -108 153.666 -162 252.999 -162c76 0 143.333 28.333 202 85c31.333 38 47 70.333 47 97v12
c0 74 -83 153.667 -249 239c-104 64 -156 138 -156 222v9c0 72 43.667 164.667 131 278c28.667 46.667 43 88.667 43 126c0 84.667 -78 135 -234 151l-43 1h-8c-122 0 -204 -47 -246 -141c-9.33301 -23.333 -14 -40.333 -14 -51v-1128l-3 -3h-134l-3 3v1136
c0 42 20 96.333 60 163c78 107.333 191 161 339 161z" />
    <glyph glyph-name="agrave" unicode="&#xe0;" 
d="M429 1410l330 -203l-74 -119l-329 204zM565 960c131.333 0 235.998 -53.999 313.998 -161.999l3 -6h1v156l2 3h135l3 -3v-945l-3 -3h-135l-2 3v154h-1c-72 -110.667 -180.667 -166 -326 -166v1l-2 -1c-129.333 0 -242.666 52 -339.999 156
c-81.333 97.333 -122 204.666 -122 321.999v12c0 125.333 45 237.333 135 336c94.667 95.333 207.334 143 338.001 143zM231.998 479.001l0.000976562 -5.00098c0 -111.333 44.667 -203.666 134 -276.999c56 -43.333 118.333 -65 187 -65c144.667 0 244.667 71 300 213
c14.667 41.333 22 82.666 22 123.999v22c0 58 -18.333 118.667 -55 182c-62.667 96.667 -146.334 145 -251.001 145c-141.333 0 -244 -66.667 -308 -200c-19.333 -47.333 -29 -93.666 -29 -138.999z" />
    <glyph glyph-name="aacute" unicode="&#xe1;" 
d="M356 1206l329 204l74 -119l-330 -203zM565 960c131.333 0 235.998 -53.999 313.998 -161.999l3 -6h1v156l2 3h135l3 -3v-945l-3 -3h-135l-2 3v154h-1c-72 -110.667 -180.667 -166 -326 -166v1l-2 -1c-129.333 0 -242.666 52 -339.999 156
c-81.333 97.333 -122 204.666 -122 321.999v12c0 125.333 45 237.333 135 336c94.667 95.333 207.334 143 338.001 143zM231.998 479.001l0.000976562 -5.00098c0 -111.333 44.667 -203.666 134 -276.999c56 -43.333 118.333 -65 187 -65c144.667 0 244.667 71 300 213
c14.667 41.333 22 82.666 22 123.999v22c0 58 -18.333 118.667 -55 182c-62.667 96.667 -146.334 145 -251.001 145c-141.333 0 -244 -66.667 -308 -200c-19.333 -47.333 -29 -93.666 -29 -138.999z" />
    <glyph glyph-name="acircumflex" unicode="&#xe2;" 
d="M511 1421h89c2 -1.33301 36.333 -41.666 103 -120.999l103 -123l-106 -90c-2 1.33301 -18.333 20.666 -49 57.999c-62 72.667 -93.667 110 -95 112l-144 -170h-1l-106 90v1zM565 960c131.333 0 235.998 -53.999 313.998 -161.999l3 -6h1v156l2 3h135l3 -3v-945l-3 -3
h-135l-2 3v154h-1c-72 -110.667 -180.667 -166 -326 -166v1l-2 -1c-129.333 0 -242.666 52 -339.999 156c-81.333 97.333 -122 204.666 -122 321.999v12c0 125.333 45 237.333 135 336c94.667 95.333 207.334 143 338.001 143zM231.998 479.001l0.000976562 -5.00098
c0 -111.333 44.667 -203.666 134 -276.999c56 -43.333 118.333 -65 187 -65c144.667 0 244.667 71 300 213c14.667 41.333 22 82.666 22 123.999v22c0 58 -18.333 118.667 -55 182c-62.667 96.667 -146.334 145 -251.001 145c-141.333 0 -244 -66.667 -308 -200
c-19.333 -47.333 -29 -93.666 -29 -138.999z" />
    <glyph glyph-name="atilde" unicode="&#xe3;" 
d="M853 1184c-20.667 -22.667 -41 -39.666 -61 -50.999c-31.333 -16.667 -62 -25 -92 -25c-32.667 0 -80.167 16.167 -142.5 48.5s-109.5 48.5 -141.5 48.5c-26.667 0 -55 -9.33301 -85 -28c-20 -12.667 -42 -33.334 -66 -62.001v154c20.667 23.333 41 40.333 61 51
c31.333 17.333 61.333 26 90 26c34.667 0 83.167 -16.5 145.5 -49.5s108.5 -49.5 138.5 -49.5c27.333 0 56 9.33301 86 28c20 12.667 42.333 33.667 67 63v-154zM565 960.001c131.333 0 235.998 -53.999 313.998 -161.999l3 -6h1v156l2 3h135l3 -3v-945l-3 -3h-135l-2 3v154
h-1c-72 -110.667 -180.667 -166 -326 -166v1l-2 -1c-129.333 0 -242.666 52 -339.999 156c-81.333 97.333 -122 204.666 -122 321.999v12c0 125.333 45 237.333 135 336c94.667 95.333 207.334 143 338.001 143zM231.998 479.002l0.000976562 -5.00098
c0 -111.333 44.667 -203.666 134 -276.999c56 -43.333 118.333 -65 187 -65c144.667 0 244.667 71 300 213c14.667 41.333 22 82.666 22 123.999v22c0 58 -18.333 118.667 -55 182c-62.667 96.667 -146.334 145 -251.001 145c-141.333 0 -244 -66.667 -308 -200
c-19.333 -47.333 -29 -93.666 -29 -138.999z" />
    <glyph glyph-name="adieresis" unicode="&#xe4;" 
d="M388 1319c28.667 0 53.667 -11.333 75 -34c16.667 -20 25 -40.667 25 -62v-7c0 -26 -11 -49.667 -33 -71c-20 -17.333 -42.333 -26 -67 -26h-1c-34 0 -62 15.333 -84 46c-10 18 -15 34.667 -15 50v8c0 26 11 49.667 33 71c20 16.667 42.333 25 67 25zM728 1319
c28.667 0 53.667 -11.333 75 -34c16.667 -20 25 -40.667 25 -62v-7c0 -26 -11 -49.667 -33 -71c-20 -17.333 -42.333 -26 -67 -26h-1c-34 0 -62 15.333 -84 46c-10 18 -15 34.667 -15 50v8c0 26 11 49.667 33 71c20 16.667 42.333 25 67 25zM565 960
c131.333 0 235.998 -53.999 313.998 -161.999l3 -6h1v156l2 3h135l3 -3v-945l-3 -3h-135l-2 3v154h-1c-72 -110.667 -180.667 -166 -326 -166v1l-2 -1c-129.333 0 -242.666 52 -339.999 156c-81.333 97.333 -122 204.666 -122 321.999v12c0 125.333 45 237.333 135 336
c94.667 95.333 207.334 143 338.001 143zM231.998 479.001l0.000976562 -5.00098c0 -111.333 44.667 -203.666 134 -276.999c56 -43.333 118.333 -65 187 -65c144.667 0 244.667 71 300 213c14.667 41.333 22 82.666 22 123.999v22c0 58 -18.333 118.667 -55 182
c-62.667 96.667 -146.334 145 -251.001 145c-141.333 0 -244 -66.667 -308 -200c-19.333 -47.333 -29 -93.666 -29 -138.999z" />
    <glyph glyph-name="aring" unicode="&#xe5;" 
d="M505 1240l0.000976562 -1c0 -16.667 7 -30.667 21 -42c10 -8 21 -12 33 -12c17.333 0 31.333 7 42 21c7.33301 10.667 11 21.667 11 33v2c0 13.333 -5 25.333 -15 36c-11.333 10.667 -24 16 -38 16c-14.667 0 -27.334 -5 -38.001 -15c-10.667 -11.333 -16 -24 -16 -38z
M557.001 1400h1.99902c38 0 73 -13 105 -39c12.667 -12 20.667 -20.333 24 -25c21.333 -30 32 -62.333 32 -97c0 -43.333 -16.333 -81.666 -49 -114.999l-8 -9c-31.333 -24.667 -66.333 -37 -105 -37c-38 0 -72.667 12.333 -104 37c-9.33301 8.66699 -16 16 -20 22
c-8.66699 10.667 -15 20 -19 28c-12 24 -18 47 -18 69v9c0 31.333 10.333 61.666 31 90.999c4 6 11.333 14.333 22 25c32.667 27.333 68.334 41 107.001 41zM565 960c131.333 0 235.998 -53.999 313.998 -161.999l3 -6h1v156l2 3h135l3 -3v-945l-3 -3h-135l-2 3v154h-1
c-72 -110.667 -180.667 -166 -326 -166v1l-2 -1c-129.333 0 -242.666 52 -339.999 156c-81.333 97.333 -122 204.666 -122 321.999v12c0 125.333 45 237.333 135 336c94.667 95.333 207.334 143 338.001 143zM231.998 479.001l0.000976562 -5.00098
c0 -111.333 44.667 -203.666 134 -276.999c56 -43.333 118.333 -65 187 -65c144.667 0 244.667 71 300 213c14.667 41.333 22 82.666 22 123.999v22c0 58 -18.333 118.667 -55 182c-62.667 96.667 -146.334 145 -251.001 145c-141.333 0 -244 -66.667 -308 -200
c-19.333 -47.333 -29 -93.666 -29 -138.999z" />
    <glyph glyph-name="ae" unicode="&#xe6;" horiz-adv-x="1904" 
d="M232 479l0.000976562 -5.00098c0 -111.333 44.667 -203.666 134 -276.999c56 -43.333 118.333 -65 187 -65c144.667 0 244.667 71 300 213c14.667 41.333 22 82.666 22 123.999v22c0 58 -18.333 118.667 -55 182c-62.667 96.667 -146.334 145 -251.001 145
c-141.333 0 -244 -66.667 -308 -200c-19.333 -47.333 -29 -93.666 -29 -138.999zM1071 577.999l597.999 0.000976562c-28 87.333 -75 151.666 -141 192.999c-49.333 31.333 -102.666 47 -159.999 47c-97.333 0 -180.333 -45.333 -249 -136
c-21.333 -31.333 -37.333 -66 -48 -104zM1023 163l0.00195312 -159.999l-3 -3h-135l-2 3v154h-1c-72 -110.667 -180.667 -166 -326 -166v1l-2 -1c-129.333 0 -242.666 52 -339.999 156c-81.333 97.333 -122 204.666 -122 321.999v12c0 125.333 45 237.333 135 336
c94.667 95.333 207.334 143 338.001 143c131.333 0 236 -54 314 -162l3 -6h1v156l2 3h135l3 -3v-163c11.333 14.667 23.666 29 36.999 43c89.333 87.333 193.666 131 312.999 131c137.333 0 255 -60.667 353 -182c64.667 -95.333 97 -188.333 97 -279v-12
c0 -30.667 -2 -46 -6 -46h-759c0 -32 13.333 -77 40 -135c40 -74.667 97.667 -126.667 173 -156c36.667 -12 69.667 -18 99 -18c91.333 0 170.333 39.667 237 119c23.333 32 38.666 57.667 45.999 77h2c54 -21.333 96.333 -39.333 127 -54
c-14.667 -42 -47.334 -91 -98.001 -147c-92 -90 -196.333 -135 -313 -135c-135.333 0 -251.333 57.333 -348 172z" />
    <glyph glyph-name="ccedilla" unicode="&#xe7;" horiz-adv-x="1001" 
d="M531 -9l-12.001 -50.0029c10.667 -1.33301 20.667 -3.66602 30 -6.99902c28 -10 49.333 -28 64 -54c12 -23.333 18 -46.666 18 -69.999c0 -40 -16 -75 -48 -105c-30 -26 -63.333 -39 -100 -39c-46.667 0 -86.667 20 -120 60c-5.33301 5.33301 -8 8.66602 -8 9.99902
l82 60h1c14 -18 29 -27 45 -27c14 0 26 5.66699 36 17c6 8 9 16 9 24c0 8.66699 -2.33301 15.834 -7 21.501s-11.667 9.83398 -21 12.501c-11.333 0.666992 -25.333 -1.66602 -42 -6.99902l-69 -24v1l39 194c-68 20 -131.333 57 -190 111c-98.667 101.333 -148 218 -148 350
v11c0 131.333 49 247.666 147 348.999c94 85.333 194.333 128 301 128h26c98 0 192 -36.667 282 -110c43.333 -42 72 -75 86 -99l-116 -78c-41.333 64 -100 108.667 -176 134c-27.333 8.66699 -54.666 13 -81.999 13h-16c-80 0 -153.667 -34.333 -221 -103
c-60.667 -70 -91 -149.667 -91 -239v-5c0 -95.333 36 -179.333 108 -252c64 -58 135 -87 213 -87c97.333 0 181 43 251 129l15 21l118 -76c-58 -90.667 -140 -154.667 -246 -192c-48 -14.667 -94 -22 -138 -22h-20z" />
    <glyph glyph-name="egrave" unicode="&#xe8;" horiz-adv-x="1054" 
d="M392 1410l330 -203l-74 -119l-329 204zM523 959c137.333 0 255.003 -60.667 353.003 -182c64.667 -95.333 97 -188.333 97 -279v-12c0 -30.667 -2 -46 -6 -46h-759c0 -32 13.333 -77 40 -135c40 -74.667 97.667 -126.667 173 -156c36.667 -12 69.667 -18 99 -18
c91.333 0 170.333 39.667 237 119c23.333 32 38.666 57.667 45.999 77h2c54 -21.333 96.333 -39.333 127 -54c-14.667 -42 -47.334 -91 -98.001 -147c-92 -90 -196.333 -135 -313 -135c-139.333 0 -258.333 61 -357 183c-64.667 92.667 -97 191 -97 295v9
c0 133.333 47.667 250 143 350c89.333 87.333 193.666 131 312.999 131zM221.003 578l597.999 0.000976562c-28 87.333 -75 151.666 -141 192.999c-49.333 31.333 -102.666 47 -159.999 47c-97.333 0 -180.333 -45.333 -249 -136c-21.333 -31.333 -37.333 -66 -48 -104z" />
    <glyph glyph-name="eacute" unicode="&#xe9;" horiz-adv-x="1054" 
d="M722 1292l-329 -204l-74 119l330 203zM523 959c137.333 0 255.003 -60.667 353.003 -182c64.667 -95.333 97 -188.333 97 -279v-12c0 -30.667 -2 -46 -6 -46h-759c0 -32 13.333 -77 40 -135c40 -74.667 97.667 -126.667 173 -156c36.667 -12 69.667 -18 99 -18
c91.333 0 170.333 39.667 237 119c23.333 32 38.666 57.667 45.999 77h2c54 -21.333 96.333 -39.333 127 -54c-14.667 -42 -47.334 -91 -98.001 -147c-92 -90 -196.333 -135 -313 -135c-139.333 0 -258.333 61 -357 183c-64.667 92.667 -97 191 -97 295v9
c0 133.333 47.667 250 143 350c89.333 87.333 193.666 131 312.999 131zM221.003 578l597.999 0.000976562c-28 87.333 -75 151.666 -141 192.999c-49.333 31.333 -102.666 47 -159.999 47c-97.333 0 -180.333 -45.333 -249 -136c-21.333 -31.333 -37.333 -66 -48 -104z" />
    <glyph glyph-name="ecircumflex" unicode="&#xea;" horiz-adv-x="1054" 
d="M476 1422h89c2 -1.33301 36.333 -41.666 103 -120.999l103 -123l-106 -90c-2 1.33301 -18.333 20.666 -49 57.999c-62 72.667 -93.667 110 -95 112l-144 -170h-1l-106 90v1zM523 959c137.333 0 255.003 -60.667 353.003 -182c64.667 -95.333 97 -188.333 97 -279v-12
c0 -30.667 -2 -46 -6 -46h-759c0 -32 13.333 -77 40 -135c40 -74.667 97.667 -126.667 173 -156c36.667 -12 69.667 -18 99 -18c91.333 0 170.333 39.667 237 119c23.333 32 38.666 57.667 45.999 77h2c54 -21.333 96.333 -39.333 127 -54
c-14.667 -42 -47.334 -91 -98.001 -147c-92 -90 -196.333 -135 -313 -135c-139.333 0 -258.333 61 -357 183c-64.667 92.667 -97 191 -97 295v9c0 133.333 47.667 250 143 350c89.333 87.333 193.666 131 312.999 131zM221.003 578l597.999 0.000976562
c-28 87.333 -75 151.666 -141 192.999c-49.333 31.333 -102.666 47 -159.999 47c-97.333 0 -180.333 -45.333 -249 -136c-21.333 -31.333 -37.333 -66 -48 -104z" />
    <glyph glyph-name="edieresis" unicode="&#xeb;" horiz-adv-x="1054" 
d="M350 1319c28.667 0 53.667 -11.333 75 -34c16.667 -20 25 -40.667 25 -62v-7c0 -26 -11 -49.667 -33 -71c-20 -17.333 -42.333 -26 -67 -26h-1c-34 0 -62 15.333 -84 46c-10 18 -15 34.667 -15 50v8c0 26 11 49.667 33 71c20 16.667 42.333 25 67 25zM690 1319
c28.667 0 53.667 -11.333 75 -34c16.667 -20 25 -40.667 25 -62v-7c0 -26 -11 -49.667 -33 -71c-20 -17.333 -42.333 -26 -67 -26h-1c-34 0 -62 15.333 -84 46c-10 18 -15 34.667 -15 50v8c0 26 11 49.667 33 71c20 16.667 42.333 25 67 25zM523 959
c137.333 0 255.003 -60.667 353.003 -182c64.667 -95.333 97 -188.333 97 -279v-12c0 -30.667 -2 -46 -6 -46h-759c0 -32 13.333 -77 40 -135c40 -74.667 97.667 -126.667 173 -156c36.667 -12 69.667 -18 99 -18c91.333 0 170.333 39.667 237 119
c23.333 32 38.666 57.667 45.999 77h2c54 -21.333 96.333 -39.333 127 -54c-14.667 -42 -47.334 -91 -98.001 -147c-92 -90 -196.333 -135 -313 -135c-139.333 0 -258.333 61 -357 183c-64.667 92.667 -97 191 -97 295v9c0 133.333 47.667 250 143 350
c89.333 87.333 193.666 131 312.999 131zM221.003 578l597.999 0.000976562c-28 87.333 -75 151.666 -141 192.999c-49.333 31.333 -102.666 47 -159.999 47c-97.333 0 -180.333 -45.333 -249 -136c-21.333 -31.333 -37.333 -66 -48 -104z" />
    <glyph glyph-name="igrave" unicode="&#xec;" horiz-adv-x="466" 
d="M164 950h138l1 -1v-948l-1 -1h-138l-1 1v948zM104 1410l330 -203l-74 -119l-329 204z" />
    <glyph glyph-name="iacute" unicode="&#xed;" horiz-adv-x="466" 
d="M164 950h138l1 -1v-948l-1 -1h-138l-1 1v948zM434 1292l-329 -204l-74 119l330 203z" />
    <glyph glyph-name="icircumflex" unicode="&#xee;" horiz-adv-x="466" 
d="M164 950h138l1 -1v-948l-1 -1h-138l-1 1v948zM188 1422h89c2 -1.33301 36.333 -41.666 103 -120.999l103 -123l-106 -90c-2 1.33301 -18.333 20.666 -49 57.999c-62 72.667 -93.667 110 -95 112l-144 -170h-1l-106 90v1z" />
    <glyph glyph-name="idieresis" unicode="&#xef;" horiz-adv-x="466" 
d="M164 950h138l1 -1v-948l-1 -1h-138l-1 1v948zM83 1319c28.667 0 53.667 -11.333 75 -34c16.667 -20 25 -40.667 25 -62v-7c0 -26 -11 -49.667 -33 -71c-20 -17.333 -42.333 -26 -67 -26h-1c-34 0 -62 15.333 -84 46c-10 18 -15 34.667 -15 50v8c0 26 11 49.667 33 71
c20 16.667 42.333 25 67 25zM383 1319c28.667 0 53.667 -11.333 75 -34c16.667 -20 25 -40.667 25 -62v-7c0 -26 -11 -49.667 -33 -71c-20 -17.333 -42.333 -26 -67 -26h-1c-34 0 -62 15.333 -84 46c-10 18 -15 34.667 -15 50v8c0 26 11 49.667 33 71
c20 16.667 42.333 25 67 25z" />
    <glyph glyph-name="eth" unicode="&#xf0;" horiz-adv-x="1139" 
 />
    <glyph glyph-name="ntilde" unicode="&#xf1;" horiz-adv-x="1131" 
d="M862 1184c-20.667 -22.667 -41 -39.666 -61 -50.999c-31.333 -16.667 -62 -25 -92 -25c-32.667 0 -80.167 16.167 -142.5 48.5s-109.5 48.5 -141.5 48.5c-26.667 0 -55 -9.33301 -85 -28c-20 -12.667 -42 -33.334 -66 -62.001v154c20.667 23.333 41 40.333 61 51
c31.333 17.333 61.333 26 90 26c34.667 0 83.167 -16.5 145.5 -49.5s108.5 -49.5 138.5 -49.5c27.333 0 56 9.33301 86 28c20 12.667 42.333 33.667 67 63v-154zM563 950.001l16.999 0.000976562c187.333 0 313.333 -71.667 378 -215c16.667 -42.667 25 -87.334 25 -134.001
v-598l-3 -3h-135l-2 3v598c0 98 -50.333 163.333 -151 196c-23.333 8.66699 -69 13 -137 13c-83.333 0 -145.666 -17.333 -186.999 -52c-50 -32.667 -75 -87.667 -75 -165v-590l-3 -3h-134l-3 3v930l3 3h134l3 -3v-93c73.333 73.333 163.333 110 270 110z" />
    <glyph glyph-name="ograve" unicode="&#xf2;" horiz-adv-x="1103" 
d="M423 1410l330 -203l-74 -119l-329 204zM538 957h25.999c102.667 0 200 -39.667 292 -119c104.667 -102 157 -223.333 157 -364c0 -142.667 -55 -266 -165 -370c-90.667 -75.333 -189.667 -113 -297 -113c-115.333 0 -219.666 42.667 -312.999 128
c-98.667 102 -148 218.667 -148 350v12c0 130.667 49 246.667 147 348c94 85.333 194.333 128 301 128zM229.999 475l-0.000976562 -5c0 -94 35.333 -177.333 106 -250c64.667 -59.333 136.334 -89 215.001 -89c100.667 0 186.667 46 258 138c42.667 65.333 64 134 64 206
c0 100.667 -38 187.667 -114 261c-62 54 -129.333 81 -202 81h-15c-79.333 0 -153.333 -34.333 -222 -103c-60 -70 -90 -149.667 -90 -239z" />
    <glyph glyph-name="oacute" unicode="&#xf3;" horiz-adv-x="1103" 
d="M731 1292l-329 -204l-74 119l330 203zM538 957h25.999c102.667 0 200 -39.667 292 -119c104.667 -102 157 -223.333 157 -364c0 -142.667 -55 -266 -165 -370c-90.667 -75.333 -189.667 -113 -297 -113c-115.333 0 -219.666 42.667 -312.999 128
c-98.667 102 -148 218.667 -148 350v12c0 130.667 49 246.667 147 348c94 85.333 194.333 128 301 128zM229.999 475l-0.000976562 -5c0 -94 35.333 -177.333 106 -250c64.667 -59.333 136.334 -89 215.001 -89c100.667 0 186.667 46 258 138c42.667 65.333 64 134 64 206
c0 100.667 -38 187.667 -114 261c-62 54 -129.333 81 -202 81h-15c-79.333 0 -153.333 -34.333 -222 -103c-60 -70 -90 -149.667 -90 -239z" />
    <glyph glyph-name="ocircumflex" unicode="&#xf4;" horiz-adv-x="1103" 
d="M507 1422h89c2 -1.33301 36.333 -41.666 103 -120.999l103 -123l-106 -90c-2 1.33301 -18.333 20.666 -49 57.999c-62 72.667 -93.667 110 -95 112l-144 -170h-1l-106 90v1zM538 957h25.999c102.667 0 200 -39.667 292 -119c104.667 -102 157 -223.333 157 -364
c0 -142.667 -55 -266 -165 -370c-90.667 -75.333 -189.667 -113 -297 -113c-115.333 0 -219.666 42.667 -312.999 128c-98.667 102 -148 218.667 -148 350v12c0 130.667 49 246.667 147 348c94 85.333 194.333 128 301 128zM229.999 475l-0.000976562 -5
c0 -94 35.333 -177.333 106 -250c64.667 -59.333 136.334 -89 215.001 -89c100.667 0 186.667 46 258 138c42.667 65.333 64 134 64 206c0 100.667 -38 187.667 -114 261c-62 54 -129.333 81 -202 81h-15c-79.333 0 -153.333 -34.333 -222 -103
c-60 -70 -90 -149.667 -90 -239z" />
    <glyph glyph-name="otilde" unicode="&#xf5;" horiz-adv-x="1103" 
d="M846 1184c-20.667 -22.667 -41 -39.666 -61 -50.999c-31.333 -16.667 -62 -25 -92 -25c-32.667 0 -80.167 16.167 -142.5 48.5s-109.5 48.5 -141.5 48.5c-26.667 0 -55 -9.33301 -85 -28c-20 -12.667 -42 -33.334 -66 -62.001v154c20.667 23.333 41 40.333 61 51
c31.333 17.333 61.333 26 90 26c34.667 0 83.167 -16.5 145.5 -49.5s108.5 -49.5 138.5 -49.5c27.333 0 56 9.33301 86 28c20 12.667 42.333 33.667 67 63v-154zM538 957.001h25.999c102.667 0 200 -39.667 292 -119c104.667 -102 157 -223.333 157 -364
c0 -142.667 -55 -266 -165 -370c-90.667 -75.333 -189.667 -113 -297 -113c-115.333 0 -219.666 42.667 -312.999 128c-98.667 102 -148 218.667 -148 350v12c0 130.667 49 246.667 147 348c94 85.333 194.333 128 301 128zM229.999 475.001l-0.000976562 -5
c0 -94 35.333 -177.333 106 -250c64.667 -59.333 136.334 -89 215.001 -89c100.667 0 186.667 46 258 138c42.667 65.333 64 134 64 206c0 100.667 -38 187.667 -114 261c-62 54 -129.333 81 -202 81h-15c-79.333 0 -153.333 -34.333 -222 -103
c-60 -70 -90 -149.667 -90 -239z" />
    <glyph glyph-name="odieresis" unicode="&#xf6;" horiz-adv-x="1103" 
d="M382 1319c28.667 0 53.667 -11.333 75 -34c16.667 -20 25 -40.667 25 -62v-7c0 -26 -11 -49.667 -33 -71c-20 -17.333 -42.333 -26 -67 -26h-1c-34 0 -62 15.333 -84 46c-10 18 -15 34.667 -15 50v8c0 26 11 49.667 33 71c20 16.667 42.333 25 67 25zM722 1319
c28.667 0 53.667 -11.333 75 -34c16.667 -20 25 -40.667 25 -62v-7c0 -26 -11 -49.667 -33 -71c-20 -17.333 -42.333 -26 -67 -26h-1c-34 0 -62 15.333 -84 46c-10 18 -15 34.667 -15 50v8c0 26 11 49.667 33 71c20 16.667 42.333 25 67 25zM538 957h25.999
c102.667 0 200 -39.667 292 -119c104.667 -102 157 -223.333 157 -364c0 -142.667 -55 -266 -165 -370c-90.667 -75.333 -189.667 -113 -297 -113c-115.333 0 -219.666 42.667 -312.999 128c-98.667 102 -148 218.667 -148 350v12c0 130.667 49 246.667 147 348
c94 85.333 194.333 128 301 128zM229.999 475l-0.000976562 -5c0 -94 35.333 -177.333 106 -250c64.667 -59.333 136.334 -89 215.001 -89c100.667 0 186.667 46 258 138c42.667 65.333 64 134 64 206c0 100.667 -38 187.667 -114 261c-62 54 -129.333 81 -202 81h-15
c-79.333 0 -153.333 -34.333 -222 -103c-60 -70 -90 -149.667 -90 -239z" />
    <glyph glyph-name="divide" unicode="&#xf7;" horiz-adv-x="865" 
d="M96 560h673v-140h-673v140zM432 295l2 0.000976562c28.667 0 53.667 -11.667 75 -35c16 -20 24 -40.333 24 -61v-6c0 -28.667 -12.333 -53.667 -37 -75c-18.667 -15.333 -40 -23 -64 -23c-25.333 0 -48.333 9.33301 -69 28c-20 21.333 -30 44 -30 68v8
c0 25.333 11 48.666 33 69.999c19.333 17.333 41.333 26 66 26zM432 885.001l2 0.000976562c28.667 0 53.667 -11.667 75 -35c16 -20 24 -40.333 24 -61v-6c0 -28.667 -12.333 -53.667 -37 -75c-18.667 -15.333 -40 -23 -64 -23c-25.333 0 -48.333 9.33301 -69 28
c-20 21.333 -30 44 -30 68v8c0 25.333 11 48.666 33 69.999c19.333 17.333 41.333 26 66 26z" />
    <glyph glyph-name="oslash" unicode="&#xf8;" horiz-adv-x="1103" 
d="M670 793c-36 16 -73.668 24 -113.001 24h-15c-79.333 0 -153.333 -34.333 -222 -103c-60 -70 -90 -149.667 -90 -239v-5c0 -94 35.333 -177.333 106 -250c0.666992 -0.666992 1.33398 -1 2.00098 -1zM783.999 710l-327 -563.999c30 -10 61.333 -15 94 -15
c100.667 0 186.667 46 258 138c42.667 65.333 64 134 64 206c0 89.333 -29.667 167.666 -89 234.999zM740.999 915.001l76.999 134l1 1l120 -69v-2l-82 -142c104 -102 156 -223 156 -363c0 -142.667 -55 -266 -165 -370c-90.667 -75.333 -189.667 -113 -297 -113
c-58 0 -113 10.667 -165 32l-69 -119h-1l-120 69v1l70 121c-9.33301 7.33301 -18.666 15.333 -27.999 24c-98.667 102 -148 218.667 -148 350v12c0 130.667 49 246.667 147 348c94 85.333 194.333 128 301 128h26c60.667 0 119.667 -14 177 -42z" />
    <glyph glyph-name="ugrave" unicode="&#xf9;" horiz-adv-x="1130" 
d="M435 1410l330 -203l-74 -119l-329 204zM151 950l134 -0.000976562l3 -3v-598c0 -104 56 -170.667 168 -200c22 -6 59.667 -9 113 -9c68 0 119 9 153 27c51.333 24.667 85.666 59 102.999 103c8.66699 30.667 13 60.667 13 90v587l2 3h135l3 -3v-930l-3 -3h-135l-2 3v93
c-73.333 -73.333 -165.666 -110 -276.999 -110c-119.333 0 -212 25.333 -278 76c-90 68.667 -135 158.334 -135 269.001v602z" />
    <glyph glyph-name="uacute" unicode="&#xfa;" horiz-adv-x="1130" 
d="M765 1292l-329 -204l-74 119l330 203zM151 950l134 -0.000976562l3 -3v-598c0 -104 56 -170.667 168 -200c22 -6 59.667 -9 113 -9c68 0 119 9 153 27c51.333 24.667 85.666 59 102.999 103c8.66699 30.667 13 60.667 13 90v587l2 3h135l3 -3v-930l-3 -3h-135l-2 3v93
c-73.333 -73.333 -165.666 -110 -276.999 -110c-119.333 0 -212 25.333 -278 76c-90 68.667 -135 158.334 -135 269.001v602z" />
    <glyph glyph-name="ucircumflex" unicode="&#xfb;" horiz-adv-x="1130" 
d="M519 1422h89c2 -1.33301 36.333 -41.666 103 -120.999l103 -123l-106 -90c-2 1.33301 -18.333 20.666 -49 57.999c-62 72.667 -93.667 110 -95 112l-144 -170h-1l-106 90v1zM151 950l134 -0.000976562l3 -3v-598c0 -104 56 -170.667 168 -200c22 -6 59.667 -9 113 -9
c68 0 119 9 153 27c51.333 24.667 85.666 59 102.999 103c8.66699 30.667 13 60.667 13 90v587l2 3h135l3 -3v-930l-3 -3h-135l-2 3v93c-73.333 -73.333 -165.666 -110 -276.999 -110c-119.333 0 -212 25.333 -278 76c-90 68.667 -135 158.334 -135 269.001v602z" />
    <glyph glyph-name="udieresis" unicode="&#xfc;" horiz-adv-x="1130" 
d="M393 1319c28.667 0 53.667 -11.333 75 -34c16.667 -20 25 -40.667 25 -62v-7c0 -26 -11 -49.667 -33 -71c-20 -17.333 -42.333 -26 -67 -26h-1c-34 0 -62 15.333 -84 46c-10 18 -15 34.667 -15 50v8c0 26 11 49.667 33 71c20 16.667 42.333 25 67 25zM733 1319
c28.667 0 53.667 -11.333 75 -34c16.667 -20 25 -40.667 25 -62v-7c0 -26 -11 -49.667 -33 -71c-20 -17.333 -42.333 -26 -67 -26h-1c-34 0 -62 15.333 -84 46c-10 18 -15 34.667 -15 50v8c0 26 11 49.667 33 71c20 16.667 42.333 25 67 25zM151 950l134 -0.000976562l3 -3
v-598c0 -104 56 -170.667 168 -200c22 -6 59.667 -9 113 -9c68 0 119 9 153 27c51.333 24.667 85.666 59 102.999 103c8.66699 30.667 13 60.667 13 90v587l2 3h135l3 -3v-930l-3 -3h-135l-2 3v93c-73.333 -73.333 -165.666 -110 -276.999 -110
c-119.333 0 -212 25.333 -278 76c-90 68.667 -135 158.334 -135 269.001v602z" />
    <glyph glyph-name="yacute" unicode="&#xfd;" horiz-adv-x="1021" 
d="M711 1292l-329 -204l-74 119l330 203zM191 950c2.66699 0 18 -35 46 -105l272 -648c2.66699 3.33301 41.667 92.333 117 267c137.333 323.333 207 485.333 209 486h151v-1l-532 -1240l-61 -140h-151v1l191 449l-399 930l1 1h156z" />
    <glyph glyph-name="thorn" unicode="&#xfe;" horiz-adv-x="1179" 
d="M301 475l0.00292969 -9.99902c0 -81.333 29.333 -158.666 88 -231.999c59.333 -67.333 132.666 -101 219.999 -101c133.333 0 232.666 61 297.999 183c24.667 51.333 37 102.666 37 153.999v15c0 91.333 -35.333 173.333 -106 246c-62.667 58.667 -134 88 -214 88
c-144.667 0 -244.334 -69.667 -299.001 -209c-16 -42.667 -24 -87.334 -24 -134.001zM293.003 -399.999h-138.999l-1 1v1862l1 1h138l1 -1v-670c74 111.333 182.667 167 326 167l1 -2h2l1 2c115.333 0 219.666 -43 312.999 -129c48.667 -50.667 82.667 -98 102 -142
c30.667 -70 46 -137.333 46 -202v-22c0 -122.667 -46.333 -235 -139 -337c-94.667 -91.333 -206 -137 -334 -137c-131.333 0 -236 54 -314 162l-3 5h-1v-558z" />
    <glyph glyph-name="ydieresis" unicode="&#xff;" horiz-adv-x="1021" 
d="M340 1319c28.667 0 53.667 -11.333 75 -34c16.667 -20 25 -40.667 25 -62v-7c0 -26 -11 -49.667 -33 -71c-20 -17.333 -42.333 -26 -67 -26h-1c-34 0 -62 15.333 -84 46c-10 18 -15 34.667 -15 50v8c0 26 11 49.667 33 71c20 16.667 42.333 25 67 25zM680 1319
c28.667 0 53.667 -11.333 75 -34c16.667 -20 25 -40.667 25 -62v-7c0 -26 -11 -49.667 -33 -71c-20 -17.333 -42.333 -26 -67 -26h-1c-34 0 -62 15.333 -84 46c-10 18 -15 34.667 -15 50v8c0 26 11 49.667 33 71c20 16.667 42.333 25 67 25zM191 950
c2.66699 0 18 -35 46 -105l272 -648c2.66699 3.33301 41.667 92.333 117 267c137.333 323.333 207 485.333 209 486h151v-1l-532 -1240l-61 -140h-151v1l191 449l-399 930l1 1h156z" />
    <glyph glyph-name="dotlessi" unicode="&#x131;" horiz-adv-x="514" 
 />
    <glyph glyph-name="circumflex" unicode="&#x2c6;" horiz-adv-x="985" 
d="M448 1936h89c2 -1.33301 36.333 -41.666 103 -120.999l103 -123l-106 -90c-2 1.33301 -18.333 20.666 -49 57.999c-62 72.667 -93.667 110 -95 112l-144 -170h-1l-106 90v1z" />
    <glyph glyph-name="caron" unicode="&#x2c7;" horiz-adv-x="753" 
d="M242 1845v1l106 90h1l144 -170c1.33301 2 33 39.333 95 112c30.667 37.333 47 56.666 49 57.999l106 -90l-103 -123c-66.667 -79.333 -101 -119.666 -103 -120.999h-89z" />
    <glyph glyph-name="uni02C9" unicode="&#x2c9;" horiz-adv-x="1000" 
d="M242 1678v125h516v-125h-516z" />
    <glyph glyph-name="breve" unicode="&#x2d8;" horiz-adv-x="650" 
 />
    <glyph glyph-name="dotaccent" unicode="&#x2d9;" horiz-adv-x="684" 
d="M341 1769l2 0.000976562c28.667 0 53.667 -11.667 75 -35c16 -20 24 -40.333 24 -61v-6c0 -28.667 -12.333 -53.667 -37 -75c-18.667 -15.333 -40 -23 -64 -23c-25.333 0 -48.333 9.33301 -69 28c-20 21.333 -30 44 -30 68v8c0 25.333 11 48.666 33 69.999
c19.333 17.333 41.333 26 66 26z" />
    <glyph glyph-name="ring" unicode="&#x2da;" horiz-adv-x="807" 
d="M343 1609l0.00195312 -1c0 -18.667 8 -34.667 24 -48c11.333 -8.66699 23.333 -13 36 -13c19.333 0 35.666 8 48.999 24c8 12 12 24.333 12 37v2c0 15.333 -5.66699 29 -17 41c-12.667 12 -27.334 18 -44.001 18c-16 0 -30 -5.66699 -42 -17c-12 -12.667 -18 -27 -18 -43
zM402.002 1769h2c38 0 73 -13 105 -39c12 -12 19.667 -20.333 23 -25c22 -30 33 -62.333 33 -97c0 -43.333 -16.333 -81.666 -49 -114.999l-8 -9c-31.333 -24.667 -66.333 -37 -105 -37c-38 0 -72.667 12.333 -104 37c-9.33301 8.66699 -16 16 -20 22
c-8.66699 10.667 -15.334 20 -20.001 28c-11.333 24 -17 47 -17 69v9c0 31.333 10.333 61.666 31 90.999c4 6 11.333 14.333 22 25c32.667 27.333 68.334 41 107.001 41z" />
    <glyph glyph-name="ogonek" unicode="&#x2db;" horiz-adv-x="1024" 
 />
    <glyph glyph-name="tilde" unicode="&#x2dc;" horiz-adv-x="1071" 
d="M829 1698c-20.667 -22.667 -41 -39.666 -61 -50.999c-31.333 -16.667 -62 -25 -92 -25c-32.667 0 -80 16.167 -142 48.5s-109 48.5 -141 48.5c-26.667 0 -55 -9.33301 -85 -28c-20 -12.667 -42 -33.334 -66 -62.001v154c20.667 23.333 41 40.333 61 51
c31.333 17.333 61.333 26 90 26c34.667 0 83 -16.5 145 -49.5s108 -49.5 138 -49.5c27.333 0 56 9.33301 86 28c20 12.667 42.333 33.667 67 63v-154z" />
    <glyph glyph-name="hungarumlaut" unicode="&#x2dd;" horiz-adv-x="859" 
 />
    <glyph glyph-name="endash" unicode="&#x2013;" horiz-adv-x="990" 
d="M70 449v120h850v-120h-850z" />
    <glyph glyph-name="emdash" unicode="&#x2014;" horiz-adv-x="1350" 
d="M100 539h1150v-140h-1150v140z" />
    <glyph glyph-name="quoteleft" unicode="&#x2018;" horiz-adv-x="530" 
d="M228 1244c-32.667 0 -59.667 14.335 -81 43.002c-12 19.333 -18 44 -18 74c0 81.333 48.667 165.666 146 252.999c26.667 23.333 44 37.333 52 42l40 -52c-67.333 -62.667 -101 -118.667 -101 -168c24 -10 41.333 -26 52 -48c8 -13.333 12 -28.333 12 -45
c0 -32.667 -15 -60.334 -45 -83.001c-16.667 -10.667 -35.667 -16 -57 -16z" />
    <glyph glyph-name="quoteright" unicode="&#x2019;" horiz-adv-x="530" 
d="M302 1656c32.667 0 59.667 -14.668 81 -44.001c12 -18.667 18 -43 18 -73c0 -82 -48.667 -166.333 -146 -253c-26.667 -24 -44 -38 -52 -42l-40 52c67.333 62.667 101 118.334 101 167.001c-24 10 -41.333 26.333 -52 49c-8 13.333 -12 28.333 -12 45
c0 32.667 15 60 45 82c16.667 11.333 35.667 17 57 17z" />
    <glyph glyph-name="quotesinglbase" unicode="&#x201a;" horiz-adv-x="494" 
d="M222 193c32.667 0 59.667 -14.668 81 -44.001c12 -18.667 18 -43 18 -73c0 -82 -48.667 -166.333 -146 -253c-26.667 -24 -44 -38 -52 -42l-40 52c67.333 62.667 101 118.334 101 167.001c-24 10 -41.333 26.333 -52 49c-8 13.333 -12 28.333 -12 45
c0 32.667 15 60 45 82c16.667 11.333 35.667 17 57 17z" />
    <glyph glyph-name="quotedblleft" unicode="&#x201c;" horiz-adv-x="922" 
d="M258 1244c-32.667 0 -59.667 14.335 -81 43.002c-12 19.333 -18 44 -18 74c0 81.333 48.667 165.666 146 252.999c26.667 23.333 44 37.333 52 42l40 -52c-67.333 -62.667 -101 -118.667 -101 -168c24 -10 41.333 -26 52 -48c8 -13.333 12 -28.333 12 -45
c0 -32.667 -15 -60.334 -45 -83.001c-16.667 -10.667 -35.667 -16 -57 -16zM548 1244c-32.667 0 -59.667 14.335 -81 43.002c-12 19.333 -18 44 -18 74c0 81.333 48.667 165.666 146 252.999c26.667 23.333 44 37.333 52 42l40 -52c-67.333 -62.667 -101 -118.667 -101 -168
c24 -10 41.333 -26 52 -48c8 -13.333 12 -28.333 12 -45c0 -32.667 -15 -60.334 -45 -83.001c-16.667 -10.667 -35.667 -16 -57 -16z" />
    <glyph glyph-name="quotedblright" unicode="&#x201d;" horiz-adv-x="922" 
d="M664 1656c32.667 0 59.667 -14.668 81 -44.001c12 -18.667 18 -43 18 -73c0 -82 -48.667 -166.333 -146 -253c-26.667 -24 -44 -38 -52 -42l-40 52c67.333 62.667 101 118.334 101 167.001c-24 10 -41.333 26.333 -52 49c-8 13.333 -12 28.333 -12 45
c0 32.667 15 60 45 82c16.667 11.333 35.667 17 57 17zM374 1656c32.667 0 59.667 -14.668 81 -44.001c12 -18.667 18 -43 18 -73c0 -82 -48.667 -166.333 -146 -253c-26.667 -24 -44 -38 -52 -42l-40 52c67.333 62.667 101 118.334 101 167.001
c-24 10 -41.333 26.333 -52 49c-8 13.333 -12 28.333 -12 45c0 32.667 15 60 45 82c16.667 11.333 35.667 17 57 17z" />
    <glyph glyph-name="quotedblbase" unicode="&#x201e;" horiz-adv-x="784" 
d="M512 193c32.667 0 59.667 -14.668 81 -44.001c12 -18.667 18 -43 18 -73c0 -82 -48.667 -166.333 -146 -253c-26.667 -24 -44 -38 -52 -42l-40 52c67.333 62.667 101 118.334 101 167.001c-24 10 -41.333 26.333 -52 49c-8 13.333 -12 28.333 -12 45
c0 32.667 15 60 45 82c16.667 11.333 35.667 17 57 17zM222 192.999c32.667 0 59.667 -14.668 81 -44.001c12 -18.667 18 -43 18 -73c0 -82 -48.667 -166.333 -146 -253c-26.667 -24 -44 -38 -52 -42l-40 52c67.333 62.667 101 118.334 101 167.001
c-24 10 -41.333 26.333 -52 49c-8 13.333 -12 28.333 -12 45c0 32.667 15 60 45 82c16.667 11.333 35.667 17 57 17z" />
    <glyph glyph-name="dagger" unicode="&#x2020;" horiz-adv-x="885" 
d="M374 670h-255v140h255v255h140v-255h255v-140h-255v-670h-140v670z" />
    <glyph glyph-name="daggerdbl" unicode="&#x2021;" horiz-adv-x="885" 
d="M374 670h-255v140h255v255h140v-255h255v-140h-255v-275h255v-140h-255v-255h-140v255h-255v140h255v275z" />
    <glyph glyph-name="bullet" unicode="&#x2022;" horiz-adv-x="898" 
d="M300 952v-2c0 -44 19.333 -80.333 58 -109c24 -16 49.667 -24 77 -24c42 0 77.667 17.333 107 52c17.333 26 26 53 26 81c0 44 -18.667 81 -56 111c-24 16 -49.667 24 -77 24h-2c-40 0 -74.667 -17.333 -104 -52c-19.333 -25.333 -29 -52.333 -29 -81z" />
    <glyph glyph-name="ellipsis" unicode="&#x2026;" horiz-adv-x="1200" 
d="M199 200l2 0.000976562c28.667 0 53.667 -11.667 75 -35c16 -20 24 -40.333 24 -61v-6c0 -28.667 -12.333 -53.667 -37 -75c-18.667 -15.333 -40 -23 -64 -23c-25.333 0 -48.333 9.33301 -69 28c-20 21.333 -30 44 -30 68v8c0 25.333 11 48.666 33 69.999
c19.333 17.333 41.333 26 66 26zM999 200.001l2 0.000976562c28.667 0 53.667 -11.667 75 -35c16 -20 24 -40.333 24 -61v-6c0 -28.667 -12.333 -53.667 -37 -75c-18.667 -15.333 -40 -23 -64 -23c-25.333 0 -48.333 9.33301 -69 28c-20 21.333 -30 44 -30 68v8
c0 25.333 11 48.666 33 69.999c19.333 17.333 41.333 26 66 26zM599 200.002l2 0.000976562c28.667 0 53.667 -11.667 75 -35c16 -20 24 -40.333 24 -61v-6c0 -28.667 -12.333 -53.667 -37 -75c-18.667 -15.333 -40 -23 -64 -23c-25.333 0 -48.333 9.33301 -69 28
c-20 21.333 -30 44 -30 68v8c0 25.333 11 48.666 33 69.999c19.333 17.333 41.333 26 66 26z" />
    <glyph glyph-name="guilsinglleft" unicode="&#x2039;" horiz-adv-x="636" 
d="M69 417v107l278 182l111 73c51.333 -76.667 77 -115.667 77 -117l-292 -192c186.667 -122 284 -186 292 -192l-76 -116c-1.33301 0 -16 9.33301 -44 28l-223 146z" />
    <glyph glyph-name="guilsinglright" unicode="&#x203a;" horiz-adv-x="636" 
d="M567 524v-107l-278 -182l-111 -73c-51.333 76.667 -77 115.667 -77 117l292 192c-186.667 122 -284 186 -292 192l76 116c1.33301 0 16 -9.33301 44 -28l223 -146z" />
    <glyph glyph-name="fraction" unicode="&#x2044;" horiz-adv-x="258" 
d="M470 1374h138v-1l-768 -1423h-140l768 1423z" />
    <glyph glyph-name="fraction" unicode="&#x2215;" horiz-adv-x="258" 
d="M470 1374h138v-1l-768 -1423h-140l768 1423z" />
    <glyph glyph-name="franc" unicode="&#x20a3;" horiz-adv-x="967" 
d="M334 361v-360l-1 -1h-138l-1 1v360h-114v140h114v962l1 1h726l1 -1v-138l-1 -1h-587v-522h494l1 -1v-138l-1 -1h-494v-161h221v-140h-221z" />
    <glyph glyph-name="lira" unicode="&#x20a4;" horiz-adv-x="1215" 
d="M666 1396c80 0 156.001 -22.999 228.001 -68.999c14 -9.33301 30.333 -22.666 49 -39.999l3 -3v-1l-99 -98c-26 24 -53 41 -81 51c-34 13.333 -67 20 -99 20c-64.667 0 -125.667 -25 -183 -75c-34.667 -33.333 -52 -77 -52 -131v-2c0 -49.333 14 -103.333 42 -162h374
l1 -1v-138l-1 -1h-312v-1c6 -17.333 11 -37.333 15 -60c0 -2.66699 0.333008 -4 1 -4h296l1 -1v-139h-303c-0.666992 0 -2.33398 -5.33301 -5.00098 -16c-8 -26 -17.333 -50 -28 -72c-15.333 -30.667 -35.333 -64 -60 -100c-17.333 -24 -38.333 -50.333 -63 -79h10
c90.667 0 167.334 -31 230.001 -93c52.667 -44 104 -66 154 -66c70 0 146.333 43.667 229 131h1l101 -97c-108.667 -116 -219.667 -174 -333 -174c-85.333 0 -168.333 35 -249 105c-23.333 21.333 -42 34.333 -56 39c-22.667 10 -48 15 -76 15
c-66.667 0 -144.667 -27 -234 -81l-27 -18l-87 109l105 94c54 50.667 90.333 87 109 109c37.333 42 64.333 76 81 102c21.333 31.333 36.333 57.666 45 78.999l5 13h-212v139l1 1h222c0 4.66699 -7 24 -21 58c-2 3.33301 -3 5.66602 -3 6.99902h-198l-1 1v138l1 1h135
c-20 56 -30 108 -30 156v13c0 64 17.333 123 52 177c7.33301 12 21.666 29 42.999 51c85.333 75.333 178.333 113 279 113z" />
    <glyph glyph-name="peseta" unicode="&#x20a7;" horiz-adv-x="2624" 
d="M1371 1464l139 -0.00195312l1 -1v-513h258l1 -1v-139l-1 -1h-258v-549c0 -27.333 7 -52.666 21 -75.999c14 -18.667 33 -31.667 57 -39c10.667 -3.33301 20 -5 28 -5h6c24.667 0 59.334 8.66699 104.001 26l12 6c34 -74.667 53 -117.334 57 -128.001
c-9.33301 -5.33301 -28.333 -13 -57 -23c-46.667 -14 -83.334 -21 -110.001 -21h-17c-35.333 0 -72.666 10.333 -111.999 31c-52.667 28.667 -89.334 70.334 -110.001 125.001c-12.667 34.667 -19 72.334 -19 113.001v540h-157l-1 1v139l1 1h157v514zM2213 964.998
l13.999 -0.00195312c68 0 132.667 -16.333 194 -49c20 -10 41.333 -24.333 64 -43c20.667 -18 37 -34.667 49 -50c10 -13.333 15 -21 15 -23c-60.667 -34.667 -100.667 -58.334 -120 -71.001h-1c-12 18 -30 35.333 -54 52c-43.333 29.333 -95 44 -155 44
c-70 0 -127 -17.333 -171 -52c-30 -26.667 -45 -56 -45 -88c0 -24 9.66699 -42.333 29 -55c7.33301 -6.66699 17.666 -13 30.999 -19c29.333 -15.333 79.333 -31.333 150 -48l127 -25c32.667 -8 60 -17.333 82 -28c20 -9.33301 40.333 -21.666 61 -36.999
c6 -4 18.333 -15.667 37 -35c40 -47.333 60 -98.666 60 -153.999v-6c0 -59.333 -21.667 -115.333 -65 -168c-17.333 -18.667 -31 -31.667 -41 -39c-21.333 -15.333 -40.666 -27.333 -57.999 -36c-64 -30 -129.667 -45 -197 -45h-13c-74 0 -145 18 -213 54
c-65.333 37.333 -116 88.333 -152 153c0.666992 1.33301 20 12.333 58 33l64 35c30.667 -53.333 75.334 -91.666 134.001 -114.999c36.667 -13.333 75.334 -20 116 -20c58.667 0 111.334 13.667 158 41c9.33301 4.66699 21.333 14 36 28c22 26 33 53.333 33 82
c0 44 -27.667 79 -83 105c-13.333 6 -32.666 12 -58 18c-106.667 18.667 -190.334 39 -251 61c-123.333 45.333 -185 118.333 -185 219v3c0 60.667 23 116.667 69 168c22 22 37.333 35.333 46 40c29.333 21.333 64 38 104 50c44 13.333 87.667 20 131 20zM174.999 1464h459
c140.667 0 262.667 -56 366 -168c74.667 -94 112 -194.667 112 -302v-15c0 -122 -46.333 -231.667 -139 -329c-98.667 -94 -211 -141 -337 -141h-324v-506l-3 -3h-134l-3 3v1458zM311.999 1324l-0.000976562 -673.999h322c110 0 202.333 47 277 141
c40.667 61.333 61 124.666 61 189.999v12c0 101.333 -43.667 188 -131 260c-63.333 47.333 -132.666 71 -207.999 71h-321z" />
    <glyph glyph-name="Euro" unicode="&#x20ac;" horiz-adv-x="1353" 
d="M800 1339l8.99805 0.00292969c118.667 0 232.667 -32 342 -96c25.333 -15.333 53.666 -36 84.999 -62c9.33301 -8 15 -13 17 -15l-94 -104c-51.333 46.667 -109.333 81.667 -174 105c-58.667 21.333 -119 32 -181 32c-119.333 0 -228.666 -38 -327.999 -114
c-13.333 -10.667 -31.333 -27.334 -54 -50.001c-32.667 -36 -56.667 -67.667 -72 -95c-12.667 -21.333 -25.334 -47.333 -38.001 -78l-7 -21h863l1 -1v-139l-1 -1h-890v-1l-1 -26v-3c0 -23.333 1.66699 -45.666 5 -66.999h886l1 -1v-138l-1 -1h-848
c54 -121.333 141 -211 261 -269c72 -32.667 146.333 -49 223 -49c105.333 0 203.333 29.667 294 89c17.333 12 37.333 27.667 60 47l1 1l94 -103v-1c-30 -26.667 -57.667 -48.334 -83 -65.001c-113.333 -72 -234.666 -108 -363.999 -108h-4
c-119.333 0 -232.666 31.333 -339.999 94c-22.667 13.333 -46.667 30 -72 50c-14 10 -36 30 -66 60c-32 34 -54.333 61 -67 81c-22 31.333 -41.667 65.666 -59 102.999c-10 22 -19 45.333 -27 70h-117l-1 1v138l1 1h87c-2.66699 21.333 -4 41.333 -4 60v27l1 10h-84l-1 1
v139l1 1h105c10.667 40.667 22.667 75.667 36 105c14.667 31.333 33.667 65 57 101c14 21.333 33.333 46 58 74c28.667 29.333 48 48 58 56c35.333 29.333 64.333 50.666 87 63.999c32.667 20 71 38.667 115 56c76.667 28 153.334 42 230.001 42z" />
    <glyph glyph-name="afii61352" unicode="&#x2116;" horiz-adv-x="2391" 
d="M1490 140h700v-140h-700v140zM175 1464h172.001c5.33301 -5.33301 183.666 -296 534.999 -872l226 -371h2v1240l2 3h135l3 -3v-1458l-3 -3h-165c-9.33301 10.667 -34.333 50.667 -75 120c-2.66699 3.33301 -181 295 -535 875l-153 248v-1240l-3 -3h-141l-3 3v1458z
M1826 1229h25.999c102.667 0 200 -39.667 292 -119c104.667 -102 157 -223.333 157 -364c0 -142.667 -55 -266 -165 -370c-90.667 -75.333 -189.667 -113 -297 -113c-115.333 0 -219.666 42.667 -312.999 128c-98.667 102 -148 218.667 -148 350v12
c0 130.667 49 246.667 147 348c94 85.333 194.333 128 301 128zM1518 747l-0.000976562 -5c0 -94 35.333 -177.333 106 -250c64.667 -59.333 136.334 -89 215.001 -89c100.667 0 186.667 46 258 138c42.667 65.333 64 134 64 206c0 100.667 -38 187.667 -114 261
c-62 54 -129.333 81 -202 81h-15c-79.333 0 -153.333 -34.333 -222 -103c-60 -70 -90 -149.667 -90 -239z" />
    <glyph glyph-name="trademark" unicode="&#x2122;" horiz-adv-x="2439" 
d="M1040 300l0.000976562 1164h175c0.666992 -1.33301 39 -70 115 -206l211 -379l112 -202c2.66699 3.33301 18.667 32 48 86l219 392c0.666992 0 50 89 148 267l25 42h173l1 -1v-1163h-147v925l-210 -378l-196 -349c-0.666992 -3.33301 -1.33398 -5 -2.00098 -5h-116
c-2 2 -13.333 22 -34 60l-223 400l-151 272h-1v-925h-147zM408.001 300v1024h-392l-1 1v138l1 1h923l1 -1v-138l-1 -1h-391v-1024h-140z" />
    <glyph glyph-name="partialdiff" unicode="&#x2202;" horiz-adv-x="1014" 
 />
    <glyph glyph-name="Delta" unicode="&#x2206;" horiz-adv-x="1081" 
 />
    <glyph glyph-name="product" unicode="&#x220f;" horiz-adv-x="1515" 
 />
    <glyph glyph-name="summation" unicode="&#x2211;" horiz-adv-x="1206" 
 />
    <glyph glyph-name="minus" unicode="&#x2212;" horiz-adv-x="807" 
d="M76 680h650v-140h-650v140z" />
    <glyph glyph-name="radical" unicode="&#x221a;" horiz-adv-x="1014" 
 />
    <glyph glyph-name="infinity" unicode="&#x221e;" horiz-adv-x="1014" 
 />
    <glyph glyph-name="integral" unicode="&#x222b;" horiz-adv-x="665" 
 />
    <glyph glyph-name="approxequal" unicode="&#x2248;" horiz-adv-x="705" 
d="M648 611c-20.667 -22.667 -40.999 -39.666 -60.999 -50.999c-31.333 -16.667 -62 -25 -92 -25c-32 0 -79.167 16.167 -141.5 48.5s-109.5 48.5 -141.5 48.5c-26.667 0 -55 -9.33301 -85 -28c-20 -12.667 -42 -33.334 -66 -62.001v154c20.667 23.333 41 40.333 61 51
c31.333 17.333 61.333 26 90 26c34.667 0 83.167 -16.5 145.5 -49.5s108.166 -49.5 137.499 -49.5c27.333 0 56 9.33301 86 28c20 12.667 42.333 33.667 67 63v-154zM648.001 351.001c-20.667 -22.667 -40.999 -39.666 -60.999 -50.999c-31.333 -16.667 -62 -25 -92 -25
c-32 0 -79.167 16.167 -141.5 48.5s-109.5 48.5 -141.5 48.5c-26.667 0 -55 -9.33301 -85 -28c-20 -12.667 -42 -33.334 -66 -62.001v154c20.667 23.333 41 40.333 61 51c31.333 17.333 61.333 26 90 26c34.667 0 83.167 -16.5 145.5 -49.5s108.166 -49.5 137.499 -49.5
c27.333 0 56 9.33301 86 28c20 12.667 42.333 33.667 67 63v-154z" />
    <glyph glyph-name="lessequal" unicode="&#x2264;" horiz-adv-x="871" 
d="M607 1281l89 -109l-349 -284l-115 -95l115 -93l349 -286l-89 -108l-342 279l-180 148v121c3.33301 3.33301 85 70 245 200zM85 140h700v-140h-700v140z" />
    <glyph glyph-name="greaterequal" unicode="&#x2265;" horiz-adv-x="871" 
d="M541 1054c160 -130 241.667 -196.667 245 -200v-121l-180 -148l-342 -279l-89 108l349 286l115 93l-115 95l-349 284l89 109zM786 0h-700v140h700v-140z" />
    <glyph glyph-name="fi" unicode="&#xf002;" horiz-adv-x="1008" 
d="M563 1464h28.999l1 -1v-138l-1 -1h-22c-83.333 0 -146.333 -43 -189 -129c-28.667 -60.667 -43 -140 -43 -238v-7h254l1 -1v-138l-1 -1h-254v-809l-1 -1h-138l-1 1v809h-170l-1 1v138l1 1h170v19c0 148 33.333 267.667 100 359c7.33301 10.667 20.333 25 39 43
c22.667 21.333 42.334 36.666 59.001 45.999c18 10.667 36.667 19.334 56 26.001c38 14 75 21 111 21zM705.999 950h138l1 -1v-948l-1 -1h-138l-1 1v948zM770.999 1464l7.99805 0.00195312c24.667 0 48 -10.667 70 -32c17.333 -20.667 26 -42.334 26 -65.001v-5
c0 -28.667 -12 -53.667 -36 -75c-19.333 -15.333 -39.666 -23 -60.999 -23h-6c-29.333 0 -54.666 13 -75.999 39c-14 18.667 -21 37.667 -21 57v8c0 25.333 10.667 48.666 32 69.999c20.667 17.333 42 26 64 26z" />
    <glyph glyph-name="fi" unicode="&#xfb02;" horiz-adv-x="1008" 
d="M563 1464h28.999l1 -1v-138l-1 -1h-22c-83.333 0 -146.333 -43 -189 -129c-28.667 -60.667 -43 -140 -43 -238v-7h254l1 -1v-138l-1 -1h-254v-809l-1 -1h-138l-1 1v809h-170l-1 1v138l1 1h170v19c0 148 33.333 267.667 100 359c7.33301 10.667 20.333 25 39 43
c22.667 21.333 42.334 36.666 59.001 45.999c18 10.667 36.667 19.334 56 26.001c38 14 75 21 111 21zM705.999 950h138l1 -1v-948l-1 -1h-138l-1 1v948zM770.999 1464l7.99805 0.00195312c24.667 0 48 -10.667 70 -32c17.333 -20.667 26 -42.334 26 -65.001v-5
c0 -28.667 -12 -53.667 -36 -75c-19.333 -15.333 -39.666 -23 -60.999 -23h-6c-29.333 0 -54.666 13 -75.999 39c-14 18.667 -21 37.667 -21 57v8c0 25.333 10.667 48.666 32 69.999c20.667 17.333 42 26 64 26z" />
    <glyph glyph-name=".null" horiz-adv-x="0" 
 />
    <glyph glyph-name="nonmarkingreturn" horiz-adv-x="508" 
 />
    <glyph glyph-name="fl" horiz-adv-x="997" 
d="M563 1464h28.999l1 -1v-138l-1 -1h-22c-83.333 0 -146.333 -43 -189 -129c-28.667 -60.667 -43 -140 -43 -238v-7h254l1 -1v-138l-1 -1h-254v-809l-1 -1h-138l-1 1v809h-170l-1 1v138l1 1h170v19c0 148 33.333 267.667 100 359c7.33301 10.667 20.333 25 39 43
c22.667 21.333 42.334 36.666 59.001 45.999c18 10.667 36.667 19.334 56 26.001c38 14 75 21 111 21zM705.999 1464h138l1 -2v-1460l-1 -2h-138l-1 2v1460z" />
    <glyph glyph-name="oe" horiz-adv-x="1894" 
d="M230 475l-0.000976562 -5c0 -94 35.333 -177.333 106 -250c64.667 -59.333 136.334 -89 215.001 -89c100.667 0 186.667 46 258 138c42.667 65.333 64 134 64 206c0 100.667 -38 187.667 -114 261c-62 54 -129.333 81 -202 81h-15c-79.333 0 -153.333 -34.333 -222 -103
c-60 -70 -90 -149.667 -90 -239zM1062 578l598 0.000976562c-28 87.333 -75.333 151.666 -142 192.999c-48.667 31.333 -101.667 47 -159 47c-97.333 0 -180.333 -45.333 -249 -136c-21.333 -31.333 -37.333 -66 -48 -104zM958.999 249.001
c-26.667 -52 -63.6641 -100.332 -110.997 -144.999c-90.667 -75.333 -189.667 -113 -297 -113c-115.333 0 -219.666 42.667 -312.999 128c-98.667 102 -148 218.667 -148 350v12c0 130.667 49 246.667 147 348c94 85.333 194.333 128 301 128h26
c102.667 0 200 -39.667 292 -119c43.333 -42 77.666 -87.667 102.999 -137c22.667 45.333 53 87.666 91 126.999c89.333 87.333 193.666 131 312.999 131c137.333 0 255 -60.667 353 -182c64.667 -95.333 97 -188.333 97 -279v-12c0 -30.667 -2 -46 -6 -46h-759
c0 -32 13.333 -77 40 -135c40 -74.667 97.667 -126.667 173 -156c36.667 -12 69.667 -18 99 -18c91.333 0 170.333 39.667 237 119c23.333 32 38.666 57.667 45.999 77h2c54 -21.333 96.333 -39.333 127 -54c-14.667 -42 -47.334 -91 -98.001 -147
c-92 -90 -196.333 -135 -313 -135c-139.333 0 -258.333 61 -357 183c-17.333 24.667 -32.333 49.667 -45 75z" />
    <glyph glyph-name="OE" horiz-adv-x="1929" 
d="M1092 1379v84l1 1h727l1 -1v-138l-1 -1h-588v-522h470l1 -1v-138l-1 -1h-470v-522h588l1 -1v-138l-1 -1h-727l-1 1v84c-97.333 -56.667 -203 -85 -317 -85c-170.667 0 -323.667 64.667 -459 194c-60 65.333 -96.667 113 -110 143
c-71.333 121.333 -107 250.666 -107 387.999v14c0 178 59 340.667 177 488c47.333 50.667 81.333 83.334 102 98.001c122.667 92.667 254.334 139 395.001 139h6c111.333 0 215.666 -28.333 312.999 -85zM1092 255v955c-95.333 76 -201 114 -317 114
c-151.333 0 -283.333 -64.333 -396 -193c-93.333 -118 -140 -249.333 -140 -394v-10c0 -162 57.667 -305.667 173 -431c107.333 -104 229 -156 365 -156c117.333 0 222.333 38.333 315 115z" />
  </font>
</defs>
</svg>
