<?xml version="1.0" standalone="no"?>
<!DOCTYPE svg PUBLIC "-//W3C//DTD SVG 1.1//EN" "http://www.w3.org/Graphics/SVG/1.1/DTD/svg11.dtd" >
<svg>
<metadata>
Created by FontForge 20090914 at Tue Jul 21 10:00:55 2020
 By www-data
Copyright (c) 2017 by Alexander Pravdin. All rights reserved.
</metadata>
<defs>
<font id="NEXTART-Light" horiz-adv-x="1143" >
  <font-face 
    font-family="NEXT ART"
    font-weight="300"
    font-stretch="normal"
    units-per-em="2048"
    panose-1="2 0 8 3 3 0 0 2 0 4"
    ascent="1638"
    descent="-410"
    x-height="1433"
    cap-height="1434"
    bbox="1 -297.005 2084 1890"
    underline-thickness="50"
    underline-position="-100"
    unicode-range="U+0020-U+0451"
  />
<missing-glyph horiz-adv-x="1077" 
d="M950 0h-838v1434h838v-1434zM195 1351v-1268h673v1268h-673z" />
    <glyph glyph-name=".notdef" horiz-adv-x="1077" 
d="M950 0h-838v1434h838v-1434zM195 1351v-1268h673v1268h-673z" />
    <glyph glyph-name="space" unicode=" " horiz-adv-x="508" 
 />
    <glyph glyph-name="exclam" unicode="!" horiz-adv-x="282" 
d="M200 1434l-4 -1138h-110l-5 1138h119zM222 81c0 -21.333 -8.00391 -40.168 -24.0039 -56.501s-35.333 -24.5 -58 -24.5c-21.333 0 -40.166 7.83301 -56.499 23.5s-24.5 34.834 -24.5 57.501c0 21.333 7.83301 40.333 23.5 57s34.834 25 57.501 25
s41.834 -7.83301 57.501 -23.5s23.834 -35.167 24.501 -58.5z" />
    <glyph glyph-name="quotedbl" unicode="&#x22;" horiz-adv-x="570" 
d="M123 1434h107v-400h-101zM336 1434h107l-7 -400h-100v400z" />
    <glyph glyph-name="numbersign" unicode="#" horiz-adv-x="1563" 
d="M1092 1434h115l-79 -428h390l-19 -107h-390l-68 -365h390l-20 -106h-389l-80 -428h-115l79 428h-357l-80 -428h-115l79 428h-388l20 106h388l67 365h-387l19 107h388l80 428h114l-78 -428h357zM635 900l-68 -367h360l68 367h-360z" />
    <glyph glyph-name="dollar" unicode="$" horiz-adv-x="1246" 
d="M45 251l75.999 84c83.333 -76.667 171 -133.167 263 -169.5s182.333 -54.5 271 -54.5c121.333 0.666992 223.5 31.834 306.5 93.501s124.5 136.5 124.5 224.5c0 31.333 -5.33301 59 -16 83s-30.167 44.333 -58.5 61s-52.166 30 -71.499 40s-53 19.167 -101 27.5
s-80.833 13.666 -98.5 15.999s-53.834 6.16602 -108.501 11.499c-3.33301 0.666992 -5.66602 1 -6.99902 1c-134.667 13.333 -233.334 29.333 -296.001 48c-178.667 51.333 -268 150.333 -268 297c0 66.667 13.833 126.667 41.5 180s65.334 96.5 113.001 129.5
s100.667 58.667 159 77s120.166 28.833 185.499 31.5v239h110v-245c156.667 -16 299.667 -71.333 429 -166l-69 -86c-64 47.333 -136.333 83.833 -217 109.5s-160.334 38.5 -239.001 38.5c-71.333 -0.666992 -136.333 -12 -195 -34s-106.834 -56.167 -144.501 -102.5
s-56.5 -101.833 -56.5 -166.5c0 -93.333 59.333 -158.333 178 -195c55.333 -17.333 149.333 -32.666 282 -45.999c130.667 -13.333 225.334 -28 284.001 -44c178 -48 271.667 -141.333 281 -280c0.666992 -8 1 -16.333 1 -25c0 -64.667 -15.667 -124.167 -47 -178.5
s-72.666 -98.833 -123.999 -133.5s-108.166 -62 -170.499 -82s-126.5 -31.333 -192.5 -34v-239h-110v245c-182 20.667 -353.667 102 -515 244z" />
    <glyph glyph-name="percent" unicode="%" horiz-adv-x="2154" 
d="M536 0l954 1434h126l-954 -1434h-126zM818 1003c0 90 -30.167 170.335 -90.5 241.002s-136.166 106 -227.499 106c-88.667 0 -163.667 -34.667 -225 -104s-92 -150.333 -92 -243c0 -90.667 30 -171.334 90 -242.001s135.667 -106 227 -106
c89.333 0 164.666 34.667 225.999 104s92 150.666 92 243.999zM1335 432.002c0 -58 13 -113.332 39 -165.999s63.667 -96.167 113 -130.5s104.333 -51.5 165 -51.5c89.333 0 164.666 34.667 225.999 104s92 150.666 92 243.999c0 90 -30.167 170.333 -90.5 241
s-136.166 106 -227.499 106c-84.667 0 -157 -31.667 -217 -95c-66.667 -68.667 -100 -152.667 -100 -252zM932 1003c0 -78 -18 -151.666 -54 -220.999s-87.5 -125.833 -154.5 -169.5s-141.5 -65.5 -223.5 -65.5c-78.667 0 -151.167 20.667 -217.5 62s-118.5 97 -156.5 167
s-57 145.667 -57 227c0 78 18 151.667 54 221s87.5 125.666 154.5 168.999s141.167 65 222.5 65c120 0 222 -44.667 306 -134s126 -196.333 126 -321zM1221 432.004c0 59.333 10.998 117 32.998 173s53 105.333 93 148c82.667 89.333 184.334 134 305.001 134
c78.667 0 151.334 -20.667 218.001 -62s119 -96.833 157 -166.5s57 -145.167 57 -226.5c0 -78 -18 -151.667 -54 -221s-87.5 -125.833 -154.5 -169.5s-141.5 -65.5 -223.5 -65.5c-78.667 0 -151.167 20.667 -217.5 62s-118.5 97 -156.5 167s-57 145.667 -57 227z" />
    <glyph glyph-name="ampersand" unicode="&#x26;" horiz-adv-x="1431" 
d="M1092 292l259.004 -292.001h-155l-182 206c-142.667 -137.333 -289 -206 -439 -206c-85.333 1.33301 -166.333 21.5 -243 60.5s-139.834 95 -189.501 168s-74.5 154.167 -74.5 243.5c0 90.667 31.5 173.167 94.5 247.5s141.833 134.833 236.5 181.5
c-48.667 63.333 -73 128 -73 194c0 92.667 36 172.334 108 239.001s157.333 100 256 100c106 0 195.333 -36 268 -108l114 -127l-87 -77l-113 126c-48.667 48.667 -109.334 73 -182.001 73c-64 0 -120.833 -21.333 -170.5 -64s-74.5 -96.667 -74.5 -162
c0 -45.333 13.667 -84.666 41 -117.999l530 -600c56 71.333 105 153.166 147 245.499s64.333 178.166 67 257.499h112c-0.666992 -90 -25.334 -188.667 -74.001 -296s-107.334 -204.666 -176.001 -291.999zM936.004 292.999l-462 523.001
c-78 -34.667 -145.167 -81.667 -201.5 -141s-84.5 -127 -84.5 -203c0 -100 38.5 -184.5 115.5 -253.5s167.833 -104.167 272.5 -105.5c61.333 -0.666992 120.833 13.166 178.5 41.499s118.167 74.5 181.5 138.5z" />
    <glyph glyph-name="quotesingle" unicode="'" horiz-adv-x="373" 
d="M120 1434h116l-5 -400h-105z" />
    <glyph glyph-name="parenleft" unicode="(" horiz-adv-x="451" 
d="M281 1713h118c-153.333 -316 -230 -651.333 -230 -1006c0 -359.333 76.667 -688 230 -986h-119c-76 141.333 -133.333 297.5 -172 468.5s-58 343.5 -58 517.5c0 356 77 691.333 231 1006z" />
    <glyph glyph-name="parenright" unicode=")" horiz-adv-x="451" 
d="M52 1713l118 0.00195312c76 -145.333 133.333 -305 172 -479s58 -349.667 58 -527c0 -360.667 -76.333 -689.334 -229 -986.001h-119c76 140 133.333 295.667 172 467s58 344.333 58 519c0 363.333 -76.667 698.666 -230 1006z" />
    <glyph glyph-name="asterisk" unicode="*" horiz-adv-x="690" 
d="M298 1514h94l-2 -238l225 74l29 -89l-227 -72l142 -191l-76 -55l-139 194l-138 -193l-76 55l141 191l-226 72l29 89l225 -75z" />
    <glyph glyph-name="plus" unicode="+" horiz-adv-x="965" 
d="M428 1026h109v-386h387v-110h-387v-387h-109v387h-387v110h387v386z" />
    <glyph glyph-name="comma" unicode="," horiz-adv-x="301" 
d="M97 -147l-41 64.001c34 26 64 54.667 90 86c-18.667 5.33301 -33.334 14.833 -44.001 28.5s-16 30.167 -16 49.5c0 21.333 7.83301 40.166 23.5 56.499s34.834 24.833 57.501 25.5c21.333 0 40.333 -7.66699 57 -23s25 -34.333 25 -57c0 -59.333 -25 -115 -75 -167
c-19.333 -20.667 -45 -41.667 -77 -63z" />
    <glyph glyph-name="hyphen" unicode="-" horiz-adv-x="1034" 
d="M126 529v112h781v-112h-781z" />
    <glyph glyph-name="period" unicode="." horiz-adv-x="327" 
d="M245 81c0 -21.333 -8.00195 -40.168 -24.002 -56.501s-35.333 -24.5 -58 -24.5c-21.333 0 -40.166 7.83301 -56.499 23.5s-24.5 34.834 -24.5 57.501c0 21.333 7.83301 40.333 23.5 57s34.834 25 57.501 25c22 0 41.167 -8 57.5 -24s24.5 -35.333 24.5 -58z" />
    <glyph glyph-name="slash" unicode="/" horiz-adv-x="1120" 
d="M954 1709h126l-913 -1996h-127z" />
    <glyph glyph-name="zero" unicode="0" horiz-adv-x="1610" 
d="M201 717c0 -80.667 15.502 -158.001 46.502 -232.001s73 -138.5 126 -193.5s117.167 -98.833 192.5 -131.5s154.666 -49 237.999 -49c109.333 0 210.166 26.667 302.499 80s165.5 126.5 219.5 219.5s81 195.167 81 306.5c0 109.333 -26.333 210.333 -79 303
s-125.334 166.334 -218.001 221.001s-194.667 82 -306 82c-108.667 0 -209.167 -26.667 -301.5 -80s-165.666 -126.5 -219.999 -219.5s-81.5 -195.167 -81.5 -306.5zM80.002 716.999c0 102.667 20.167 199.166 60.5 289.499s93.833 166.5 160.5 228.5
s143.834 110.833 231.501 146.5s178.167 53.5 271.5 53.5c104 0 201.667 -19.833 293 -59.5s168.166 -92.667 230.499 -159s111.5 -142.833 147.5 -229.5s54 -176.667 54 -270c0 -103.333 -20.167 -200.166 -60.5 -290.499s-94 -166.333 -161 -228
s-144.333 -110.167 -232 -145.5s-178.167 -53 -271.5 -53c-132.667 0 -254.667 32.667 -366 98s-198.833 152.833 -262.5 262.5s-95.5 228.5 -95.5 356.5z" />
    <glyph glyph-name="one" unicode="1" horiz-adv-x="566" 
d="M43 1434h394v-1434h-119v1321h-275v113z" />
    <glyph glyph-name="two" unicode="2" horiz-adv-x="1164" 
d="M209 113l897.993 0.00195312v-113h-1017v113c0 70.667 12 134 36 190s60 105.5 108 148.5s102.667 80.667 164 113s135.333 64.166 222 95.499l55 18.5c10.667 3.66699 28.667 10.334 54 20.001s44.333 17.667 57 24s29.667 15.5 51 27.5s37.833 23.333 49.5 34
s24.834 23.667 39.501 39s25.834 31 33.501 47s14.167 34.167 19.5 54.5s8 41.833 8 64.5c0 61.333 -19.333 118 -58 170s-87.667 92 -147 120s-120.666 42 -183.999 42c-99.333 0 -186.166 -32.333 -260.499 -97s-117.166 -148 -128.499 -250h-119
c6.66699 129.333 59.667 238.333 159 327s215.666 133 348.999 133c59.333 0 119.166 -10.833 179.499 -32.5s114.833 -51.334 163.5 -89.001s88.334 -84.834 119.001 -141.501s46 -117 46 -181c0 -48.667 -8.5 -93 -25.5 -133s-37.833 -73.5 -62.5 -100.5
s-58 -52.833 -100 -77.5s-80 -44.167 -114 -58.5s-77 -30.833 -129 -49.5c-59.333 -20 -110.666 -39.667 -153.999 -59s-85.666 -42.333 -126.999 -69s-75 -55.334 -101 -86.001s-46.667 -66.667 -62 -108s-22.666 -86.666 -21.999 -135.999z" />
    <glyph glyph-name="three" unicode="3" horiz-adv-x="1210" 
d="M55 1434l946.001 0.000976562v-113l-505 -435c46.667 9.33301 95 11.833 145 7.5s98.667 -12.166 146 -23.499s92.333 -29.833 135 -55.5s80 -54.834 112 -87.501s57.333 -72.667 76 -120s28 -98.333 28 -153c0 -66 -15.667 -128 -47 -186s-72.333 -106.167 -123 -144.5
s-108.334 -68.5 -173.001 -90.5s-130.667 -33 -198 -33c-65.333 0 -129.333 10.167 -192 30.5s-120.167 49.166 -172.5 86.499s-94.666 86 -126.999 146s-48.833 126.667 -49.5 200h119c0.666992 -52.667 13.5 -101.5 38.5 -146.5s57.667 -82 98 -111
s85.166 -51.5 134.499 -67.5s99.666 -24 150.999 -24c48.667 0 97.5 7.66699 146.5 23s94.167 36.833 135.5 64.5s75 64 101 109s39 94.167 39 147.5c0 48.667 -10.833 94 -32.5 136s-50.334 77.167 -86.001 105.5s-76.667 51.666 -123 69.999s-93.666 29.833 -141.999 34.5
s-96.666 2.83398 -144.999 -5.49902s-91.833 -23.5 -130.5 -45.5l-67 85l550 483h-788v113z" />
    <glyph glyph-name="four" unicode="4" horiz-adv-x="1246" 
d="M779 1434h117v-960h303v-112h-303v-362h-117v362h-739v112zM779 1259l-607 -785h607v785z" />
    <glyph glyph-name="five" unicode="5" horiz-adv-x="1235" 
d="M97 471l119 -0.00195312c1.33301 -69.333 22.5 -131.833 63.5 -187.5s93.333 -98 157 -127s131.5 -43.5 203.5 -43.5c50 0 99.833 8.33301 149.5 25s95 40 136 70s74.167 68.333 99.5 115s38 97.334 38 152.001c0 69.333 -20.667 132.333 -62 189
s-94.166 100 -158.499 130s-131.833 45 -202.5 45h-543v595h960v-114h-843v-373h426c70 0 137.5 -11.5 202.5 -34.5s122.667 -54.667 173 -95s90.666 -90.666 120.999 -150.999s45.5 -125.5 45.5 -195.5c0 -68 -15.333 -131.833 -46 -191.5s-71.334 -109.667 -122.001 -150
s-108.5 -72 -173.5 -95s-131.833 -34.5 -200.5 -34.5c-67.333 0 -133.166 11 -197.499 33s-121.833 52.833 -172.5 92.5s-91.667 89.5 -123 149.5s-48 125.333 -50 196z" />
    <glyph glyph-name="six" unicode="6" horiz-adv-x="1135" 
d="M169 488c0 -103.333 38.5 -191.668 115.5 -265.001s169.167 -110 276.5 -110c66.667 0 129.834 15.833 189.501 47.5s108 76.667 145 135s55.5 122.5 55.5 192.5c0 102.667 -38.333 190.834 -115 264.501s-168.334 110.5 -275.001 110.5
c-104.667 0 -196.167 -36 -274.5 -108s-117.5 -161 -117.5 -267zM52 487.998c0.666992 62.667 14.1709 126.834 40.5039 192.501s62.833 129.334 109.5 191.001s91.667 115.667 135 162s93 95.166 149 146.499c96 93.333 191.667 178 287 254h164
c-80 -53.333 -175.167 -130.833 -285.5 -232.5s-203.5 -195.167 -279.5 -280.5c65.333 33.333 130.666 50 195.999 50c87.333 -1.33301 169.166 -22.333 245.499 -63s138.166 -98.334 185.499 -173.001s71 -158 71 -250c0 -88 -23 -169.333 -69 -244
s-108 -133.5 -186 -176.5s-162.667 -64.5 -254 -64.5c-89.333 0 -172 20 -248 60s-137.833 97.667 -185.5 173s-72.834 160.333 -75.501 255z" />
    <glyph glyph-name="seven" unicode="7" horiz-adv-x="1204" 
d="M474 0h-133l676 1321h-965v113h1112v-79z" />
    <glyph glyph-name="eight" unicode="8" horiz-adv-x="1241" 
d="M1040 406c0 47.333 -13.5 90.499 -40.5 129.499s-61.667 70 -104 93s-87.333 40.667 -135 53s-94.5 18.5 -140.5 18.5c-46.667 0 -93.834 -6.16699 -141.501 -18.5s-92.667 -30 -135 -53s-76.833 -54 -103.5 -93s-40 -82.167 -40 -129.5s13.5 -90.5 40.5 -129.5
s61.667 -70 104 -93s87.333 -40.667 135 -53s94.5 -18.5 140.5 -18.5c43.333 0 88.333 5.83301 135 17.5s91.834 28.834 135.501 51.501s79.5 53.667 107.5 93s42 83.333 42 132zM243 1062c0 -41.333 12 -79 36 -113s54.833 -61.333 92.5 -82s78 -36.5 121 -47.5
s85.5 -16.5 127.5 -16.5c38.667 0 78.834 5.16699 120.501 15.5s82.167 25.333 121.5 45s71.666 46.834 96.999 81.501s38 73.667 38 117c0 41.333 -12 79 -36 113s-54.833 61.333 -92.5 82s-78 36.5 -121 47.5s-85.5 16.5 -127.5 16.5
c-38.667 0 -78.834 -5.16699 -120.501 -15.5s-82.167 -25.333 -121.5 -45s-71.666 -46.834 -96.999 -81.501s-38 -73.667 -38 -117zM851 755.999c41.333 -16.667 79.498 -35.835 114.498 -57.502s67.5 -46.834 97.5 -75.501s53.5 -62 70.5 -100s25.5 -78.333 25.5 -121
c0 -63.333 -16.5 -121.166 -49.5 -173.499s-76 -94.666 -129 -126.999s-110.667 -57.333 -173 -75s-124.833 -26.5 -187.5 -26.5c-59.333 0 -119.666 8.33301 -180.999 25s-119 40.834 -173 72.501s-98.167 74 -132.5 127s-51.5 112.167 -51.5 177.5
c0 150.667 102 268.667 306 354c-34.667 14.667 -66.834 31.5 -96.501 50.5s-57.167 41.167 -82.5 66.5s-45.333 54.833 -60 88.5s-22 69.167 -22 106.5c0 57.333 15.333 110 46 158s70.334 86.667 119.001 116s101.5 52 158.5 68s113.5 24 169.5 24
c42.667 0 86.334 -4.5 131.001 -13.5s88.667 -23.5 132 -43.5s82 -44 116 -72s61.5 -62.5 82.5 -103.5s31.5 -85.5 31.5 -133.5c0 -71.333 -24.667 -133.5 -74 -186.5s-112 -94.833 -188 -125.5z" />
    <glyph glyph-name="nine" unicode="9" horiz-adv-x="1135" 
d="M762 512c-62 -28 -127.998 -42.001 -197.998 -42.001c-84.667 0 -165 19.667 -241 59s-138.167 96.166 -186.5 170.499s-72.5 157.5 -72.5 249.5c0 88.667 23 170.334 69 245.001s108.167 133.334 186.5 176.001s163.166 64 254.499 64c88 0 170.333 -20 247 -60
s139.167 -97.167 187.5 -171.5s73.166 -157.166 74.499 -248.499c0 -166 -90.333 -348 -271 -546c-140 -154 -290 -290 -450 -408h-164c34.667 22.667 97.167 76 187.5 160s144.833 134 163.5 150c90 75.333 161 142.666 213 201.999zM575.002 1321
c-104 0 -195.333 -36 -274 -108s-118 -161 -118 -267c0 -103.333 38.5 -191.666 115.5 -264.999s169.167 -110 276.5 -110c67.333 0 130.833 15.833 190.5 47.5s108 76.667 145 135s55.5 122.5 55.5 192.5c0 103.333 -38.5 191.666 -115.5 264.999s-168.833 110 -275.5 110z
" />
    <glyph glyph-name="colon" unicode=":" horiz-adv-x="280" 
d="M221 81c0 -21.333 -8.00098 -40.168 -24.001 -56.501s-35.333 -24.5 -58 -24.5c-21.333 0 -40.166 7.83301 -56.499 23.5s-24.5 34.834 -24.5 57.501c0 21.333 8 40.333 24 57s35 25 57 25s41.167 -8 57.5 -24s24.5 -35.333 24.5 -58zM220.999 821.998
c0 -22 -7.83496 -40.999 -23.502 -56.999s-35.167 -24 -58.5 -24c-21.333 0 -40.166 7.83301 -56.499 23.5s-24.5 34.834 -24.5 57.501c0 21.333 7.83301 40.166 23.5 56.499s34.834 24.5 57.501 24.5c22 0 41.167 -7.83301 57.5 -23.5s24.5 -34.834 24.5 -57.501z" />
    <glyph glyph-name="semicolon" unicode=";" horiz-adv-x="289" 
d="M240 83c0 -48.667 -17.333 -94.333 -52 -137c-20 -32 -53 -63 -99 -93l-42 64c33.333 25.333 63.666 54 90.999 86c-40 12 -60 38 -60 78c-0.666992 22 6.83301 41 22.5 57s34.834 24.333 57.501 25c22 0 41.167 -7.83301 57.5 -23.5s24.5 -34.5 24.5 -56.5zM240 822.001
c0 -22 -7.83496 -40.999 -23.502 -56.999s-35.167 -24 -58.5 -24c-21.333 0 -40.166 7.83301 -56.499 23.5s-24.5 34.834 -24.5 57.501c0 21.333 7.83301 40.166 23.5 56.499s34.834 24.5 57.501 24.5c22 0 41.167 -7.83301 57.5 -23.5s24.5 -34.834 24.5 -57.501z" />
    <glyph glyph-name="less" unicode="&#x3c;" horiz-adv-x="993" 
d="M896 1078v-124l-731 -370l731 -370v-123l-856 431v125z" />
    <glyph glyph-name="equal" unicode="=" horiz-adv-x="1078" 
d="M126 675v105h900v-105h-900zM126 388v106h900v-106h-900z" />
    <glyph glyph-name="greater" unicode="&#x3e;" horiz-adv-x="1004" 
d="M108 1078l856 -431l-1 -125l-855 -431v123l731 370l-731 370v124z" />
    <glyph glyph-name="question" unicode="?" horiz-adv-x="1000" 
d="M540 296l-111.998 0.000976562c0.666992 67.333 16.5 127.333 47.5 180s80.167 110 147.5 172c69.333 68 121.166 131.167 155.499 189.5s46.833 120.5 37.5 186.5c-12 88 -46.333 159.5 -103 214.5s-131 82.5 -223 82.5c-64.667 0 -122.667 -17 -174 -51
s-90 -76.833 -116 -128.5s-39.333 -106.834 -40 -165.501h-119c0.666992 79.333 19.667 153.833 57 223.5s90.666 126.167 159.999 169.5s146.666 65 231.999 65c120 0 220.167 -36.333 300.5 -109s127.833 -171 142.5 -295c10.667 -78.667 -3.66602 -153.5 -42.999 -224.5
s-100.333 -145.5 -183 -223.5c-58.667 -52 -101 -98.333 -127 -139s-39.333 -89.667 -40 -147zM402.002 82.001c0 21.333 7.99902 40.167 23.999 56.5s35 24.5 57 24.5s41.167 -8 57.5 -24s24.5 -35 24.5 -57s-8 -41.167 -24 -57.5s-35.333 -24.5 -58 -24.5
c-22 0 -40.667 7.83301 -56 23.5s-23.666 35.167 -24.999 58.5z" />
    <glyph glyph-name="at" unicode="@" horiz-adv-x="1807" 
d="M591 713c0 -80 27.333 -150.834 82 -212.501s122.667 -92.5 204 -92.5c77.333 0 142.833 28.5 196.5 85.5s83.167 125.5 88.5 205.5c0 90.667 -26.5 166.667 -79.5 228s-121.5 92 -205.5 92c-78 0 -145.167 -30.167 -201.5 -90.5s-84.5 -132.166 -84.5 -215.499z
M483 711.999c0 71.333 16.0049 138.175 48.0049 200.508s77.167 112.833 135.5 151.5s122.166 58 191.499 58c64.667 0 123.334 -16 176.001 -48s96 -75 130 -129v178h106v-616c0 -76.667 11.667 -134.667 35 -174s61.666 -59 114.999 -59c35.333 0 66.5 10 93.5 30
s48.167 45.167 63.5 75.5s27.833 66.166 37.5 107.499s16.167 80.166 19.5 116.499s5 73.833 5 112.5c0 96 -19 188.833 -57 278.5s-89.167 167.667 -153.5 234s-141.833 119.333 -232.5 159s-186.334 59.5 -287.001 59.5c-96.667 0 -189.834 -18.833 -279.501 -56.5
s-167.5 -88.834 -233.5 -153.501s-118.667 -142.334 -158 -233.001s-59 -186.667 -59 -288c0 -129.333 31.833 -250 95.5 -362s151.834 -201.667 264.501 -269s236 -101 370 -101c111.333 0 218.666 25.333 321.999 76l45 -87c-116.667 -57.333 -239 -86 -367 -86
c-110 0 -215.667 21.5 -317 64.5s-189.5 101 -264.5 174s-135 161 -180 264s-67.5 211.833 -67.5 326.5c0 109.333 21.5 214.666 64.5 315.999s101 189.5 174 264.5s161 135 264 180s211.833 67.5 326.5 67.5c110 0 215.667 -21.5 317 -64.5s189.5 -101 264.5 -174
s135 -161 180 -264s67.5 -211.5 67.5 -325.5c0 -42.667 -2.66699 -86 -8 -130s-15.333 -91.333 -30 -142s-33.334 -95.334 -56.001 -134.001s-53.334 -70.834 -92.001 -96.501s-82.667 -38.5 -132 -38.5c-70 0 -127.833 24.5 -173.5 73.5s-71.167 128.5 -76.5 238.5
c-34 -56.667 -77.5 -101.334 -130.5 -134.001s-113.5 -49 -181.5 -49c-104 0.666992 -192.5 40.667 -265.5 120s-109.5 175.333 -109.5 288z" />
    <glyph glyph-name="A" unicode="A" horiz-adv-x="1364" 
d="M621 1435h122l574 -1435h-121l-119 296h-790l-119 -296h-121zM682 1290l-351 -882h702z" />
    <glyph glyph-name="B" unicode="B" horiz-adv-x="1178" 
d="M244 111h465c74 0 139.333 26.5 196 79.5s85 119.167 85 198.5c0 74 -27.333 138.667 -82 194s-121 83 -199 83h-465v-555zM582 1323h-338.001v-551h343c72.667 1.33301 136.834 28.333 192.501 81s83.5 117.667 83.5 195c0 74 -27.333 138.333 -82 193s-121 82 -199 82z
M973.999 1047c0 -60.667 -14.168 -116.999 -42.501 -168.999s-68.166 -95.667 -119.499 -131c86 -20.667 156.833 -63.334 212.5 -128.001s83.5 -142 83.5 -232c0 -106.667 -37.667 -197.834 -113 -273.501s-167.333 -113.5 -276 -113.5h-594v1434h461
c106.667 0 198 -37.167 274 -111.5s114 -166.166 114 -275.499z" />
    <glyph glyph-name="C" unicode="C" horiz-adv-x="1562" 
d="M1384 539l112.999 -34.999c-46 -152.667 -133.667 -274.834 -263 -366.501s-273 -137.5 -431 -137.5c-101.333 0 -197.333 19.5 -288 58.5s-167.667 91 -231 156s-113.333 141.333 -150 229s-55 178.834 -55 273.501s18.833 186 56.5 274s88.5 164.667 152.5 230
s141.167 117.5 231.5 156.5s185.5 58.5 285.5 58.5c158.667 0 301.834 -46.667 429.501 -140s215.167 -215 262.5 -365l-113 -35c-39.333 126 -112.5 228.833 -219.5 308.5s-226.833 119.5 -359.5 119.5c-108 0 -208.167 -26.5 -300.5 -79.5s-166 -126.167 -221 -219.5
s-82.5 -196 -82.5 -308c0 -108 26.167 -208.333 78.5 -301s125 -166.834 218 -222.501s195.5 -83.5 307.5 -83.5c133.333 0 253.333 39.5 360 118.5s179.667 182.5 219 310.5z" />
    <glyph glyph-name="D" unicode="D" horiz-adv-x="1272" 
d="M485 111c106.667 0 205.831 26.501 297.498 79.501s164.667 126 219 219s81.5 195.167 81.5 306.5c0 107.333 -25.667 207.166 -77 299.499s-123.166 166.333 -215.499 222s-194.166 83.5 -305.499 83.5h-242v-1210h242zM484.997 1433
c127.333 0 246.332 -32.001 356.999 -96.001s198.834 -151.167 264.501 -261.5s98.5 -230.166 98.5 -359.499c0 -95.333 -19.167 -187 -57.5 -275s-89.833 -164.167 -154.5 -228.5s-141.5 -115.833 -230.5 -154.5s-181.5 -58 -277.5 -58h-360v1433h360z" />
    <glyph glyph-name="E" unicode="E" horiz-adv-x="1087" 
d="M125 1434h919v-113h-801v-481h619v-112h-619v-616h801v-112h-919v1434z" />
    <glyph glyph-name="F" unicode="F" horiz-adv-x="1083" 
d="M124 1434h919v-113h-800v-481h619v-112h-619v-728h-119v1434z" />
    <glyph glyph-name="G" unicode="G" horiz-adv-x="1582" 
d="M803 840l712.998 0.00195312c8 -40 12 -81 12 -123c0 -95.333 -19 -186.833 -57 -274.5s-89.167 -164 -153.5 -229s-141.5 -116.833 -231.5 -155.5s-184.333 -58 -283 -58c-96 0 -188.5 18.667 -277.5 56s-166.167 87.833 -231.5 151.5s-117.5 140 -156.5 229
s-58.5 182.5 -58.5 280.5c0 96 19 188.167 57 276.5s89.167 164.666 153.5 228.999s141.333 115.666 231 153.999s183.834 57.5 282.501 57.5c154.667 0 295.334 -44 422.001 -132l-72 -90c-104 73.333 -220.667 110 -350 110c-107.333 0 -207.166 -26.333 -299.499 -79
s-166 -125.5 -221 -218.5s-82.5 -195.5 -82.5 -307.5c0 -80 15.5 -157.167 46.5 -231.5s73.167 -138.833 126.5 -193.5s117.5 -98.5 192.5 -131.5s154.167 -49.5 237.5 -49.5c104.667 0 202.167 25.167 292.5 75.5s163.166 120 218.499 209s85 187.167 89 294.5
c0 4 0.166992 10.333 0.5 19s0.5 15 0.5 19h-601v112z" />
    <glyph glyph-name="H" unicode="H" horiz-adv-x="1323" 
d="M1078 1435h120v-1435h-120v727h-835v-727h-119v1435h119v-594h835v594z" />
    <glyph glyph-name="I" unicode="I" horiz-adv-x="381" 
d="M124 0v1434h118v-1434h-118z" />
    <glyph glyph-name="J" unicode="J" horiz-adv-x="710" 
d="M481 1433l118.001 0.000976562v-1059c0 -104 -36.333 -192.333 -109 -265s-161 -109 -265 -109c-66.667 0 -128.334 16.333 -185.001 49l57 104c40.667 -23.333 83.334 -35 128.001 -35c69.333 0 129.666 25 180.999 75c50 51.333 75 111.666 75 180.999v1059z" />
    <glyph glyph-name="K" unicode="K" horiz-adv-x="1242" 
d="M887 1434h151l-432 -448l574 -986h-132l-525 901l-281 -291v-610h-119v1434h119v-667z" />
    <glyph glyph-name="L" unicode="L" horiz-adv-x="1081" 
d="M123 1434h119v-1321h799v-113h-918v1434z" />
    <glyph glyph-name="M" unicode="M" horiz-adv-x="1621" 
d="M1417 1434h81v-1434h-118v1222l-570 -761l-570 762v-1223h-118v1434h81l607 -807z" />
    <glyph glyph-name="N" unicode="N" horiz-adv-x="1380" 
d="M1138 1434h119v-1434h-82l-934 1226v-1226h-119v1434h81l935 -1227v1227z" />
    <glyph glyph-name="O" unicode="O" horiz-adv-x="1606" 
d="M200 717c0 -80.667 15.502 -158.001 46.502 -232.001s73 -138.5 126 -193.5s117.167 -98.833 192.5 -131.5s154.666 -49 237.999 -49c108.667 0 209.167 26.667 301.5 80s165.5 126.5 219.5 219.5s81 195.167 81 306.5c0 109.333 -26.333 210.333 -79 303
s-125.334 166.334 -218.001 221.001s-194.334 82 -305.001 82c-108.667 0 -209.167 -26.667 -301.5 -80s-165.666 -126.5 -219.999 -219.5s-81.5 -195.167 -81.5 -306.5zM78.002 716.999c0 102.667 20.168 199.168 60.501 289.501s94 166.5 161 228.5
s144.333 110.833 232 146.5s178.167 53.5 271.5 53.5c83.333 0 163 -12.833 239 -38.5s143.167 -61.334 201.5 -107.001s109 -98.334 152 -158.001s75.833 -125.167 98.5 -196.5s34 -144 34 -218c0 -103.333 -20.333 -200.166 -61 -290.499s-94.5 -166.333 -161.5 -228
s-144.167 -110.167 -231.5 -145.5s-177.666 -53 -270.999 -53c-132.667 0 -254.834 32.667 -366.501 98s-199.334 152.833 -263.001 262.5s-95.5 228.5 -95.5 356.5z" />
    <glyph glyph-name="P" unicode="P" horiz-adv-x="1144" 
d="M240 772l466 0.000976562c74 0 139.333 26.333 196 79s85 118 85 196c0 73.333 -27.5 137.166 -82.5 191.499s-121.5 81.5 -199.5 81.5h-465v-548zM122 1434l593 -0.000976562c107.333 -1.33301 199 -38.666 275 -111.999s114 -165 114 -275
c0 -106 -37.667 -196.833 -113 -272.5s-167.333 -113.5 -276 -113.5h-475v-661h-118v1434z" />
    <glyph glyph-name="Q" unicode="Q" horiz-adv-x="1594" 
d="M184 717c0 -108 25.999 -208.165 77.999 -300.498s124.5 -166.333 217.5 -222s195.5 -83.5 307.5 -83.5c80 0 157 15.667 231 47s138.167 73.666 192.5 126.999s97.833 117.666 130.5 192.999s49 155 49 239c0 80 -15.5 157 -46.5 231s-72.833 138.5 -125.5 193.5
s-116.667 98.833 -192 131.5s-155 49 -239 49c-107.333 0 -207.166 -26.333 -299.499 -79s-166 -125.5 -221 -218.5s-82.5 -195.5 -82.5 -307.5zM786.999 1434c96 0 188.331 -18.667 276.998 -56s165.834 -87.5 231.501 -150.5s118.167 -139.167 157.5 -228.5
s59 -183.333 59 -282c0 -103.333 -21.667 -201.166 -65 -293.499s-105 -174.166 -185 -245.499l174 -233l-96 -71l-174 236c-116 -73.333 -242.333 -110 -379 -110c-96 0 -188.167 18.667 -276.5 56s-165.333 87.5 -231 150.5s-118.167 139.167 -157.5 228.5
s-59 183.333 -59 282c0 96 19 188.167 57 276.5s89.167 164.666 153.5 228.999s141.333 115.666 231 153.999s183.834 57.5 282.501 57.5z" />
    <glyph glyph-name="R" unicode="R" horiz-adv-x="1258" 
d="M240 1320v-547.999h465c74 0 139.333 26.333 196 79s85 118 85 196c0 73.333 -27.333 137.166 -82 191.499s-121 81.5 -199 81.5h-465zM1183 0.000976562l-135 -0.00292969l-384 661h-424v-661h-119v1434h594c106 0 197.333 -37.167 274 -111.5
s115 -166.166 115 -275.499c0 -91.333 -28.5 -171.666 -85.5 -240.999s-132.167 -114.666 -225.5 -135.999z" />
    <glyph glyph-name="S" unicode="S" horiz-adv-x="1300" 
d="M72 252l75 83.998c84.667 -76 173 -132.167 265 -168.5s181.667 -54.833 269 -55.5c123.333 0 226.5 28.833 309.5 86.5s124.5 129.834 124.5 216.501c0 42.667 -11.667 79.167 -35 109.5s-54.5 54 -93.5 71s-84 31.167 -135 42.5s-104.5 21 -160.5 29
s-112.167 16.667 -168.5 26s-110 22 -161 38s-96 35.833 -135 59.5s-70.167 56 -93.5 97s-35 89.167 -35 144.5c0 87.333 23 161.833 69 223.5s106.167 107 180.5 136s159.5 43.833 255.5 44.5c89.333 0 179.666 -14.5 270.999 -43.5s176.333 -71.833 255 -128.5l-69 -88
c-66.667 48.667 -140 85.667 -220 111s-158.333 38 -235 38c-115.333 0 -209 -24.5 -281 -73.5s-108 -120.5 -108 -214.5c0 -43.333 11.667 -80.166 35 -110.499s54.5 -53.833 93.5 -70.5s84 -30.5 135 -41.5s104.667 -20.5 161 -28.5s112.5 -16.5 168.5 -25.5
s109.5 -21.667 160.5 -38s96 -36.666 135 -60.999s70.167 -57.333 93.5 -99s35 -90.834 35 -147.501c0 -119.333 -53 -218.5 -159 -297.5s-237 -118.167 -393 -117.5c-100 0.666992 -202.167 21.5 -306.5 62.5s-205.166 104.167 -302.499 189.5z" />
    <glyph glyph-name="T" unicode="T" horiz-adv-x="1329" 
d="M43 1434h1243v-113h-562v-1321h-119v1321h-562v113z" />
    <glyph glyph-name="U" unicode="U" horiz-adv-x="1267" 
d="M1042 1434h119.002v-897c0 -96 -22.667 -185 -68 -267s-108.833 -147.5 -190.5 -196.5s-171.834 -73.5 -270.501 -73.5c-71.333 0 -139.5 14 -204.5 42s-121.167 65.667 -168.5 113s-85 104.333 -113 171s-42 137 -42 211v897h119v-894c0 -74 17.167 -143.5 51.5 -208.5
s83.166 -117.667 146.499 -158s134 -60.5 212 -60.5c114 0 210.667 41.667 290 125s119 184 119 302v894z" />
    <glyph glyph-name="V" unicode="V" horiz-adv-x="1363" 
d="M1188 1434h129l-575 -1434h-121l-575 1434h128l507 -1273z" />
    <glyph glyph-name="W" unicode="W" horiz-adv-x="1807" 
d="M1610 1433h125l-380 -1433h-122l-330 1244l-330 -1244h-121l-380 1433h124l324 -1224l323 1224h120l323 -1224z" />
    <glyph glyph-name="X" unicode="X" horiz-adv-x="1397" 
d="M1114 1435h142l-487 -676l548 -759h-142l-477 661l-476 -661h-141l546 759l-486 676h142l415 -577z" />
    <glyph glyph-name="Y" unicode="Y" horiz-adv-x="1197" 
d="M1016 1434h138l-497 -830v-604h-119v605l-495 829h137l418 -707z" />
    <glyph glyph-name="Z" unicode="Z" horiz-adv-x="1236" 
d="M62 1434h1112v-79l-953 -1242h953v-113h-1112v78l954 1243h-954v113z" />
    <glyph glyph-name="bracketleft" unicode="[" horiz-adv-x="575" 
d="M120 1707h400v-113h-285v-1769h285v-112h-400v1994z" />
    <glyph glyph-name="backslash" unicode="\" horiz-adv-x="1120" 
d="M40 1709h127l913 -1996h-126z" />
    <glyph glyph-name="bracketright" unicode="]" horiz-adv-x="577" 
d="M54 1707h400v-1994h-400v112h285v1769h-285v113z" />
    <glyph glyph-name="asciicircum" unicode="^" horiz-adv-x="715" 
d="M1 815l303 699h105l303 -699h-109l-246 572l-248 -572h-108z" />
    <glyph glyph-name="underscore" unicode="_" horiz-adv-x="1282" 
d="M24 -216v111h1233v-111h-1233z" />
    <glyph glyph-name="grave" unicode="`" horiz-adv-x="626" 
d="M218 1890l161 -326h-99l-184 326h122z" />
    <glyph glyph-name="a" unicode="a" horiz-adv-x="1364" 
d="M621 1435h122l574 -1435h-121l-119 296h-790l-119 -296h-121zM682 1290l-351 -882h702z" />
    <glyph glyph-name="b" unicode="b" horiz-adv-x="1172" 
d="M240 111h464.999c74.667 0 140.334 26.5 197.001 79.5s85 119.167 85 198.5c0 74 -27.333 138.667 -82 194s-121 83 -199 83h-466v-555zM577.999 1323h-338.001v-551h343c72.667 1.33301 136.834 28.333 192.501 81s83.5 117.667 83.5 195c0 74 -27.333 138.333 -82 193
s-121 82 -199 82zM970.998 1047c0 -60.667 -14.333 -116.999 -43 -168.999s-68.667 -95.667 -120 -131c86 -20.667 156.833 -63.334 212.5 -128.001s83.5 -142 83.5 -232c0 -106.667 -37.667 -197.834 -113 -273.501s-167.333 -113.5 -276 -113.5h-593v1434h460
c106.667 0 198.167 -37.167 274.5 -111.5s114.5 -166.166 114.5 -275.499z" />
    <glyph glyph-name="c" unicode="c" horiz-adv-x="1560" 
d="M1382 539l112.998 -35c-30 -101.333 -80.167 -190.5 -150.5 -267.5s-152.5 -135.667 -246.5 -176s-192.667 -60.5 -296 -60.5c-102 0 -198.167 19.5 -288.5 58.5s-167.166 91 -230.499 156s-113.5 141.333 -150.5 229s-55.5 178.834 -55.5 273.501s18.833 186 56.5 274
s88.5 164.667 152.5 230s141.167 117.5 231.5 156.5s185.5 58.5 285.5 58.5c159.333 0 302.833 -46.667 430.5 -140s214.834 -215 261.501 -365l-113 -35c-39.333 126 -112.5 228.833 -219.5 308.5s-226.833 119.5 -359.5 119.5c-108 0 -208.167 -26.5 -300.5 -79.5
s-166 -126.167 -221 -219.5s-82.5 -196 -82.5 -308c0 -108 26.167 -208.333 78.5 -301s125 -166.834 218 -222.501s195.5 -83.5 307.5 -83.5c133.333 0 253.333 39.5 360 118.5s179.667 182.5 219 310.5z" />
    <glyph glyph-name="d" unicode="d" horiz-adv-x="1269" 
d="M482 111c106.667 0 205.831 26.501 297.498 79.501s164.667 126 219 219s81.5 195.167 81.5 306.5c0 107.333 -25.667 207.166 -77 299.499s-123.166 166.333 -215.499 222s-194.166 83.5 -305.499 83.5h-242v-1210h242zM481.997 1433
c127.333 0 246.332 -32.001 356.999 -96.001s198.834 -151.167 264.501 -261.5s98.5 -230.166 98.5 -359.499c0 -95.333 -19.167 -187 -57.5 -275s-89.833 -164.167 -154.5 -228.5s-141.5 -115.833 -230.5 -154.5s-181.5 -58 -277.5 -58h-360v1433h360z" />
    <glyph glyph-name="e" unicode="e" horiz-adv-x="1084" 
d="M122 1434h919v-113h-801v-481h619v-112h-619v-616h801v-112h-919v1434z" />
    <glyph glyph-name="f" unicode="f" horiz-adv-x="1080" 
d="M121 1434h919v-113h-800v-481h619v-112h-619v-728h-119v1434z" />
    <glyph glyph-name="g" unicode="g" horiz-adv-x="1581" 
d="M802 840l713.002 0.00195312c7.33301 -42 11 -83 11 -123c0 -95.333 -19 -186.833 -57 -274.5s-89.167 -164 -153.5 -229s-141.333 -116.833 -231 -155.5s-183.834 -58 -282.501 -58c-96 0 -188.5 18.667 -277.5 56s-166.333 87.833 -232 151.5s-118 140 -157 229
s-58.5 182.5 -58.5 280.5c0 96 19 188.167 57 276.5s89.167 164.666 153.5 228.999s141.333 115.666 231 153.999s184.167 57.5 283.5 57.5c154 0 294.333 -44 421 -132l-72 -90c-103.333 73.333 -219.666 110 -348.999 110c-108 0 -208.167 -26.333 -300.5 -79
s-165.833 -125.5 -220.5 -218.5s-82 -195.5 -82 -307.5c0 -107.333 26.167 -207.333 78.5 -300s125 -166.834 218 -222.501s195.167 -83.5 306.5 -83.5c104.667 0 202.167 25.167 292.5 75.5s163.166 120 218.499 209s84.666 187.167 87.999 294.5
c0.666992 8.66699 1 21.334 1 38.001h-600v112z" />
    <glyph glyph-name="h" unicode="h" horiz-adv-x="1317" 
d="M1075 1435h120v-1435h-120v727h-835v-727h-119v1435h119v-594h835v594z" />
    <glyph glyph-name="i" unicode="i" horiz-adv-x="377" 
d="M121 0v1434h119v-1434h-119z" />
    <glyph glyph-name="j" unicode="j" horiz-adv-x="708" 
d="M481 1433l118.001 0.000976562v-1059c0 -104 -36.333 -192.333 -109 -265s-161 -109 -265 -109c-66.667 0 -128.334 16.333 -185.001 49l57 104c40.667 -23.333 83.334 -35 128.001 -35c69.333 0 129.666 25 180.999 75c50 51.333 75 111.666 75 180.999v1059z" />
    <glyph glyph-name="k" unicode="k" horiz-adv-x="1239" 
d="M885 1434h150l-432 -448l574 -986h-132l-524 901l-281 -291v-610h-119v1434h119v-667z" />
    <glyph glyph-name="l" unicode="l" horiz-adv-x="1079" 
d="M121 1434h119v-1321h799v-113h-918v1434z" />
    <glyph glyph-name="m" unicode="m" horiz-adv-x="1618" 
d="M1415 1434h81v-1434h-118v1222l-569 -761l-571 762v-1223h-118v1434h81l608 -807z" />
    <glyph glyph-name="n" unicode="n" horiz-adv-x="1377" 
d="M1136 1434h119v-1434h-81l-935 1226v-1226h-118v1434h81l934 -1227v1227z" />
    <glyph glyph-name="o" unicode="o" horiz-adv-x="1605" 
d="M199 717c0 -80.667 15.502 -158.001 46.502 -232.001s73 -138.5 126 -193.5s117.167 -98.833 192.5 -131.5s154.666 -49 237.999 -49c108.667 0 209.167 26.667 301.5 80s165.666 126.5 219.999 219.5s81.5 195.167 81.5 306.5c0 109.333 -26.5 210.333 -79.5 303
s-125.833 166.334 -218.5 221.001s-194.334 82 -305.001 82c-108.667 0 -209.167 -26.667 -301.5 -80s-165.666 -126.5 -219.999 -219.5s-81.5 -195.167 -81.5 -306.5zM78.002 716.999c0 102.667 20.167 199.166 60.5 289.499s93.833 166.5 160.5 228.5
s143.834 110.833 231.501 146.5s178.167 53.5 271.5 53.5c104 0 201.667 -19.833 293 -59.5s168.166 -92.667 230.499 -159s111.5 -142.833 147.5 -229.5s54 -176.667 54 -270c0 -103.333 -20.167 -200.166 -60.5 -290.499s-94 -166.333 -161 -228
s-144.333 -110.167 -232 -145.5s-178.167 -53 -271.5 -53c-132.667 0 -254.667 32.667 -366 98s-198.833 152.833 -262.5 262.5s-95.5 228.5 -95.5 356.5z" />
    <glyph glyph-name="p" unicode="p" 
d="M239 772l466 0.000976562c74 0 139.333 26.333 196 79s85 118 85 196c0 73.333 -27.333 137.166 -82 191.499s-121 81.5 -199 81.5h-466v-548zM121 1434h593.001c70 -0.666992 134.667 -17.5 194 -50.5s106.666 -79 141.999 -138s53 -125.167 53 -198.5
c0 -106 -37.667 -196.833 -113 -272.5s-167.333 -113.5 -276 -113.5h-475v-661h-118v1434z" />
    <glyph glyph-name="q" unicode="q" horiz-adv-x="1593" 
d="M184 717c0 -108 25.999 -208.165 77.999 -300.498s124.5 -166.333 217.5 -222s195.5 -83.5 307.5 -83.5c80 0 157 15.667 231 47s138.167 73.666 192.5 126.999s97.833 117.666 130.5 192.999s49 155 49 239c0 80 -15.5 157 -46.5 231s-72.833 138.5 -125.5 193.5
s-116.667 98.833 -192 131.5s-155 49 -239 49c-107.333 0 -207.166 -26.333 -299.499 -79s-166 -125.5 -221 -218.5s-82.5 -195.5 -82.5 -307.5zM786.999 1434c96 0 188.331 -18.667 276.998 -56s165.834 -87.5 231.501 -150.5s118.167 -139.167 157.5 -228.5
s59 -183.333 59 -282c0 -103.333 -21.667 -201.166 -65 -293.499s-105 -174.166 -185 -245.499l174 -233l-96 -71l-174 236c-116 -73.333 -242.333 -110 -379 -110c-96 0 -188.167 18.667 -276.5 56s-165.333 87.5 -231 150.5s-118.167 139.167 -157.5 228.5
s-59 183.333 -59 282c0 96 19 188.167 57 276.5s89.167 164.666 153.5 228.999s141.333 115.666 231 153.999s183.834 57.5 282.501 57.5z" />
    <glyph glyph-name="r" unicode="r" horiz-adv-x="1257" 
d="M239 1320v-547.999h466c74 0 139.333 26.333 196 79s85 118 85 196c0 73.333 -27.5 137.166 -82.5 191.499s-121.5 81.5 -199.5 81.5h-465zM1182 0.000976562l-135 -0.00292969l-384 661h-424v-661h-118v1434h593c106 0 197.333 -37.167 274 -111.5
s115 -166.166 115 -275.499c0 -91.333 -28.333 -171.666 -85 -240.999s-132 -114.666 -226 -135.999z" />
    <glyph glyph-name="s" unicode="s" horiz-adv-x="1300" 
d="M72 252l75 83.998c84.667 -76 173 -132.167 265 -168.5s181.667 -54.833 269 -55.5c123.333 0 226.5 28.833 309.5 86.5s124.5 129.834 124.5 216.501c0 42.667 -11.667 79.167 -35 109.5s-54.5 54 -93.5 71s-84 31.167 -135 42.5s-104.5 21 -160.5 29
s-112.167 16.667 -168.5 26s-110 22 -161 38s-96 35.833 -135 59.5s-70.167 56 -93.5 97s-35 89.167 -35 144.5c0 87.333 23 161.833 69 223.5s106.167 107 180.5 136s159.5 43.833 255.5 44.5c89.333 0 179.666 -14.5 270.999 -43.5s176.333 -71.833 255 -128.5l-69 -88
c-66.667 48.667 -140 85.667 -220 111s-158.333 38 -235 38c-115.333 0 -209 -24.5 -281 -73.5s-108 -120.5 -108 -214.5c0 -43.333 11.667 -80.166 35 -110.499s54.5 -53.833 93.5 -70.5s84 -30.5 135 -41.5s104.667 -20.5 161 -28.5s112.5 -16.5 168.5 -25.5
s109.5 -21.667 160.5 -38s96 -36.666 135 -60.999s70.167 -57.333 93.5 -99s35 -90.834 35 -147.501c0 -119.333 -53 -218.5 -159 -297.5s-237 -118.167 -393 -117.5c-100 0.666992 -202.167 21.5 -306.5 62.5s-205.166 104.167 -302.499 189.5z" />
    <glyph glyph-name="t" unicode="t" horiz-adv-x="1329" 
d="M43 1434h1243v-113h-562v-1321h-119v1321h-562v113z" />
    <glyph glyph-name="u" unicode="u" horiz-adv-x="1265" 
d="M1041 1434h120.001v-897c0 -96 -22.667 -185 -68 -267s-108.833 -147.5 -190.5 -196.5s-171.834 -73.5 -270.501 -73.5c-71.333 0 -139.5 14 -204.5 42s-121.167 65.667 -168.5 113s-85 104.333 -113 171s-42 137 -42 211v897h118v-894
c0 -114 39.167 -213.667 117.5 -299s175.833 -128 292.5 -128c114 0 210.667 41.667 290 125s119 184 119 302v894z" />
    <glyph glyph-name="v" unicode="v" horiz-adv-x="1363" 
d="M1188 1434h129l-575 -1434h-121l-575 1434h128l507 -1273z" />
    <glyph glyph-name="w" unicode="w" horiz-adv-x="1807" 
d="M1610 1433h125l-380 -1433h-122l-330 1244l-330 -1244h-121l-380 1433h124l324 -1224l323 1224h120l323 -1224z" />
    <glyph glyph-name="x" unicode="x" horiz-adv-x="1397" 
d="M1114 1435h142l-487 -676l548 -759h-142l-477 661l-476 -661h-141l546 759l-486 676h142l415 -577z" />
    <glyph glyph-name="y" unicode="y" horiz-adv-x="1197" 
d="M1016 1434h138l-497 -830v-604h-119v605l-495 829h137l418 -707z" />
    <glyph glyph-name="z" unicode="z" horiz-adv-x="1236" 
d="M62 1434h1112v-79l-953 -1242h953v-113h-1112v78l954 1243h-954v113z" />
    <glyph glyph-name="braceleft" unicode="{" horiz-adv-x="724" 
d="M220 717c50 -20.667 86.001 -59.8291 108.001 -117.496s33 -118.834 33 -183.501v-303c0 -82 28.833 -148.333 86.5 -199s129.5 -76.667 215.5 -78v-114c-120 1.33301 -220.167 37.666 -300.5 108.999s-120.5 165.333 -120.5 282v307c0 76.667 -14.833 135.667 -44.5 177
s-81.834 62.666 -156.501 63.999v111c72 0 123.5 20.833 154.5 62.5s46.5 101.5 46.5 179.5v307c0 116 40 209.167 120 279.5s180.333 107.166 301 110.499v-114c-84.667 -1.33301 -156.334 -26.5 -215.001 -75.5s-88 -115.833 -88 -200.5v-303c0 -28 -2 -55.833 -6 -83.5
s-10.833 -56.167 -20.5 -85.5s-24.167 -55.833 -43.5 -79.5s-42.666 -41.167 -69.999 -52.5z" />
    <glyph glyph-name="bar" unicode="|" horiz-adv-x="371" 
d="M120 -287v1995h116v-1995h-116z" />
    <glyph glyph-name="braceright" unicode="}" horiz-adv-x="723" 
d="M503 717c-27.333 11.333 -50.665 28.8281 -69.998 52.4951s-33.833 50.167 -43.5 79.5s-16.5 57.833 -20.5 85.5s-6 55.5 -6 83.5v303c0 84.667 -29.333 151.5 -88 200.5s-130.334 74.167 -215.001 75.5v114c120.667 -3.33301 221 -40.166 301 -110.499
s120 -163.5 120 -279.5v-307c0 -78 15.5 -137.833 46.5 -179.5s82.5 -62.5 154.5 -62.5v-111c-74.667 -1.33301 -126.834 -22.666 -156.501 -63.999s-44.5 -100.333 -44.5 -177v-307c0 -116.667 -40.167 -210.667 -120.5 -282s-180.5 -107.666 -300.5 -108.999v114
c86 1.33301 157.833 27.333 215.5 78s86.5 117 86.5 199v303c0 64.667 11 125.834 33 183.501s58 96.834 108 117.501z" />
    <glyph glyph-name="asciitilde" unicode="~" horiz-adv-x="926" 
d="M158 618l-65.999 71c85.333 74.667 163.666 112 234.999 112c34.667 0 80 -12 136 -36s99.333 -36 130 -36c54.667 0 113.334 27 176.001 81l66 -71c-86.667 -75.333 -165.334 -113 -236.001 -113c-34.667 0 -80 12 -136 36s-99.333 36 -130 36
c-54.667 0 -113 -26.667 -175 -80z" />
    <glyph glyph-name="uni0401" unicode="&#x401;" horiz-adv-x="1059" 
d="M90 1434h919v-114h-800v-482h619v-113h-619v-613h800v-112h-919v1434zM426 1682c0 -21.333 -8.00195 -40.168 -24.002 -56.501s-35.333 -24.5 -58 -24.5c-21.333 0 -40.166 7.83301 -56.499 23.5s-24.5 34.834 -24.5 57.501c0 21.333 7.83301 40.333 23.5 57
s34.834 25 57.501 25c22 0 41.167 -7.83301 57.5 -23.5s24.5 -35.167 24.5 -58.5zM836.998 1682c0 -22 -8.00195 -41.001 -24.002 -57.001s-35.333 -24 -58 -24c-21.333 0 -40.166 7.83301 -56.499 23.5s-24.5 34.834 -24.5 57.501c0 21.333 7.83301 40.333 23.5 57
s34.834 25 57.501 25c22 0 41.167 -8 57.5 -24s24.5 -35.333 24.5 -58z" />
    <glyph glyph-name="uni0410" unicode="&#x410;" horiz-adv-x="1364" 
d="M621 1435h122l574 -1435h-121l-119 296h-790l-119 -296h-121zM682 1290l-351 -882h702z" />
    <glyph glyph-name="uni0411" unicode="&#x411;" horiz-adv-x="1155" 
d="M238 661v-549h466c72.667 0 137.667 26.5 195 79.5s86 118.167 86 195.5c0 73.333 -27.333 137.333 -82 192s-121 82 -199 82h-466zM238 772l475 0.000976562c106 0 197.5 -36.833 274.5 -110.5s115.5 -165.167 115.5 -274.5c0 -106.667 -37.667 -197.834 -113 -273.501
s-167.333 -113.5 -276 -113.5h-594v1434h849v-114h-731v-548z" />
    <glyph glyph-name="uni0412" unicode="&#x412;" horiz-adv-x="1172" 
d="M240 111h464.999c74.667 0 140.334 26.5 197.001 79.5s85 119.167 85 198.5c0 74 -27.333 138.667 -82 194s-121 83 -199 83h-466v-555zM577.999 1323h-338.001v-551h343c72.667 1.33301 136.834 28.333 192.501 81s83.5 117.667 83.5 195c0 74 -27.333 138.333 -82 193
s-121 82 -199 82zM970.998 1047c0 -60.667 -14.333 -116.999 -43 -168.999s-68.667 -95.667 -120 -131c86 -20.667 156.833 -63.334 212.5 -128.001s83.5 -142 83.5 -232c0 -106.667 -37.667 -197.834 -113 -273.501s-167.333 -113.5 -276 -113.5h-593v1434h460
c106.667 0 198.167 -37.167 274.5 -111.5s114.5 -166.166 114.5 -275.499z" />
    <glyph glyph-name="uni0413" unicode="&#x413;" horiz-adv-x="1078" 
d="M239 0h-119v1434h918v-113h-799v-1321z" />
    <glyph glyph-name="uni0414" unicode="&#x414;" horiz-adv-x="1534" 
d="M1131 1321l-583 -0.000976562c0 -96.667 -0.5 -175.5 -1.5 -236.5s-5 -141.167 -12 -240.5s-17 -185.666 -30 -258.999s-32.167 -153 -57.5 -239s-56.333 -163.667 -93 -233h777v1208zM1249 1434v-1321h196v-410h-119v297h-1140v-297h-118v410h153
c28 45.333 53.167 97.333 75.5 156s40.666 116 54.999 172s26.833 121.333 37.5 196s18.5 140.334 23.5 197.001s9 126.334 12 209.001s4.83301 148.334 5.5 197.001s1.33398 113.334 2.00098 194.001h817z" />
    <glyph glyph-name="uni0415" unicode="&#x415;" horiz-adv-x="1082" 
d="M120 1434h919v-113h-800v-481h618v-112h-618v-616h800v-112h-919v1434z" />
    <glyph glyph-name="uni0416" unicode="&#x416;" horiz-adv-x="2131" 
d="M1236 837l803 -837h-151l-764 795v-795h-117v795l-764 -795h-151l803 837l-682 598h157l637 -556v556h117v-556l637 556h157z" />
    <glyph glyph-name="uni0417" unicode="&#x417;" horiz-adv-x="1299" 
d="M59 253l76.0039 85c163.333 -149.333 339 -224.666 527 -225.999c126 0 231.167 31.833 315.5 95.5s126.5 138.834 126.5 225.501c0 42 -13.333 78.5 -40 109.5s-58.334 54.333 -95.001 70s-80.5 28.334 -131.5 38.001s-94 15.5 -129 17.5s-70.833 3 -107.5 3h-227v110
l227 1c31.333 0 64 1.66699 98 5s71.5 10.333 112.5 21s77.333 24.167 109 40.5s58.167 39.166 79.5 68.499s32 62.666 32 99.999c0 65.333 -19.5 121.833 -58.5 169.5s-88.667 82.834 -149 105.501s-126.833 34 -199.5 34
c-162.667 -1.33301 -312.334 -51.666 -449.001 -150.999l-69 87c162 116 335.667 174 521 174c95.333 0 182.333 -16.5 261 -49.5s142 -81.833 190 -146.5s72 -139.667 72 -225c0 -76 -23.5 -135.667 -70.5 -179s-112.833 -77 -197.5 -101
c49.333 -10.667 92.333 -22.834 129 -36.501s72 -31.834 106 -54.501s60 -51.667 78 -87s27 -76.666 27 -123.999c-0.666992 -118.667 -54.334 -220.334 -161.001 -305.001s-237.334 -127.334 -392.001 -128.001c-107.333 -0 -213 21.833 -317 65.5s-202 106.167 -294 187.5
z" />
    <glyph glyph-name="uni0418" unicode="&#x418;" horiz-adv-x="1376" 
d="M120 1434h119v-1228l934 1228h82v-1434h-119v1227l-935 -1227h-81v1434z" />
    <glyph glyph-name="uni0419" unicode="&#x419;" horiz-adv-x="1298" 
d="M1127 1432h81v-1432h-118v1226l-934 -1226h-81v1432h119v-1226l477 626.5zM799 1825l85 -74l-282 -366l-42 36.5c-18.667 16.333 -33 28.5 -43 36.5z" />
    <glyph glyph-name="uni041A" unicode="&#x41a;" horiz-adv-x="1223" 
d="M876 1435h156l-681 -598l802 -837h-151l-411.5 428l-352.5 367v-795h-118v1435h118v-556z" />
    <glyph glyph-name="uni041B" unicode="&#x41b;" horiz-adv-x="1473" 
d="M487 1434h864.001v-1434h-118v1321h-628v-947c0 -104 -36.333 -192.333 -109 -265s-160.667 -109 -264 -109c-66.667 -0 -128.667 16.333 -186 49l58 105c40.667 -23.333 83 -35 127 -35c71.333 0 131.666 25 180.999 75c50 49.333 75 109.333 75 180v1060z" />
    <glyph glyph-name="uni041C" unicode="&#x41c;" horiz-adv-x="1618" 
d="M1415 1434h81v-1434h-118v1222l-569 -761l-571 762v-1223h-118v1434h81l608 -807z" />
    <glyph glyph-name="uni041D" unicode="&#x41d;" horiz-adv-x="1315" 
d="M1074 1435h119v-1435h-119v727h-836v-727h-118v1435h118v-594h836v594z" />
    <glyph glyph-name="uni041E" unicode="&#x41e;" horiz-adv-x="1605" 
d="M199 717c0 -80.667 15.502 -158.001 46.502 -232.001s73 -138.5 126 -193.5s117.167 -98.833 192.5 -131.5s154.666 -49 237.999 -49c108.667 0 209.167 26.667 301.5 80s165.666 126.5 219.999 219.5s81.5 195.167 81.5 306.5c0 109.333 -26.5 210.333 -79.5 303
s-125.833 166.334 -218.5 221.001s-194.334 82 -305.001 82c-108.667 0 -209.167 -26.667 -301.5 -80s-165.666 -126.5 -219.999 -219.5s-81.5 -195.167 -81.5 -306.5zM78.002 716.999c0 102.667 20.167 199.166 60.5 289.499s93.833 166.5 160.5 228.5
s143.834 110.833 231.501 146.5s178.167 53.5 271.5 53.5c104 0 201.667 -19.833 293 -59.5s168.166 -92.667 230.499 -159s111.5 -142.833 147.5 -229.5s54 -176.667 54 -270c0 -103.333 -20.167 -200.166 -60.5 -290.499s-94 -166.333 -161 -228
s-144.333 -110.167 -232 -145.5s-178.167 -53 -271.5 -53c-132.667 0 -254.667 32.667 -366 98s-198.833 152.833 -262.5 262.5s-95.5 228.5 -95.5 356.5z" />
    <glyph glyph-name="uni041F" unicode="&#x41f;" horiz-adv-x="1314" 
d="M120 1434h1073v-1434h-119v1321h-835v-1321h-119v1434z" />
    <glyph glyph-name="uni0420" unicode="&#x420;" 
d="M238 772l466 0.000976562c74 0 139.333 26.333 196 79s85 118 85 196c0 73.333 -27.333 137.166 -82 191.499s-121 81.5 -199 81.5h-466v-548zM120 1434h593.001c70 -0.666992 134.667 -17.5 194 -50.5s106.833 -79 142.5 -138s53.5 -125.167 53.5 -198.5
c0 -106 -37.833 -196.833 -113.5 -272.5s-167.834 -113.5 -276.501 -113.5h-475v-661h-118v1434z" />
    <glyph glyph-name="uni0421" unicode="&#x421;" horiz-adv-x="1559" 
d="M1381 539l114 -34.999c-46 -152.667 -133.667 -274.834 -263 -366.501s-273 -137.5 -431 -137.5c-101.333 0 -197.333 19.5 -288 58.5s-167.667 91 -231 156s-113.333 141.333 -150 229s-55 178.834 -55 273.501c0 126.667 31.667 245 95 355s151 198.167 263 264.5
s234.333 99.5 367 99.5c159.333 0 302.833 -46.667 430.5 -140s215.167 -215 262.5 -365l-114 -35c-39.333 126 -112.5 228.833 -219.5 308.5s-226.833 119.5 -359.5 119.5c-108 0 -208.167 -26.5 -300.5 -79.5s-165.833 -126.167 -220.5 -219.5s-82 -196 -82 -308
c0 -108 26.167 -208.333 78.5 -301s124.833 -166.834 217.5 -222.501s195 -83.5 307 -83.5c133.333 0 253.333 39.5 360 118.5s179.667 182.5 219 310.5z" />
    <glyph glyph-name="uni0422" unicode="&#x422;" horiz-adv-x="1329" 
d="M43 1434h1243v-113h-562v-1321h-119v1321h-562v113z" />
    <glyph glyph-name="uni0423" unicode="&#x423;" horiz-adv-x="1319" 
d="M149 153c39.333 -22 81.667 -33.667 127 -35c101.333 0 180.333 52 237 156l111 201l-522 959h131l456 -840l459 840h131l-658 -1202c-37.333 -68.667 -85.5 -124.667 -144.5 -168s-125.833 -64.666 -200.5 -63.999c-64 1.33301 -125.333 17.666 -184 48.999z" />
    <glyph glyph-name="uni0424" unicode="&#x424;" horiz-adv-x="1676" 
d="M897 1187l0.000976562 -943c55.333 1.33301 111.166 8.83301 167.499 22.5s110.333 34.167 162 61.5s97.834 59.333 138.501 96s73 80.167 97 130.5s36 103.833 36 160.5s-12 110.167 -36 160.5s-56 93.833 -96 130.5s-85.833 68.667 -137.5 96s-105.834 48 -162.501 62
s-113 21.667 -169 23zM778.001 244l-0.000976562 943.001c-55.333 -1.33301 -111.166 -9 -167.499 -23s-110.333 -34.5 -162 -61.5s-97.667 -58.833 -138 -95.5s-72.5 -80.334 -96.5 -131.001s-36 -104.334 -36 -161.001c0 -70 18.333 -135 55 -195
s84.167 -109.5 142.5 -148.5s122.5 -69.667 192.5 -92s140 -34.166 210 -35.499zM897 1434l0.000976562 -134.999c68 -2.66699 135.833 -12.5 203.5 -29.5s132.667 -42 195 -75s117.333 -71.833 165 -116.5s85.667 -98.334 114 -161.001s42.5 -130 42.5 -202
c0 -71.333 -14.167 -138.166 -42.5 -200.499s-66.333 -115.666 -114 -159.999s-102.667 -83 -165 -116s-127.166 -58.167 -194.499 -75.5s-135.333 -28 -204 -32v-131h-119v131c-63.333 0.666992 -128.333 9.5 -195 26.5s-131.167 42.167 -193.5 75.5
s-118.166 72.666 -167.499 117.999s-88.833 99.666 -118.5 162.999s-44.5 130.333 -44.5 201c0 71.333 14.167 138 42.5 200s66.166 115.333 113.499 160s102.166 83.5 164.499 116.5s127.166 58.167 194.499 75.5s135.333 28 204 32v135h119z" />
    <glyph glyph-name="uni0425" unicode="&#x425;" horiz-adv-x="1397" 
d="M1114 1435h142l-487 -676l548 -759h-142l-477 661l-476 -661h-141l546 759l-486 676h142l415 -577z" />
    <glyph glyph-name="uni0426" unicode="&#x426;" horiz-adv-x="1405" 
d="M1002 1434h119v-1321h198v-410h-119v297h-1138v1434h118v-1321h822v1321z" />
    <glyph glyph-name="uni0427" unicode="&#x427;" horiz-adv-x="1162" 
d="M923 1434h117.999v-1434h-118v643c-166.667 -60.667 -314.667 -91 -444 -91c-139.333 0.666992 -247.166 35.167 -323.499 103.5s-114.5 171.5 -114.5 309.5v467h118v-454c0 -209.333 110 -314 330 -314c117.333 0 262 32.333 434 97v673z" />
    <glyph glyph-name="uni0428" unicode="&#x428;" horiz-adv-x="1835" 
d="M1596 1436h118v-1436h-1594v1436h119v-1323h618v1323h119v-1323h620v1323z" />
    <glyph glyph-name="uni0429" unicode="&#x429;" horiz-adv-x="1946" 
d="M1534 1434h119v-1321h198v-410h-119v297h-1671v1434h118v-1321h618v1321h119v-1321h618v1321z" />
    <glyph glyph-name="uni042A" unicode="&#x42a;" horiz-adv-x="1358" 
d="M453 662v-549h467c73.333 0 138.5 26.333 195.5 79s85.5 117.667 85.5 195c0 73.333 -27.333 137.5 -82 192.5s-121 82.5 -199 82.5h-467zM453 773l476 -0.00292969c106 -1.33301 197.167 -38.666 273.5 -111.999s114.5 -164.666 114.5 -273.999
c0 -107.333 -37.5 -198.666 -112.5 -273.999s-166.833 -113 -275.5 -113h-594v1322h-276v112h394v-661z" />
    <glyph glyph-name="uni042B" unicode="&#x42b;" horiz-adv-x="1507" 
d="M238 662v-550h467c74 0 139.167 26.333 195.5 79s84.5 118 84.5 196c0 73.333 -27.167 137.333 -81.5 192s-120.5 82 -198.5 82zM238 772l476 -0.000976562c106.667 0 198.167 -37 274.5 -111s114.5 -165.333 114.5 -274c0 -107.333 -37.5 -198.666 -112.5 -273.999
s-167.167 -113 -276.5 -113h-594v1434h118v-662zM1386 1434v-1434h-119v1434h119z" />
    <glyph glyph-name="uni042C" unicode="&#x42c;" 
d="M238 661v-549h466c74 0 139.333 26.333 196 79s85 118 85 196c0 74 -27.167 138.167 -81.5 192.5s-120.833 81.5 -199.5 81.5h-466zM238 772l475 -0.000976562c106.667 0 198.334 -37 275.001 -111s115 -165.333 115 -274c0 -107.333 -37.833 -198.666 -113.5 -273.999
s-167.834 -113 -276.501 -113h-593v1434h118v-662z" />
    <glyph glyph-name="uni042D" unicode="&#x42d;" horiz-adv-x="1556" 
d="M755 1434c96 0 188.331 -18.835 276.998 -56.502s165.834 -88.5 231.501 -152.5s118.167 -140.5 157.5 -229.5s59 -182.167 59 -279.5c0 -96 -19.333 -188 -58 -276s-90.334 -164.167 -155.001 -228.5s-141.667 -115.666 -231 -153.999s-182.333 -57.5 -279 -57.5
c-156.667 0 -300 46.667 -430 140s-218 214.666 -264 363.999l113 34c40 -125.333 112.833 -228 218.5 -308s225.834 -120 360.501 -120c102.667 0 197.5 23.5 284.5 70.5s158.167 112.333 213.5 196s88.666 178.167 99.999 283.5h-785v112h785
c-6 74.667 -25.667 145.834 -59 213.501s-76.166 126.167 -128.499 175.5s-114.166 88.5 -185.499 117.5s-146.333 43.5 -225 43.5c-130.667 0 -249 -39 -355 -117s-180.333 -181 -223 -309l-113 34c48.667 148.667 136.5 269.834 263.5 363.501s269.5 140.5 427.5 140.5z
" />
    <glyph glyph-name="uni042E" unicode="&#x42e;" horiz-adv-x="2049" 
d="M1244 1322c-80 0 -156.67 -15.6689 -230.003 -47.002s-137.166 -73.666 -191.499 -126.999s-97.666 -117.666 -129.999 -192.999s-48.5 -154.666 -48.5 -237.999c0 -107.333 25.833 -207.166 77.5 -299.499s123.834 -166.333 216.501 -222s194.667 -83.5 306 -83.5
c106.667 0 206 26.5 298 79.5s165.5 126 220.5 219s82.5 195.167 82.5 306.5c0 109.333 -25.833 209.666 -77.5 300.999s-123.5 164.166 -215.5 218.499s-194.667 82.833 -308 85.5zM1244 1434c127.333 0 246.332 -31.835 356.999 -95.502s199 -150.834 265 -261.501
s99 -230.667 99 -360c0 -95.333 -19.167 -187.166 -57.5 -275.499s-89.666 -164.666 -153.999 -228.999s-141 -115.666 -230 -153.999s-182.167 -57.5 -279.5 -57.5c-121.333 0 -234.166 28 -338.499 84s-190 134.5 -257 235.5s-107.5 214.167 -121.5 339.5h-288v-660h-119
v1433h119v-660h288c12 123.333 50.5 235 115.5 335s150.167 179 255.5 237s220.666 87.667 345.999 89z" />
    <glyph glyph-name="uni042F" unicode="&#x42f;" horiz-adv-x="1257" 
d="M1017 772v548h-466c-74 0 -139.167 -26 -195.5 -78s-84.5 -117 -84.5 -195c0 -74 27.167 -138.333 81.5 -193s120.5 -82 198.5 -82h466zM1017 661l-424 -0.000976562l-384 -661h-135l390 670c-90 18 -164.333 61.667 -223 131s-88 151.333 -88 246
c0 106.667 37.667 197.834 113 273.501s167.333 113.5 276 113.5h594v-1434h-119v661z" />
    <glyph glyph-name="uni0430" unicode="&#x430;" horiz-adv-x="1364" 
d="M621 1435h122l574 -1435h-121l-119 296h-790l-119 -296h-121zM682 1284l-351 -876h702z" />
    <glyph glyph-name="uni0431" unicode="&#x431;" horiz-adv-x="1155" 
d="M238 661v-549h466c72.667 0 137.667 26.5 195 79.5s86 118.167 86 195.5c0 73.333 -27.333 137.333 -82 192s-121 82 -199 82h-466zM238 772l475 0.000976562c106 0 197.5 -36.833 274.5 -110.5s115.5 -165.167 115.5 -274.5c0 -106.667 -37.667 -197.834 -113 -273.501
s-167.333 -113.5 -276 -113.5h-594v1434h849v-114h-731v-548z" />
    <glyph glyph-name="uni0432" unicode="&#x432;" horiz-adv-x="1172" 
d="M240 111h464.999c74.667 0 140.334 26.5 197.001 79.5s85 119.167 85 198.5c0 74 -27.333 138.667 -82 194s-121 83 -199 83h-466v-555zM577.999 1323h-338.001v-551h343c72.667 1.33301 136.834 28.333 192.501 81s83.5 117.667 83.5 195c0 74 -27.333 138.333 -82 193
s-121 82 -199 82zM970.998 1047c0 -60.667 -14.333 -116.999 -43 -168.999s-68.667 -95.667 -120 -131c86 -20.667 156.833 -63.334 212.5 -128.001s83.5 -142 83.5 -232c0 -106.667 -37.667 -197.834 -113 -273.501s-167.333 -113.5 -276 -113.5h-593v1434h460
c106.667 0 198.167 -37.167 274.5 -111.5s114.5 -166.166 114.5 -275.499z" />
    <glyph glyph-name="uni0433" unicode="&#x433;" horiz-adv-x="1078" 
d="M239 0h-119v1434h918v-113h-799v-1321z" />
    <glyph glyph-name="uni0434" unicode="&#x434;" horiz-adv-x="1534" 
d="M1131 1321l-583 -0.000976562c0 -96.667 -0.5 -175.5 -1.5 -236.5s-5 -141.167 -12 -240.5s-17 -185.666 -30 -258.999s-32.167 -153 -57.5 -239s-56.333 -163.667 -93 -233h777v1208zM1249 1434v-1321h196v-410h-119v297h-1140v-297h-118v410h153
c28 45.333 53.167 97.333 75.5 156s40.666 116 54.999 172s26.833 121.333 37.5 196s18.5 140.334 23.5 197.001s9 126.334 12 209.001s4.83301 148.334 5.5 197.001s1.33398 113.334 2.00098 194.001h817z" />
    <glyph glyph-name="uni0435" unicode="&#x435;" horiz-adv-x="1082" 
d="M120 1434h919v-113h-800v-481h618v-112h-618v-616h800v-112h-919v1434z" />
    <glyph glyph-name="uni0436" unicode="&#x436;" horiz-adv-x="2131" 
d="M1236 837l803 -837h-151l-764 795v-795h-117v795l-764 -795h-151l803 837l-682 598h157l637 -556v556h117v-556l637 556h157z" />
    <glyph glyph-name="uni0437" unicode="&#x437;" horiz-adv-x="1299" 
d="M59 253l76.0039 85c163.333 -149.333 339 -224.666 527 -225.999c126 0 231.167 31.833 315.5 95.5s126.5 138.834 126.5 225.501c0 42 -13.333 78.5 -40 109.5s-58.334 54.333 -95.001 70s-80.5 28.334 -131.5 38.001s-94 15.5 -129 17.5s-70.833 3 -107.5 3h-227v110
l227 1c31.333 0 64 1.66699 98 5s71.5 10.333 112.5 21s77.333 24.167 109 40.5s58.167 39.166 79.5 68.499s32 62.666 32 99.999c0 65.333 -19.5 121.833 -58.5 169.5s-88.667 82.834 -149 105.501s-126.833 34 -199.5 34
c-162.667 -1.33301 -312.334 -51.666 -449.001 -150.999l-69 87c162 116 335.667 174 521 174c95.333 0 182.333 -16.5 261 -49.5s142 -81.833 190 -146.5s72 -139.667 72 -225c0 -76 -23.5 -135.667 -70.5 -179s-112.833 -77 -197.5 -101
c49.333 -10.667 92.333 -22.834 129 -36.501s72 -31.834 106 -54.501s60 -51.667 78 -87s27 -76.666 27 -123.999c-0.666992 -118.667 -54.334 -220.334 -161.001 -305.001s-237.334 -127.334 -392.001 -128.001c-107.333 -0 -213 21.833 -317 65.5s-202 106.167 -294 187.5
z" />
    <glyph glyph-name="uni0438" unicode="&#x438;" horiz-adv-x="1376" 
d="M120 1434h119v-1228l934 1228h82v-1434h-119v1227l-935 -1227h-81v1434z" />
    <glyph glyph-name="uni0439" unicode="&#x439;" horiz-adv-x="1298" 
d="M1127 1432h81v-1432h-118v1226l-934 -1226h-81v1432h119v-1226l477 626.5zM799 1825l85 -74l-282 -366l-42 36.5c-18.667 16.333 -33 28.5 -43 36.5z" />
    <glyph glyph-name="uni043A" unicode="&#x43a;" horiz-adv-x="1223" 
d="M876 1435h156l-681 -598l802 -837h-151l-411.5 428l-352.5 367v-795h-118v1435h118v-556z" />
    <glyph glyph-name="uni043B" unicode="&#x43b;" horiz-adv-x="1473" 
d="M487 1434h864.001v-1434h-118v1321h-628v-947c0 -104 -36.333 -192.333 -109 -265s-160.667 -109 -264 -109c-66.667 -0 -128.667 16.333 -186 49l58 105c40.667 -23.333 83 -35 127 -35c71.333 0 131.666 25 180.999 75c50 49.333 75 109.333 75 180v1060z" />
    <glyph glyph-name="uni043C" unicode="&#x43c;" horiz-adv-x="1618" 
d="M1415 1434h81v-1434h-118v1222l-569 -761l-571 762v-1223h-118v1434h81l608 -807z" />
    <glyph glyph-name="uni043D" unicode="&#x43d;" horiz-adv-x="1315" 
d="M1074 1435h119v-1435h-119v727h-836v-727h-118v1435h118v-594h836v594z" />
    <glyph glyph-name="uni043E" unicode="&#x43e;" horiz-adv-x="1605" 
d="M199 717c0 -80.667 15.502 -158.001 46.502 -232.001s73 -138.5 126 -193.5s117.167 -98.833 192.5 -131.5s154.666 -49 237.999 -49c108.667 0 209.167 26.667 301.5 80s165.666 126.5 219.999 219.5s81.5 195.167 81.5 306.5c0 109.333 -26.5 210.333 -79.5 303
s-125.833 166.334 -218.5 221.001s-194.334 82 -305.001 82c-108.667 0 -209.167 -26.667 -301.5 -80s-165.666 -126.5 -219.999 -219.5s-81.5 -195.167 -81.5 -306.5zM78.002 716.999c0 102.667 20.167 199.166 60.5 289.499s93.833 166.5 160.5 228.5
s143.834 110.833 231.501 146.5s178.167 53.5 271.5 53.5c104 0 201.667 -19.833 293 -59.5s168.166 -92.667 230.499 -159s111.5 -142.833 147.5 -229.5s54 -176.667 54 -270c0 -103.333 -20.167 -200.166 -60.5 -290.499s-94 -166.333 -161 -228
s-144.333 -110.167 -232 -145.5s-178.167 -53 -271.5 -53c-132.667 0 -254.667 32.667 -366 98s-198.833 152.833 -262.5 262.5s-95.5 228.5 -95.5 356.5z" />
    <glyph glyph-name="uni043F" unicode="&#x43f;" horiz-adv-x="1314" 
d="M120 1434h1073v-1434h-119v1321h-835v-1321h-119v1434z" />
    <glyph glyph-name="uni0440" unicode="&#x440;" 
d="M238 772l466 0.000976562c74 0 139.333 26.333 196 79s85 118 85 196c0 73.333 -27.333 137.166 -82 191.499s-121 81.5 -199 81.5h-466v-548zM120 1434h593.001c70 -0.666992 134.667 -17.5 194 -50.5s106.833 -79 142.5 -138s53.5 -125.167 53.5 -198.5
c0 -106 -37.833 -196.833 -113.5 -272.5s-167.834 -113.5 -276.501 -113.5h-475v-661h-118v1434z" />
    <glyph glyph-name="uni0441" unicode="&#x441;" horiz-adv-x="1559" 
d="M1381 539l114 -34.999c-46 -152.667 -133.667 -274.834 -263 -366.501s-273 -137.5 -431 -137.5c-101.333 0 -197.333 19.5 -288 58.5s-167.667 91 -231 156s-113.333 141.333 -150 229s-55 178.834 -55 273.501c0 126.667 31.667 245 95 355s151 198.167 263 264.5
s234.333 99.5 367 99.5c159.333 0 302.833 -46.667 430.5 -140s215.167 -215 262.5 -365l-114 -35c-39.333 126 -112.5 228.833 -219.5 308.5s-226.833 119.5 -359.5 119.5c-108 0 -208.167 -26.5 -300.5 -79.5s-165.833 -126.167 -220.5 -219.5s-82 -196 -82 -308
c0 -108 26.167 -208.333 78.5 -301s124.833 -166.834 217.5 -222.501s195 -83.5 307 -83.5c133.333 0 253.333 39.5 360 118.5s179.667 182.5 219 310.5z" />
    <glyph glyph-name="uni0442" unicode="&#x442;" horiz-adv-x="1329" 
d="M43 1434h1243v-113h-562v-1321h-119v1321h-562v113z" />
    <glyph glyph-name="uni0443" unicode="&#x443;" horiz-adv-x="1319" 
d="M149 153c39.333 -22 81.667 -33.667 127 -35c101.333 0 180.333 52 237 156l111 201l-522 959h131l456 -840l459 840h131l-658 -1202c-37.333 -68.667 -85.5 -124.667 -144.5 -168s-125.833 -64.666 -200.5 -63.999c-64 1.33301 -125.333 17.666 -184 48.999z" />
    <glyph glyph-name="uni0444" unicode="&#x444;" horiz-adv-x="1676" 
d="M897 1187l0.000976562 -943c55.333 1.33301 111.166 8.83301 167.499 22.5s110.333 34.167 162 61.5s97.834 59.333 138.501 96s73 80.167 97 130.5s36 103.833 36 160.5s-12 110.167 -36 160.5s-56 93.833 -96 130.5s-85.833 68.667 -137.5 96s-105.834 48 -162.501 62
s-113 21.667 -169 23zM778.001 244l-0.000976562 943.001c-55.333 -1.33301 -111.166 -9 -167.499 -23s-110.333 -34.5 -162 -61.5s-97.667 -58.833 -138 -95.5s-72.5 -80.334 -96.5 -131.001s-36 -104.334 -36 -161.001c0 -70 18.333 -135 55 -195
s84.167 -109.5 142.5 -148.5s122.5 -69.667 192.5 -92s140 -34.166 210 -35.499zM897 1434l0.000976562 -134.999c68 -2.66699 135.833 -12.5 203.5 -29.5s132.667 -42 195 -75s117.333 -71.833 165 -116.5s85.667 -98.334 114 -161.001s42.5 -130 42.5 -202
c0 -71.333 -14.167 -138.166 -42.5 -200.499s-66.333 -115.666 -114 -159.999s-102.667 -83 -165 -116s-127.166 -58.167 -194.499 -75.5s-135.333 -28 -204 -32v-131h-119v131c-63.333 0.666992 -128.333 9.5 -195 26.5s-131.167 42.167 -193.5 75.5
s-118.166 72.666 -167.499 117.999s-88.833 99.666 -118.5 162.999s-44.5 130.333 -44.5 201c0 71.333 14.167 138 42.5 200s66.166 115.333 113.499 160s102.166 83.5 164.499 116.5s127.166 58.167 194.499 75.5s135.333 28 204 32v135h119z" />
    <glyph glyph-name="uni0445" unicode="&#x445;" horiz-adv-x="1397" 
d="M1114 1435h142l-487 -676l548 -759h-142l-477 661l-476 -661h-141l546 759l-486 676h142l415 -577z" />
    <glyph glyph-name="uni0446" unicode="&#x446;" horiz-adv-x="1405" 
d="M1002 1434h119v-1321h198v-410h-119v297h-1138v1434h118v-1321h822v1321z" />
    <glyph glyph-name="uni0447" unicode="&#x447;" horiz-adv-x="1162" 
d="M923 1434h117.999v-1434h-118v643c-166.667 -60.667 -314.667 -91 -444 -91c-139.333 0.666992 -247.166 35.167 -323.499 103.5s-114.5 171.5 -114.5 309.5v467h118v-454c0 -209.333 110 -314 330 -314c117.333 0 262 32.333 434 97v673z" />
    <glyph glyph-name="uni0448" unicode="&#x448;" horiz-adv-x="1835" 
d="M1596 1436h118v-1436h-1594v1436h119v-1323h618v1323h119v-1323h620v1323z" />
    <glyph glyph-name="uni0449" unicode="&#x449;" horiz-adv-x="1946" 
d="M1534 1434h119v-1321h198v-410h-119v297h-1671v1434h118v-1321h618v1321h119v-1321h618v1321z" />
    <glyph glyph-name="uni044A" unicode="&#x44a;" horiz-adv-x="1358" 
d="M453 662v-549h467c73.333 0 138.5 26.333 195.5 79s85.5 117.667 85.5 195c0 73.333 -27.333 137.5 -82 192.5s-121 82.5 -199 82.5h-467zM453 773l476 -0.00292969c106 -1.33301 197.167 -38.666 273.5 -111.999s114.5 -164.666 114.5 -273.999
c0 -107.333 -37.5 -198.666 -112.5 -273.999s-166.833 -113 -275.5 -113h-594v1322h-276v112h394v-661z" />
    <glyph glyph-name="uni044B" unicode="&#x44b;" horiz-adv-x="1507" 
d="M238 662v-550h467c74 0 139.167 26.333 195.5 79s84.5 118 84.5 196c0 73.333 -27.167 137.333 -81.5 192s-120.5 82 -198.5 82zM238 772l476 -0.000976562c106.667 0 198.167 -37 274.5 -111s114.5 -165.333 114.5 -274c0 -107.333 -37.5 -198.666 -112.5 -273.999
s-167.167 -113 -276.5 -113h-594v1434h118v-662zM1386 1434v-1434h-119v1434h119z" />
    <glyph glyph-name="uni044C" unicode="&#x44c;" 
d="M238 661v-549h466c74 0 139.333 26.333 196 79s85 118 85 196c0 74 -27.167 138.167 -81.5 192.5s-120.833 81.5 -199.5 81.5h-466zM238 772l475 -0.000976562c106.667 0 198.334 -37 275.001 -111s115 -165.333 115 -274c0 -107.333 -37.833 -198.666 -113.5 -273.999
s-167.834 -113 -276.501 -113h-593v1434h118v-662z" />
    <glyph glyph-name="uni044D" unicode="&#x44d;" horiz-adv-x="1556" 
d="M755 1434c96 0 188.331 -18.835 276.998 -56.502s165.834 -88.5 231.501 -152.5s118.167 -140.5 157.5 -229.5s59 -182.167 59 -279.5c0 -96 -19.333 -188 -58 -276s-90.334 -164.167 -155.001 -228.5s-141.667 -115.666 -231 -153.999s-182.333 -57.5 -279 -57.5
c-156.667 0 -300 46.667 -430 140s-218 214.666 -264 363.999l113 34c40 -125.333 112.833 -228 218.5 -308s225.834 -120 360.501 -120c102.667 0 197.5 23.5 284.5 70.5s158.167 112.333 213.5 196s88.666 178.167 99.999 283.5h-785v112h785
c-6 74.667 -25.667 145.834 -59 213.501s-76.166 126.167 -128.499 175.5s-114.166 88.5 -185.499 117.5s-146.333 43.5 -225 43.5c-130.667 0 -249 -39 -355 -117s-180.333 -181 -223 -309l-113 34c48.667 148.667 136.5 269.834 263.5 363.501s269.5 140.5 427.5 140.5z
" />
    <glyph glyph-name="uni044E" unicode="&#x44e;" horiz-adv-x="2049" 
d="M1244 1322c-80 0 -156.67 -15.6689 -230.003 -47.002s-137.166 -73.666 -191.499 -126.999s-97.666 -117.666 -129.999 -192.999s-48.5 -154.666 -48.5 -237.999c0 -107.333 25.833 -207.166 77.5 -299.499s123.834 -166.333 216.501 -222s194.667 -83.5 306 -83.5
c106.667 0 206 26.5 298 79.5s165.5 126 220.5 219s82.5 195.167 82.5 306.5c0 109.333 -25.833 209.666 -77.5 300.999s-123.5 164.166 -215.5 218.499s-194.667 82.833 -308 85.5zM1244 1434c127.333 0 246.332 -31.835 356.999 -95.502s199 -150.834 265 -261.501
s99 -230.667 99 -360c0 -95.333 -19.167 -187.166 -57.5 -275.499s-89.666 -164.666 -153.999 -228.999s-141 -115.666 -230 -153.999s-182.167 -57.5 -279.5 -57.5c-121.333 0 -234.166 28 -338.499 84s-190 134.5 -257 235.5s-107.5 214.167 -121.5 339.5h-288v-660h-119
v1433h119v-660h288c12 123.333 50.5 235 115.5 335s150.167 179 255.5 237s220.666 87.667 345.999 89z" />
    <glyph glyph-name="uni044F" unicode="&#x44f;" horiz-adv-x="1257" 
d="M1017 772v548h-466c-74 0 -139.167 -26 -195.5 -78s-84.5 -117 -84.5 -195c0 -74 27.167 -138.333 81.5 -193s120.5 -82 198.5 -82h466zM1017 661l-424 -0.000976562l-384 -661h-135l390 670c-90 18 -164.333 61.667 -223 131s-88 151.333 -88 246
c0 106.667 37.667 197.834 113 273.501s167.333 113.5 276 113.5h594v-1434h-119v661z" />
    <glyph glyph-name="uni0451" unicode="&#x451;" horiz-adv-x="1059" 
d="M90 1434h919v-114h-800v-482h619v-113h-619v-613h800v-112h-919v1434zM426 1682c0 -21.333 -8.00195 -40.168 -24.002 -56.501s-35.333 -24.5 -58 -24.5c-21.333 0 -40.166 7.83301 -56.499 23.5s-24.5 34.834 -24.5 57.501c0 21.333 7.83301 40.333 23.5 57
s34.834 25 57.501 25c22 0 41.167 -7.83301 57.5 -23.5s24.5 -35.167 24.5 -58.5zM836.998 1682c0 -22 -8.00195 -41.001 -24.002 -57.001s-35.333 -24 -58 -24c-21.333 0 -40.166 7.83301 -56.499 23.5s-24.5 34.834 -24.5 57.501c0 21.333 7.83301 40.333 23.5 57
s34.834 25 57.501 25c22 0 41.167 -8 57.5 -24s24.5 -35.333 24.5 -58z" />
    <glyph glyph-name=".null" horiz-adv-x="0" 
 />
    <glyph glyph-name="nonmarkingreturn" horiz-adv-x="682" 
 />
    </font>
</defs>
</svg>
